SplineFontDB: 3.2
FontName: AtkinsonHyperPro-Italic
FullName: Atkinson Hyperlegible Pro Italic
FamilyName: Atkinson Hyperlegible Pro
Weight: Regular
Copyright: Copyright 2020 Braille Institute of America, Inc.
UComments: "Update by Jacob Perez+AAoA-https://jacobxperez.github.io/atkinson-hyperlegible-pro/"
Version: 1.5.1
ItalicAngle: -12
UnderlinePosition: -106
UnderlineWidth: 57
Ascent: 800
Descent: 200
InvalidEm: 0
sfntRevision: 0x00010000
LayerCount: 2
Layer: 0 0 "Back" 1
Layer: 1 0 "Fore" 0
XUID: [1021 466 782043844 3810]
StyleMap: 0x0001
FSType: 0
OS2Version: 4
OS2_WeightWidthSlopeOnly: 0
OS2_UseTypoMetrics: 1
CreationTime: 1618935638
ModificationTime: 1703324615
PfmFamily: 33
TTFWeight: 400
TTFWidth: 5
LineGap: 0
VLineGap: 0
Panose: 0 0 0 0 0 0 0 0 0 0
OS2TypoAscent: 950
OS2TypoAOffset: 0
OS2TypoDescent: -290
OS2TypoDOffset: 0
OS2TypoLinegap: 0
OS2WinAscent: 950
OS2WinAOffset: 0
OS2WinDescent: 290
OS2WinDOffset: 0
HheadAscent: 950
HheadAOffset: 0
HheadDescent: -290
HheadDOffset: 0
OS2SubXSize: 650
OS2SubYSize: 699
OS2SubXOff: 0
OS2SubYOff: 140
OS2SupXSize: 650
OS2SupYSize: 699
OS2SupXOff: 0
OS2SupYOff: 479
OS2StrikeYSize: 49
OS2StrikeYPos: 258
OS2CapHeight: 668
OS2XHeight: 496
OS2FamilyClass: 2048
OS2Vendor: 'NONE'
OS2CodePages: 20000003.00000000
OS2UnicodeRanges: 800000ef.0000204b.00000000.00000000
Lookup: 4 0 1 "'liga' Standard Ligatures lookup 0" { "'liga' Standard Ligatures lookup 0-1"  } ['liga' ('DFLT' <'dflt' > 'grek' <'dflt' > 'latn' <'MOL ' 'dflt' > ) ]
Lookup: 1 0 0 "'zero' Slashed Zero lookup 0" { "'zero' Slashed Zero lookup 0-1"  } ['zero' ('DFLT' <'dflt' > 'grek' <'dflt' > 'latn' <'MOL ' 'dflt' > ) ]
Lookup: 1 0 0 "'aalt' Access All Alternates lookup 0" { "'aalt' Access All Alternates lookup 0 subtable"  } ['aalt' ('DFLT' <'dflt' > 'grek' <'dflt' > 'latn' <'dflt' > ) ]
Lookup: 3 0 0 "'aalt' Access All Alternates lookup 1" { "'aalt' Access All Alternates lookup 1 subtable"  } ['aalt' ('DFLT' <'dflt' > 'grek' <'dflt' > 'latn' <'dflt' > ) ]

StartChar: zero
Encoding: 48 48 5
Width: 654
GlyphClass: 1
Flags: W
HStem: -12 75<223.328 386.366> 605 75<285.057 448.414>
VStem: 66 92<138.566 419.21> 514 92<249.469 529.645>
LayerCount: 2
Fore
SplineSet
606 417 m 0
 606 157 483 -12 293 -12 c 0
 146 -12 66 80 66 251 c 0
 66 511 189 680 378 680 c 0
 527 680 606 589 606 417 c 0
465 172 m 1
 495 234 514 326 514 411 c 0
 514 539 465 605 369 605 c 0
 330 605 298 595 270 574 c 1
 465 172 l 1
158 257 m 0
 158 129 207 63 302 63 c 0
 343 63 379 75 408 98 c 1
 211 503 l 1
 180 448 158 346 158 257 c 0
EndSplineSet
Substitution2: "'zero' Slashed Zero lookup 0-1" zero.alt1
Substitution2: "'aalt' Access All Alternates lookup 0 subtable" zero.alt1
Substitution2: "'tnum' Tabular Numbers lookup 14 subtable" zero.tf
EndChar

StartChar: one
Encoding: 49 49 6
Width: 403
GlyphClass: 1
Flags: W
HStem: 0 21G<158 247.251> 503 68<101 245.021> 648 20G<310.5 385>
VStem: 158 85<0 85> 327 58<636.343 668>
LayerCount: 2
Fore
SplineSet
101 571 m 1
 226 571 294 600 327 668 c 1
 385 668 l 1
 243 0 l 1
 158 0 l 1
 265 503 l 1
 87 503 l 1
 101 571 l 1
EndSplineSet
Substitution2: "'tnum' Tabular Numbers lookup 14 subtable" one.tf
Substitution2: "'sups' Superscript lookup 9 subtable" uni00B9
AlternateSubs2: "'aalt' Access All Alternates lookup 1 subtable" uni00B9 one.tf
EndChar

StartChar: two
Encoding: 50 50 7
Width: 565
GlyphClass: 1
Flags: W
HStem: 0 77<131 463> 498 21G<109 189> 610 70<251.569 410.279>
VStem: 455 93<419.827 566.264>
LayerCount: 2
Fore
SplineSet
548 510 m 0
 548 368 425 240 131 77 c 1
 479 77 l 1
 463 0 l 1
 -18 0 l 1
 -2 76 l 1
 324 259 455 381 455 501 c 0
 455 565 408 610 341 610 c 0
 263 610 204 571 174 498 c 1
 96 522 l 1
 143 627 226 680 344 680 c 0
 470 680 548 615 548 510 c 0
EndSplineSet
Substitution2: "'tnum' Tabular Numbers lookup 14 subtable" two.tf
Substitution2: "'sups' Superscript lookup 9 subtable" uni00B2
AlternateSubs2: "'aalt' Access All Alternates lookup 1 subtable" uni00B2 two.tf
EndChar

StartChar: three
Encoding: 51 51 8
Width: 580
GlyphClass: 1
Flags: W
HStem: -12 70<178.481 348.399> 315 75<230 352.857> 498 21G<106.6 181.5> 610 70<235.862 402.345>
VStem: 32 86<119.975 159.872> 416 89<120.534 262.763> 446 92<439.453 567.917>
LayerCount: 2
Fore
SplineSet
505 198 m 0xfc
 505 73 405 -12 259 -12 c 0
 135 -12 51 51 32 158 c 1
 118 181 l 1
 129 102 181 58 261 58 c 0
 350 58 416 113 416 187 c 0xfc
 416 279 359 315 214 315 c 1
 230 390 l 1
 386 390 446 422 446 506 c 0
 446 569 396 610 318 610 c 0
 243 610 194 573 169 498 c 1
 91 523 l 1
 121 622 207 680 323 680 c 0
 455 680 538 618 538 520 c 0xfa
 538 437 490 376 403 347 c 1
 471 325 505 276 505 198 c 0xfc
EndSplineSet
Substitution2: "'tnum' Tabular Numbers lookup 14 subtable" three.tf
Substitution2: "'sups' Superscript lookup 9 subtable" uni00B3
AlternateSubs2: "'aalt' Access All Alternates lookup 1 subtable" uni00B3 three.tf
EndChar

StartChar: four
Encoding: 52 52 9
Width: 636
GlyphClass: 1
Flags: W
HStem: 0 21G<320 411.242> 165 79<127 356 459 566> 648 20G<441.811 549>
VStem: 320 87<0 87>
LayerCount: 2
Fore
SplineSet
320 0 m 1
 356 165 l 1
 17 165 l 1
 34 244 l 1
 462 668 l 1
 549 668 l 1
 459 244 l 1
 583 244 l 1
 566 165 l 1
 442 165 l 1
 407 0 l 1
 320 0 l 1
127 244 m 1
 372 244 l 1
 438 552 l 1
 127 244 l 1
EndSplineSet
Substitution2: "'tnum' Tabular Numbers lookup 14 subtable" four.tf
Substitution2: "'sups' Superscript lookup 9 subtable" uni2074
AlternateSubs2: "'aalt' Access All Alternates lookup 1 subtable" four.tf uni2074
EndChar

StartChar: five
Encoding: 53 53 10
Width: 575
GlyphClass: 1
Flags: W
HStem: -12 72<170.072 331.219> 377 73<206.537 358.202> 587 81<229 543>
VStem: 25 83<126.234 155.94> 410 91<141.468 324.248>
LayerCount: 2
Fore
SplineSet
108 177 m 1
 129 100 177 60 248 60 c 0
 347 60 410 129 410 238 c 0
 410 328 362 377 274 377 c 0
 216 377 168 351 141 305 c 1
 63 329 l 1
 176 668 l 1
 561 668 l 1
 543 587 l 1
 229 587 l 1
 166 400 l 1
 202 433 247 450 301 450 c 0
 418 450 501 366 501 247 c 0
 501 94 399 -12 252 -12 c 0
 132 -12 50 48 25 154 c 1
 108 177 l 1
EndSplineSet
Substitution2: "'tnum' Tabular Numbers lookup 14 subtable" five.tf
Substitution2: "'aalt' Access All Alternates lookup 0 subtable" five.tf
EndChar

StartChar: six
Encoding: 54 54 11
Width: 605
GlyphClass: 1
Flags: W
HStem: -12 70<211.953 362.875> 370 75<236.842 388.621> 610 70<288.923 435.218>
VStem: 62 89<122.764 289.464> 444 90<142.952 313.51>
LayerCount: 2
Fore
SplineSet
534 240 m 0
 534 90 431 -12 281 -12 c 0
 139 -12 62 76 62 238 c 0
 62 495 192 680 372 680 c 0
 463 680 529 641 553 573 c 1
 465 548 l 1
 449 589 415 610 363 610 c 0
 264 610 192 520 164 361 c 1
 200 415 262 445 336 445 c 0
 454 445 534 362 534 240 c 0
151 205 m 0
 151 119 206 58 284 58 c 0
 377 58 444 130 444 232 c 0
 444 317 393 370 310 370 c 0
 215 370 151 303 151 205 c 0
EndSplineSet
Substitution2: "'tnum' Tabular Numbers lookup 14 subtable" six.tf
Substitution2: "'aalt' Access All Alternates lookup 0 subtable" six.tf
EndChar

StartChar: seven
Encoding: 55 55 12
Width: 537
GlyphClass: 1
Flags: W
HStem: 0 21G<31 153.003> 587 81<96 445>
LayerCount: 2
Fore
SplineSet
31 0 m 1
 445 587 l 1
 78 587 l 1
 96 668 l 1
 567 668 l 1
 550 587 l 1
 139 0 l 1
 31 0 l 1
EndSplineSet
Substitution2: "'tnum' Tabular Numbers lookup 14 subtable" seven.tf
Substitution2: "'aalt' Access All Alternates lookup 0 subtable" seven.tf
EndChar

StartChar: eight
Encoding: 56 56 13
Width: 617
GlyphClass: 1
Flags: W
HStem: -12 75<181.325 370.925> 317 74<245.528 372.954> 605 75<264.539 391.774>
VStem: 38 91<110.118 247.065> 137 74<425.656 551.961> 427 74<443.524 570.406> 444 90<130.581 269.275>
LayerCount: 2
Fore
SplineSet
534 212 m 0xfa
 534 79 425 -12 266 -12 c 0
 127 -12 38 58 38 166 c 0
 38 258 91 332 181 365 c 1
 152 396 137 434 137 479 c 0
 137 587 230 680 338 680 c 0
 431 680 501 610 501 516 c 0xfc
 501 459 475 404 429 365 c 1
 496 338 534 284 534 212 c 0xfa
211 487 m 0
 211 433 253 391 307 391 c 0
 372 391 427 445 427 509 c 0
 427 564 385 605 329 605 c 0
 265 605 211 551 211 487 c 0
129 174 m 0
 129 105 184 63 274 63 c 0
 377 63 444 118 444 203 c 0xfa
 444 274 390 317 299 317 c 0
 197 317 129 259 129 174 c 0
EndSplineSet
Substitution2: "'tnum' Tabular Numbers lookup 14 subtable" eight.tf
Substitution2: "'aalt' Access All Alternates lookup 0 subtable" eight.tf
EndChar

StartChar: nine
Encoding: 57 57 14
Width: 601
GlyphClass: 1
Flags: W
HStem: 0 21G<151 270> 209 79<236.574 333.562> 596 84<267.899 430.08>
VStem: 92 87<346.103 506.901> 487 87<384.072 542.058>
LayerCount: 2
Fore
SplineSet
359 680 m 0
 482 680 574 589 574 468 c 0
 574 390 541 333 384 140 c 0
 363 113 273 6 267 0 c 1
 151 0 l 1
 335 211 l 1
 310 209 306 209 305 209 c 0
 303 209 304 209 302 209 c 0
 178 209 92 294 92 416 c 0
 92 563 210 680 359 680 c 0
179 423 m 0
 179 344 235 288 312 288 c 0
 405 288 487 372 487 467 c 0
 487 544 433 596 353 596 c 0
 255 596 179 521 179 423 c 0
EndSplineSet
Substitution2: "'tnum' Tabular Numbers lookup 14 subtable" nine.tf
Substitution2: "'aalt' Access All Alternates lookup 0 subtable" nine.tf
EndChar

StartChar: A
Encoding: 65 65 15
AltUni2: 000391.ffffffff.0
Width: 627
GlyphClass: 2
Flags: W
HStem: 0 21G<-52 67.3699 459.123 565> 146 80<184 430> 648 20G<328.263 459.263>
VStem: 462 103<0 103>
AnchorPoint: "Anchor-2" 565 0 basechar 0
AnchorPoint: "Anchor-1" 387 668 basechar 0
AnchorPoint: "Anchor-0" 261 0 basechar 0
LayerCount: 2
Fore
SplineSet
-52 0 m 1
 340 668 l 1
 456 668 l 1
 565 0 l 1
 462 0 l 1
 441 146 l 1
 139 146 l 1
 56 0 l 1
 -52 0 l 1
184 226 m 1
 430 226 l 1
 381 573 l 1
 184 226 l 1
EndSplineSet
Substitution2: "Single Substitution lookup 12 subtable" ordfeminine
Substitution2: "'aalt' Access All Alternates lookup 0 subtable" ordfeminine
EndChar

StartChar: B
Encoding: 66 66 16
AltUni2: 000392.ffffffff.0
Width: 625
GlyphClass: 1
Flags: W
HStem: 0 79<127 394.519> 308 74<192 428.915> 588 80<235 469.741>
VStem: 468 104<147.254 272.725> 504 100<437.699 556.177>
AnchorPoint: "Anchor-0" 260 0 basechar 0
AnchorPoint: "Anchor-1" 342 668 basechar 0
LayerCount: 2
Fore
SplineSet
572 221 m 0xf0
 572 94 456 0 300 0 c 2
 14 0 l 1
 156 668 l 1
 407 668 l 2
 527 668 604 610 604 518 c 0xe8
 604 449 560 385 490 352 c 1
 542 332 572 284 572 221 c 0xf0
504 499 m 0
 504 553 463 588 400 588 c 2
 235 588 l 1
 192 382 l 1
 364 382 l 2
 444 382 504 432 504 499 c 0
468 213 m 0xf0
 468 272 422 308 348 308 c 2
 176 308 l 1
 127 79 l 1
 308 79 l 2
 397 79 468 139 468 213 c 0xf0
EndSplineSet
EndChar

StartChar: C
Encoding: 67 67 17
Width: 661
GlyphClass: 2
Flags: W
HStem: -12 79<242.041 427.382> 498 21G<555.5 625.333> 600 80<319.861 500.884>
VStem: 53 96<166.313 399.103>
AnchorPoint: "Anchor-1" 420 668 basechar 0
AnchorPoint: "Anchor-0" 295 0 basechar 0
LayerCount: 2
Fore
SplineSet
595 140 m 1
 534 41 437 -12 315 -12 c 0
 151 -12 53 91 53 263 c 0
 53 497 214 680 421 680 c 0
 542 680 624 627 655 528 c 1
 566 498 l 1
 545 563 489 600 411 600 c 0
 266 600 149 454 149 272 c 0
 149 149 219 67 325 67 c 0
 410 67 467 98 516 171 c 1
 595 140 l 1
EndSplineSet
EndChar

StartChar: D
Encoding: 68 68 18
Width: 674
GlyphClass: 2
Flags: W
HStem: 0 79<127 351.747> 588 80<235 449.777>
VStem: 544 95<273.74 502.876>
AnchorPoint: "Anchor-1" 378 668 basechar 0
AnchorPoint: "Anchor-0" 285 0 basechar 0
LayerCount: 2
Fore
SplineSet
14 0 m 1
 156 668 l 1
 340 668 l 2
 541 668 639 585 639 414 c 0
 639 383 636 351 631 319 c 0
 597 115 441 0 199 0 c 2
 14 0 l 1
127 79 m 1
 213 79 l 2
 399 79 509 163 536 325 c 0
 541 360 544 386 544 407 c 0
 544 533 475 588 320 588 c 2
 235 588 l 1
 127 79 l 1
EndSplineSet
EndChar

StartChar: E
Encoding: 69 69 19
AltUni2: 000395.ffffffff.0
Width: 565
GlyphClass: 2
Flags: W
HStem: 0 81<127 469> 304 80<192 439> 587 81<235 594>
AnchorPoint: "Anchor-2" 438 0 basechar 0
AnchorPoint: "Anchor-1" 380 668 basechar 0
AnchorPoint: "Anchor-0" 230 0 basechar 0
LayerCount: 2
Fore
SplineSet
14 0 m 1
 156 668 l 1
 611 668 l 1
 594 587 l 1
 235 587 l 1
 192 384 l 1
 457 384 l 1
 439 304 l 1
 175 304 l 1
 127 81 l 1
 486 81 l 1
 469 0 l 1
 14 0 l 1
EndSplineSet
EndChar

StartChar: F
Encoding: 70 70 20
Width: 546
GlyphClass: 1
Flags: W
HStem: 0 21G<14 114.276> 304 80<192 514> 587 81<235 574>
VStem: 14 96<0 96>
AnchorPoint: "Anchor-1" 374 668 basechar 0
LayerCount: 2
Fore
SplineSet
14 0 m 1
 156 668 l 1
 592 668 l 1
 574 587 l 1
 235 587 l 1
 192 384 l 1
 531 384 l 1
 514 304 l 1
 175 304 l 1
 110 0 l 1
 14 0 l 1
EndSplineSet
EndChar

StartChar: G
Encoding: 71 71 21
Width: 712
GlyphClass: 2
Flags: W
HStem: -12 75<251.105 417.215> 0 21G<523.537 585.302> 264 80<368 547> 498 21G<557.5 625.333> 600 80<318.355 500.294>
VStem: 54 96<169.682 401.033> 525 56<0 32.5405>
AnchorPoint: "Anchor-1" 445 668 basechar 0
AnchorPoint: "Anchor-0" 303 0 basechar 0
LayerCount: 2
Fore
SplineSet
411 600 m 0xbe
 264 600 150 457 150 273 c 0
 150 150 228 63 338 63 c 0xbe
 436 63 516 134 542 243 c 2
 547 264 l 1
 351 264 l 1
 368 344 l 1
 655 344 l 1
 581 0 l 1
 525 0 l 1x7e
 519 82 l 1
 463 19 390 -12 300 -12 c 0
 149 -12 54 95 54 265 c 0
 54 500 212 680 418 680 c 0
 544 680 626 628 655 528 c 1
 566 498 l 1
 549 561 490 600 411 600 c 0xbe
EndSplineSet
EndChar

StartChar: H
Encoding: 72 72 22
AltUni2: 000397.ffffffff.0
Width: 694
GlyphClass: 1
Flags: W
HStem: 0 21G<14 114.276 460 560.251> 304 80<192 524> 648 20G<151.749 252 597.775 698>
VStem: 14 96<0 96> 156 96<572 668> 460 96<0 96> 602 96<572 668>
AnchorPoint: "Anchor-0" 294 0 basechar 0
AnchorPoint: "Anchor-1" 417 668 basechar 0
LayerCount: 2
Fore
SplineSet
14 0 m 1
 156 668 l 1
 252 668 l 1
 192 384 l 1
 542 384 l 1
 602 668 l 1
 698 668 l 1
 556 0 l 1
 460 0 l 1
 524 304 l 1
 175 304 l 1
 110 0 l 1
 14 0 l 1
EndSplineSet
EndChar

StartChar: I
Encoding: 73 73 23
AltUni2: 000399.ffffffff.0
Width: 414
GlyphClass: 2
Flags: W
HStem: 0 75<20 113 209 285> 593 75<146 223 318 412>
AnchorPoint: "Anchor-2" 196 0 basechar 0
AnchorPoint: "Anchor-1" 287 668 basechar 0
AnchorPoint: "Anchor-0" 150 0 basechar 0
LayerCount: 2
Fore
SplineSet
4 0 m 1
 20 75 l 1
 113 75 l 1
 223 593 l 1
 130 593 l 1
 146 668 l 1
 427 668 l 1
 412 593 l 1
 318 593 l 1
 209 75 l 1
 301 75 l 1
 285 0 l 1
 4 0 l 1
EndSplineSet
EndChar

StartChar: J
Encoding: 74 74 24
Width: 509
GlyphClass: 1
Flags: W
HStem: -12 77<107.523 250.493> 648 20G<412.736 513>
VStem: -9 87<94.6058 190> 417 96<572 668>
AnchorPoint: "Anchor-1" 466 668 basechar 0
LayerCount: 2
Fore
SplineSet
78 166 m 0
 78 99 111 65 175 65 c 0
 253 65 298 111 320 213 c 2
 417 668 l 1
 513 668 l 1
 416 212 l 2
 382 52 310 -12 163 -12 c 0
 57 -12 -9 53 -9 159 c 0
 -9 167 -8 176 -7 190 c 1
 83 214 l 1
 79 191 78 180 78 166 c 0
EndSplineSet
EndChar

StartChar: K
Encoding: 75 75 25
AltUni2: 00039a.ffffffff.0
Width: 623
GlyphClass: 2
Flags: W
HStem: 0 21G<14 114.286 435.815 551> 648 20G<151.749 252 517.895 670>
VStem: 14 96<0 96> 156 96<572 668>
AnchorPoint: "Anchor-1" 401 668 basechar 0
AnchorPoint: "Anchor-0" 259 0 basechar 0
LayerCount: 2
Fore
SplineSet
14 0 m 1
 156 668 l 1
 252 668 l 1
 183 345 l 1
 540 668 l 1
 670 668 l 1
 351 385 l 1
 551 0 l 1
 446 0 l 1
 281 324 l 1
 155 210 l 1
 110 0 l 1
 14 0 l 1
EndSplineSet
EndChar

StartChar: L
Encoding: 76 76 26
Width: 541
GlyphClass: 2
Flags: W
HStem: 0 81<127 469> 648 20G<151.749 252>
VStem: 156 96<572 668>
AnchorPoint: "Anchor-1" 224 668 basechar 0
AnchorPoint: "Anchor-0" 252 0 basechar 0
LayerCount: 2
Fore
SplineSet
14 0 m 1
 156 668 l 1
 252 668 l 1
 127 81 l 1
 486 81 l 1
 469 0 l 1
 14 0 l 1
EndSplineSet
EndChar

StartChar: M
Encoding: 77 77 27
AltUni2: 00039c.ffffffff.0
Width: 824
GlyphClass: 1
Flags: W
HStem: 0 21G<14 114.278 302.496 411.055 590 690.251> 648 20G<151.749 314.288 655.225 828>
VStem: 14 96<0 96> 590 96<0 96>
AnchorPoint: "Anchor-1" 473 668 basechar 0
LayerCount: 2
Fore
SplineSet
14 0 m 1
 156 668 l 1
 312 668 l 1
 374 126 l 1
 666 668 l 1
 828 668 l 1
 686 0 l 1
 590 0 l 1
 709 559 l 1
 400 0 l 1
 305 0 l 1
 233 575 l 1
 110 0 l 1
 14 0 l 1
EndSplineSet
EndChar

StartChar: N
Encoding: 78 78 28
AltUni2: 00039d.ffffffff.0
Width: 693
GlyphClass: 2
Flags: W
HStem: 0 21G<14 114.271 411.576 559.251> 648 20G<151.749 299.481 596.749 697>
VStem: 14 96<0 96> 601 96<572 668>
AnchorPoint: "Anchor-1" 436 668 basechar 0
AnchorPoint: "Anchor-0" 264 0 basechar 0
LayerCount: 2
Fore
SplineSet
14 0 m 1
 156 668 l 1
 293 668 l 1
 479 94 l 1
 601 668 l 1
 697 668 l 1
 555 0 l 1
 418 0 l 1
 233 576 l 1
 110 0 l 1
 14 0 l 1
EndSplineSet
EndChar

StartChar: O
Encoding: 79 79 29
AltUni2: 00039f.ffffffff.0
Width: 728
GlyphClass: 2
Flags: W
HStem: -12 79<242.313 419.57> 600 80<321.853 506.246>
VStem: 55 95<164.895 403.129> 596 95<266.031 503.218>
AnchorPoint: "Anchor-2" 407 0 basechar 0
AnchorPoint: "Anchor-1" 438 668 basechar 0
AnchorPoint: "Anchor-0" 311 0 basechar 0
LayerCount: 2
Fore
SplineSet
691 401 m 0
 691 164 530 -12 312 -12 c 0
 157 -12 55 99 55 268 c 0
 55 508 213 680 433 680 c 4
 588 680 691 569 691 401 c 0
150 269 m 0
 150 147 219 67 325 67 c 0
 480 67 596 209 596 399 c 0
 596 521 527 600 420 600 c 0
 264 600 150 460 150 269 c 0
EndSplineSet
Substitution2: "Single Substitution lookup 12 subtable" ordmasculine
Substitution2: "'aalt' Access All Alternates lookup 0 subtable" ordmasculine
EndChar

StartChar: P
Encoding: 80 80 30
AltUni2: 0003a1.ffffffff.0
Width: 597
GlyphClass: 1
Flags: W
HStem: 0 21G<14 114.226> 265 81<184 433.234> 588 80<235 462.351>
VStem: 14 96<0 96> 503 98<405.67 552.054>
AnchorPoint: "Anchor-1" 349 668 basechar 0
LayerCount: 2
Fore
SplineSet
601 497 m 0
 601 340 500 265 287 265 c 2
 166 265 l 1
 110 0 l 1
 14 0 l 1
 156 668 l 1
 342 668 l 2
 520 668 601 614 601 497 c 0
311 346 m 2
 443 346 503 390 503 488 c 0
 503 558 458 588 351 588 c 2
 235 588 l 1
 184 346 l 1
 311 346 l 2
EndSplineSet
EndChar

StartChar: Q
Encoding: 81 81 31
Width: 748
GlyphClass: 1
Flags: W
HStem: 5 79<245.313 430.972> 617 79<328.177 509.246>
VStem: 58 95<181.895 419.865> 599 95<286.052 519.804>
LayerCount: 2
Fore
SplineSet
694 418 m 0
 694 312 653 198 588 123 c 1
 687 7 l 1
 617 -55 l 1
 517 62 l 1
 461 24 394 5 315 5 c 0
 160 5 58 116 58 285 c 0
 58 525 216 696 436 696 c 0
 591 696 694 585 694 418 c 0
153 286 m 0
 153 164 222 84 328 84 c 0
 379 84 424 97 464 124 c 1
 328 284 l 1
 399 344 l 1
 531 190 l 1
 573 249 599 336 599 415 c 0
 599 538 530 617 423 617 c 0
 268 617 153 476 153 286 c 0
EndSplineSet
EndChar

StartChar: R
Encoding: 82 82 32
Width: 610
GlyphClass: 2
Flags: W
HStem: 0 21G<14 114.27 402.822 518> 281 79<187 270> 588 80<235 466.844>
VStem: 14 96<0 96> 503 98<415.946 555.039>
AnchorPoint: "Anchor-1" 374 668 basechar 0
AnchorPoint: "Anchor-0" 252 0 basechar 0
LayerCount: 2
Fore
SplineSet
601 508 m 0
 601 379 520 302 371 288 c 1
 518 0 l 1
 413 0 l 1
 270 281 l 1
 170 281 l 1
 110 0 l 1
 14 0 l 1
 156 668 l 1
 360 668 l 2
 524 668 601 617 601 508 c 0
503 495 m 0
 503 561 459 588 352 588 c 2
 235 588 l 1
 187 360 l 1
 311 360 l 2
 447 360 503 399 503 495 c 0
EndSplineSet
EndChar

StartChar: S
Encoding: 83 83 33
Width: 609
GlyphClass: 2
Flags: W
HStem: -12 79<200.039 382.77> 601 79<231.165 412.826>
VStem: 87 95<441.147 557.626> 446 98<122.768 243.872>
AnchorPoint: "Anchor-1" 356 668 basechar 0
AnchorPoint: "Anchor-0" 277 0 basechar 0
LayerCount: 2
Fore
SplineSet
544 197 m 0
 544 78 433 -12 285 -12 c 0
 165 -12 71 48 36 147 c 1
 127 172 l 1
 150 107 213 67 293 67 c 0
 382 67 446 116 446 184 c 0
 446 245 413 271 287 307 c 0
 135 351 87 396 87 495 c 0
 87 604 184 680 324 680 c 0
 434 680 527 631 561 555 c 1
 469 529 l 1
 447 572 387 601 320 601 c 0
 236 601 182 561 182 498 c 0
 182 440 213 418 353 376 c 0
 495 334 544 288 544 197 c 0
EndSplineSet
EndChar

StartChar: T
Encoding: 84 84 34
AltUni2: 0003a4.ffffffff.0
Width: 558
GlyphClass: 2
Flags: W
HStem: 0 21G<169 270.191> 587 81<90 293 389 611>
VStem: 169 97<0 97>
AnchorPoint: "Anchor-1" 356 668 basechar 0
AnchorPoint: "Anchor-0" 218 0 basechar 0
LayerCount: 2
Fore
SplineSet
169 0 m 1
 293 587 l 1
 73 587 l 1
 90 668 l 1
 628 668 l 1
 611 587 l 1
 389 587 l 1
 266 0 l 1
 169 0 l 1
EndSplineSet
EndChar

StartChar: U
Encoding: 85 85 35
Width: 693
GlyphClass: 2
Flags: W
HStem: -12 81<200.563 403.792> 648 20G<152.722 253 596.707 697>
VStem: 62 97<108.409 321.969> 157 96<572 668> 601 96<572 668>
AnchorPoint: "Anchor-2" 352 0 basechar 0
AnchorPoint: "Anchor-1" 415 668 basechar 0
AnchorPoint: "Anchor-0" 294 0 basechar 0
LayerCount: 2
Fore
SplineSet
291 69 m 0xe8
 422 69 484 125 516 272 c 2
 601 668 l 1
 697 668 l 1
 614 280 l 2
 570 72 476 -12 286 -12 c 0
 132 -12 62 47 62 175 c 0xe8
 62 205 66 238 74 280 c 2
 157 668 l 1
 253 668 l 1xd8
 169 272 l 2
 162 243 159 214 159 187 c 0
 159 104 198 69 291 69 c 0xe8
EndSplineSet
EndChar

StartChar: V
Encoding: 86 86 36
Width: 592
GlyphClass: 1
Flags: W
HStem: 0 21G<175.365 301.138> 648 20G<90 191.222 540.247 662>
VStem: 90 99<569 668>
LayerCount: 2
Fore
SplineSet
178 0 m 1
 90 668 l 1
 189 668 l 1
 251 110 l 1
 551 668 l 1
 662 668 l 1
 290 0 l 1
 178 0 l 1
EndSplineSet
EndChar

StartChar: W
Encoding: 87 87 37
Width: 844
GlyphClass: 1
Flags: W
HStem: 0 21G<115.222 235.893 482.601 613.281> 648 20G<90 190.444 427.333 549.181 794.926 914>
VStem: 90 100<488.154 668> 116 86<128 179.846> 472 77<200.364 551> 483 71<117 350.636>
AnchorPoint: "Anchor-1" 488 668 basechar 0
LayerCount: 2
Fore
SplineSet
116 0 m 1xd8
 90 668 l 1
 190 668 l 1xe0
 202 128 l 1
 436 668 l 1
 549 668 l 1xd8
 554 117 l 1
 804 668 l 1
 914 668 l 1
 604 0 l 1
 483 0 l 1xc4
 472 551 l 1
 227 0 l 1
 116 0 l 1xd8
EndSplineSet
EndChar

StartChar: X
Encoding: 88 88 38
AltUni2: 0003a7.ffffffff.0
Width: 624
GlyphClass: 1
Flags: W
HStem: 0 21G<-52 91.4848 439 552> 648 20G<116 227.878 547.469 691>
AnchorPoint: "Anchor-1" 379 668 basechar 0
AnchorPoint: "Anchor-0" 269 0 basechar 0
LayerCount: 2
Fore
SplineSet
-52 0 m 1
 274 351 l 1
 116 668 l 1
 218 668 l 1
 339 423 l 1
 566 668 l 1
 691 668 l 1
 383 336 l 1
 552 0 l 1
 449 0 l 1
 317 264 l 1
 73 0 l 1
 -52 0 l 1
EndSplineSet
EndChar

StartChar: Y
Encoding: 89 89 39
AltUni2: 0003a5.ffffffff.0
Width: 598
GlyphClass: 2
Flags: W
HStem: 0 21G<177 278.25> 648 20G<90 192.172 538.332 668>
VStem: 90 96<572 668> 177 97<0 97>
AnchorPoint: "Anchor-1" 362 668 basechar 0
AnchorPoint: "Anchor-0" 226 0 basechar 0
LayerCount: 2
Fore
SplineSet
177 0 m 1xd0
 229 240 l 1
 90 668 l 1
 186 668 l 1xe0
 290 331 l 1
 554 668 l 1
 668 668 l 1
 325 240 l 1
 274 0 l 1
 177 0 l 1xd0
EndSplineSet
EndChar

StartChar: Z
Encoding: 90 90 40
AltUni2: 000396.ffffffff.0
Width: 613
GlyphClass: 2
Flags: W
HStem: 0 81<123 506> 587 81<145 500>
AnchorPoint: "Anchor-1" 388 668 basechar 0
AnchorPoint: "Anchor-0" 254 0 basechar 0
LayerCount: 2
Fore
SplineSet
-18 0 m 1
 -1 81 l 1
 500 587 l 1
 128 587 l 1
 145 668 l 1
 640 668 l 1
 623 587 l 1
 123 81 l 1
 524 81 l 1
 506 0 l 1
 -18 0 l 1
EndSplineSet
EndChar

StartChar: a
Encoding: 97 97 41
Width: 521
GlyphClass: 2
Flags: W
HStem: -12 69<117.834 256.314> 0 21G<327.73 410.5> 436 68<205.882 355.46>
VStem: 5 94<76.4346 182.08> 329 79<0 63> 377 85<309.323 414.095>
AnchorPoint: "Anchor-2" 408 0 basechar 0
AnchorPoint: "Anchor-1" 311 496 basechar 0
AnchorPoint: "Anchor-0" 208 0 basechar 0
LayerCount: 2
Fore
SplineSet
325 63 m 1x78
 278 10 227 -12 154 -12 c 0
 65 -12 5 40 5 117 c 0
 5 220 97 279 289 299 c 0
 320 302 347 305 370 308 c 1
 376 336 377 346 377 357 c 0
 377 410 346 436 285 436 c 0
 226 436 182 409 158 359 c 1
 83 382 l 1
 120 461 189 504 281 504 c 0
 401 504 462 456 462 361 c 0xb4
 462 283 413 174 408 0 c 1
 329 0 l 1
 325 63 l 1x78
99 125 m 0
 99 83 131 57 181 57 c 0
 272 57 342 122 359 224 c 2
 362 241 l 1
 153 221 99 197 99 125 c 0
EndSplineSet
Substitution2: "Single Substitution lookup 12 subtable" ordfeminine
Substitution2: "'aalt' Access All Alternates lookup 0 subtable" ordfeminine
EndChar

StartChar: b
Encoding: 98 98 42
Width: 555
GlyphClass: 1
Flags: W
HStem: -12 72<190.638 323.194> 0 21G<7 81> 432 72<244.219 372.395> 648 20G<144.749 235>
VStem: 149 86<582 668> 419 90<177.115 382.841>
AnchorPoint: "Anchor-1" 333 496 basechar 0
AnchorPoint: "Anchor-0" 266 0 basechar 0
LayerCount: 2
Fore
SplineSet
509 293 m 0x7c
 509 120 404 -12 266 -12 c 0xbc
 197 -12 146 19 112 82 c 1
 71 0 l 1
 7 0 l 1
 149 668 l 1
 235 668 l 1
 184 430 l 1
 222 479 269 504 324 504 c 0
 442 504 509 427 509 293 c 0x7c
138 211 m 0
 138 120 186 60 257 60 c 0
 348 60 419 161 419 291 c 0
 419 381 379 432 307 432 c 0
 214 432 138 332 138 211 c 0
EndSplineSet
EndChar

StartChar: c
Encoding: 99 99 43
Width: 495
GlyphClass: 2
Flags: W
HStem: -12 74<163.618 319.299> 430 74<218.155 366.495>
VStem: 26 92<110.665 310.438>
AnchorPoint: "Anchor-1" 301 496 basechar 0
AnchorPoint: "Anchor-0" 195 0 basechar 0
LayerCount: 2
Fore
SplineSet
436 99 m 1
 392 28 315 -12 222 -12 c 0
 99 -12 26 64 26 192 c 0
 26 372 141 504 298 504 c 0
 387 504 449 467 483 393 c 1
 400 364 l 1
 387 404 345 430 294 430 c 0
 191 430 118 333 118 197 c 0
 118 109 160 62 241 62 c 0
 292 62 333 84 365 127 c 1
 436 99 l 1
EndSplineSet
EndChar

StartChar: d
Encoding: 100 100 44
Width: 555
GlyphClass: 2
Flags: W
HStem: -12 72<161.925 297.433> 0 21G<359.361 442.5> 432 72<210.122 348.686> 648 20G<476.778 567>
VStem: 27 90<110.444 314.786> 398 44<0 281> 481 86<582 668>
AnchorPoint: "Anchor-1" 271 496 basechar 0
AnchorPoint: "Anchor-0" 225 0 basechar 0
LayerCount: 2
Fore
SplineSet
356 61 m 1x7e
 317 11 269 -12 205 -12 c 0xbe
 97 -12 27 70 27 198 c 0
 27 373 132 504 271 504 c 0
 345 504 404 463 424 398 c 1
 481 668 l 1
 567 668 l 1
 566 662 469 214 452 114 c 0
 446 84 443 48 442 0 c 1
 361 0 l 1
 356 61 l 1x7e
280 432 m 0
 187 432 117 332 117 199 c 0
 117 114 159 60 226 60 c 0
 324 60 398 155 398 281 c 0
 398 377 355 432 280 432 c 0
EndSplineSet
EndChar

StartChar: e
Encoding: 101 101 45
Width: 542
GlyphClass: 2
Flags: W
HStem: -12 74<168.151 337.271> 225 68<128 421.965> 432 72<214.797 374.172>
VStem: 27 88<115.669 224.07> 422 87<293.224 383.941>
AnchorPoint: "Anchor-2" 337 10 basechar 0
AnchorPoint: "Anchor-1" 321 496 basechar 0
AnchorPoint: "Anchor-0" 218 0 basechar 0
LayerCount: 2
Fore
SplineSet
449 87 m 1
 399 22 326 -12 238 -12 c 0
 107 -12 27 68 27 199 c 0
 27 380 142 504 309 504 c 0
 432 504 509 426 509 300 c 0
 509 276 506 251 500 225 c 1
 116 225 l 2
 115 222 115 220 115 211 c 2
 115 197 l 2
 115 112 164 62 248 62 c 0
 299 62 340 78 371 111 c 1
 449 87 l 1
422 310 m 2
 422 385 374 432 297 432 c 0
 215 432 146 376 128 293 c 1
 421 293 l 2
 422 295 422 296 422 302 c 2
 422 310 l 2
EndSplineSet
EndChar

StartChar: f
Encoding: 102 102 46
Width: 320
GlyphClass: 1
Flags: W
HStem: 0 21G<37 127.252> 428 68<59 128 228 315> 635 71<264.591 359>
VStem: 37 86<0 86>
AnchorPoint: "Anchor-1" 170 668 basechar 0
LayerCount: 2
Fore
SplineSet
37 0 m 1
 128 428 l 1
 44 428 l 1
 59 496 l 1
 142 496 l 1
 154 549 l 2
 185 680 210 703 323 706 c 2
 374 706 l 1
 359 635 l 1
 335 635 l 2
 275 635 257 621 243 563 c 2
 228 496 l 1
 330 496 l 1
 315 428 l 1
 214 428 l 1
 123 0 l 1
 37 0 l 1
EndSplineSet
EndChar

StartChar: g
Encoding: 103 103 47
Width: 555
GlyphClass: 2
Flags: W
HStem: -190 73<113.453 274.506> 16 73<174.106 303.752> 432 74<204.161 347.986> 476 20G<455.744 528>
VStem: 32 89<143.275 335.785>
AnchorPoint: "Anchor-1" 314 496 basechar 0
AnchorPoint: "Anchor-0" 172 -251 basechar 0
LayerCount: 2
Fore
SplineSet
266 506 m 0xe8
 339 506 401 472 426 418 c 1
 466 496 l 1
 528 496 l 1xd8
 518 450 440 77 421 -6 c 0
 393 -130 314 -190 180 -190 c 0
 92 -190 19 -145 -4 -78 c 1
 86 -53 l 1
 94 -92 134 -117 186 -117 c 0
 275 -117 319 -78 342 23 c 2
 355 80 l 1
 323 39 274 16 219 16 c 0
 109 16 32 101 32 222 c 0
 32 387 130 506 266 506 c 0xe8
121 226 m 0
 121 142 170 89 248 89 c 0
 331 89 400 183 400 296 c 0
 400 378 351 432 276 432 c 0xe8
 185 432 121 346 121 226 c 0
EndSplineSet
EndChar

StartChar: h
Encoding: 104 104 48
Width: 548
GlyphClass: 1
Flags: W
HStem: 0 21G<7 97.2023 333 422.306> 430 74<251.177 383.205> 648 20G<144.749 235>
VStem: 7 86<0 86> 149 86<582 668> 333 85<0 85> 401 88<230.688 413.219>
AnchorPoint: "Anchor-0" 224 0 basechar 0
AnchorPoint: "Anchor-1" 190 668 basechar 0
LayerCount: 2
Fore
SplineSet
318 430 m 0xfa
 231 430 171 370 147 257 c 2
 93 0 l 1
 7 0 l 1
 149 668 l 1
 235 668 l 1
 184 427 l 1
 225 480 279 504 355 504 c 0
 443 504 489 457 489 366 c 0xfa
 489 343 486 317 480 288 c 2
 418 0 l 1
 333 0 l 1xfc
 392 280 l 2
 398 309 401 333 401 352 c 0
 401 407 377 430 318 430 c 0xfa
EndSplineSet
EndChar

StartChar: i
Encoding: 105 105 49
Width: 270
GlyphClass: 1
Flags: W
HStem: 0 21G<46 136.234> 428 68<71 137> 591 125<182.2 276.707>
VStem: 46 86<0 86> 167 125<606.2 700.707>
AnchorPoint: "Anchor-2" 132 0 basechar 0
LayerCount: 2
Fore
SplineSet
292 653 m 0
 292 619 264 591 229 591 c 0
 195 591 167 619 167 653 c 0
 167 688 195 716 229 716 c 0
 264 716 292 688 292 653 c 0
EndSplineSet
Refer: 351 305 S 1 0 0 1 0 0 2
Substitution2: "Single Substitution lookup 4 subtable" dotlessi
Substitution2: "Single Substitution lookup 3 subtable" dotlessi
EndChar

StartChar: j
Encoding: 106 106 50
Width: 258
GlyphClass: 1
Flags: W
HStem: -161 75<-138 -3.55972> 476 20G<128.735 219> 591 126<163.293 258.707>
VStem: 133 86<410 496> 148 126<606.293 701.707>
LayerCount: 2
Fore
SplineSet
274 654 m 0xe8
 274 619 246 591 211 591 c 0
 176 591 148 619 148 654 c 0
 148 689 176 717 211 717 c 0
 246 717 274 689 274 654 c 0xe8
EndSplineSet
Refer: 410 567 S 1 0 0 1 0 0 2
EndChar

StartChar: k
Encoding: 107 107 51
Width: 487
GlyphClass: 2
Flags: W
HStem: 0 21G<7 97.2169 310.741 415> 476 20G<365.725 500> 648 20G<144.749 235>
VStem: 7 86<0 86> 149 86<582 668>
AnchorPoint: "Anchor-1" 360 796 basechar 0
AnchorPoint: "Anchor-0" 221 0 basechar 0
LayerCount: 2
Fore
SplineSet
7 0 m 1
 149 668 l 1
 235 668 l 1
 153 285 l 1
 388 496 l 1
 500 496 l 1
 266 289 l 1
 415 0 l 1
 321 0 l 1
 202 232 l 1
 128 166 l 1
 93 0 l 1
 7 0 l 1
EndSplineSet
EndChar

StartChar: l
Encoding: 108 108 52
Width: 259
GlyphClass: 2
Flags: W
HStem: 0 75<119.364 182> 648 20G<144.764 235>
VStem: 27 91<42.5681 191.188> 149 86<582 668>
AnchorPoint: "Anchor-1" 205 668 basechar 0
AnchorPoint: "Anchor-0" 97 0 basechar 0
LayerCount: 2
Fore
SplineSet
118 104 m 4
 118 83.0464824304 129.93099119 75 161 75 c 2
 198 75 l 1
 182 0 l 1
 126 0 l 2
 53.7983460964 0 27 18.1362544289 27 67 c 0
 27 88.2320178159 29.2667476207 107.013640958 34 125 c 2
 149 668 l 1
 235 668 l 1
 123 140 l 1
 118.270462767 111.622776602 118 109.67544468 118 104 c 4
EndSplineSet
EndChar

StartChar: m
Encoding: 109 109 53
Width: 846
GlyphClass: 1
Flags: W
HStem: 0 21G<8 98.2222 319 409.222 630 720.2> 431 73<247.027 372.645 552.086 684.144> 476 20G<108.766 178.739>
VStem: 8 86<0 86> 113 64<462.933 496> 319 86<0 86> 630 86<0 86> 700 88<239.195 415.42>
AnchorPoint: "Anchor-1" 469 496 basechar 0
LayerCount: 2
Fore
SplineSet
313 431 m 0xdd
 232 431 173 372 151 270 c 2
 94 0 l 1
 8 0 l 1
 113 496 l 1
 177 496 l 1xbd
 183 427 l 1
 228 481 275 504 341 504 c 0
 413 504 454 477 475 416 c 1
 521 477 575 504 651 504 c 0
 742 504 788 460 788 373 c 0xdd
 788 351 785 327 779 300 c 2
 716 0 l 1
 630 0 l 1xde
 691 289 l 2
 697 317 700 340 700 358 c 0
 700 409 677 431 625 431 c 0
 543 431 485 374 462 270 c 2
 405 0 l 1
 319 0 l 1
 380 289 l 2
 386 316 389 338 389 356 c 0
 389 407 365 431 313 431 c 0xdd
EndSplineSet
EndChar

StartChar: n
Encoding: 110 110 54
Width: 550
GlyphClass: 2
Flags: W
HStem: 0 21G<8 98.2023 334 423.321> 430 74<251.63 384.205> 476 20G<108.766 178.739>
VStem: 8 86<0 86> 113 64<462.933 496> 334 85<0 85> 402 88<229.875 412.951>
AnchorPoint: "Anchor-1" 328 496 basechar 0
AnchorPoint: "Anchor-0" 212 0 basechar 0
LayerCount: 2
Fore
SplineSet
319 430 m 0xda
 232 430 172 370 148 257 c 2
 94 0 l 1
 8 0 l 1
 113 496 l 1
 177 496 l 1xba
 183 427 l 1
 224 479 280 504 356 504 c 0
 444 504 490 457 490 365 c 0xda
 490 342 487 316 481 287 c 2
 419 0 l 1
 334 0 l 1xdc
 393 279 l 2
 399 309 402 333 402 352 c 0
 402 407 378 430 319 430 c 0xda
EndSplineSet
EndChar

StartChar: o
Encoding: 111 111 55
AltUni2: 0003bf.ffffffff.0
Width: 547
GlyphClass: 2
Flags: W
HStem: -12 74<164.333 311.89> 430 74<211.045 367.781>
VStem: 27 88<113.603 316.097> 413 89<183.371 384.903>
AnchorPoint: "Anchor-2" 307 0 basechar 0
AnchorPoint: "Anchor-1" 321 496 basechar 0
AnchorPoint: "Anchor-0" 221 0 basechar 0
LayerCount: 2
Fore
SplineSet
502 298 m 0
 502 123 384 -12 230 -12 c 0
 103 -12 27 67 27 199 c 0
 27 377 142 504 303 504 c 0
 423 504 502 423 502 298 c 0
115 198 m 0
 115 112 160 62 237 62 c 0
 339 62 413 162 413 301 c 0
 413 387 372 430 290 430 c 0
 186 430 115 335 115 198 c 0
EndSplineSet
Substitution2: "Single Substitution lookup 12 subtable" ordmasculine
Substitution2: "'aalt' Access All Alternates lookup 0 subtable" ordmasculine
EndChar

StartChar: p
Encoding: 112 112 56
AltUni2: 0003c1.ffffffff.0
Width: 556
GlyphClass: 1
Flags: W
HStem: -162 21G<-26 64.2353> -12 71<195.187 325.751> 432 72<240.863 375.68> 476 20G<109.745 178.515>
VStem: -26 86<-162 -76> 114 63<463.1 496> 420 90<177.931 385.193>
AnchorPoint: "Anchor-1" 328 496 basechar 0
LayerCount: 2
Fore
SplineSet
269 -12 m 0xee
 193 -12 137 26 114 93 c 1
 60 -162 l 1
 -26 -162 l 1
 114 496 l 1
 177 496 l 1xde
 182 430 l 1
 215 478 267 504 331 504 c 0
 442 504 510 423 510 293 c 0
 510 118 407 -12 269 -12 c 0xee
139 209 m 0
 139 120 188 59 260 59 c 0
 350 59 420 163 420 297 c 0
 420 382 378 432 307 432 c 0xee
 214 432 139 332 139 209 c 0
EndSplineSet
EndChar

StartChar: q
Encoding: 113 113 57
Width: 555
GlyphClass: 1
Flags: W
HStem: -174 82<422.647 533.377> -12 72<162.371 297.011> 433 72<212.488 344.473> 476 20G<457.744 530>
VStem: 28 90<109.079 314.576> 328 90<-86.8772 48.2673>
LayerCount: 2
Fore
SplineSet
118 198 m 0xec
 118 109 159 60 232 60 c 0
 322 60 396 159 396 281 c 0
 396 376 351 433 276 433 c 0
 188 433 118 329 118 198 c 0xec
352 59 m 5
 327 16 270 -12 207 -12 c 0
 97 -12 28 69 28 198 c 0
 28 375 131 505 271 505 c 0xec
 343 505 398 474 428 418 c 1
 468 496 l 1
 530 496 l 1xdc
 471 222 418 -38 418 -50 c 0
 418 -78 435 -92 469 -92 c 0
 492 -92 519 -87 551 -76 c 1
 534 -154 l 1
 518 -165 479 -174 447 -174 c 0
 371 -174 328 -137 328 -72 c 0
 328 -58 328 -58 352 59 c 5
EndSplineSet
EndChar

StartChar: r
Encoding: 114 114 58
Width: 353
GlyphClass: 2
Flags: W
HStem: 0 21G<8 124> 415 89<269.245 364> 476 20G<108.766 177.72>
VStem: 8 86<0 33.0667> 113 63<462.933 496>
AnchorPoint: "Anchor-1" 240 496 basechar 0
AnchorPoint: "Anchor-0" 51 0 basechar 0
LayerCount: 2
Fore
SplineSet
184 403 m 1xb8
 235 476 288 504 372 504 c 2
 383 504 l 1
 364 415 l 1
 353 415 l 2xd8
 284 415 231 391 196 344 c 0
 154 288 154 285 94 0 c 1
 8 0 l 1
 113 496 l 1
 176 496 l 1
 184 403 l 1xb8
EndSplineSet
EndChar

StartChar: s
Encoding: 115 115 59
Width: 479
GlyphClass: 2
Flags: W
HStem: -12 68<140.695 291.689> 435 69<157.473 317.153>
VStem: 49 85<325.435 412.12> 325 88<88.8007 181.202>
AnchorPoint: "Anchor-1" 260 496 basechar 0
AnchorPoint: "Anchor-0" 207 0 basechar 0
LayerCount: 2
Fore
SplineSet
413 143 m 0
 413 49 335 -12 213 -12 c 0
 108 -12 43 28 10 113 c 1
 96 142 l 1
 105 90 153 56 216 56 c 0
 279 56 325 90 325 137 c 0
 325 177 301 194 207 220 c 0
 87 253 49 288 49 365 c 0
 49 447 128 504 240 504 c 0
 333 504 410 463 431 402 c 1
 351 374 l 1
 339 410 291 435 233 435 c 0
 173 435 134 409 134 370 c 0
 134 329 154 316 263 286 c 0
 373 255 413 217 413 143 c 0
EndSplineSet
EndChar

StartChar: t
Encoding: 116 116 60
Width: 324
GlyphClass: 2
Flags: W
HStem: 0 75<153.114 222> 428 68<63 132 232 313>
VStem: 60 91<42.5 193.57> 173 86<534 620>
AnchorPoint: "Anchor-1" 213 620 basechar 0
AnchorPoint: "Anchor-0" 109 0 basechar 0
LayerCount: 2
Fore
SplineSet
194 75 m 2
 238 75 l 1
 222 0 l 1
 160 0 l 2
 85 0 60 17 60 68 c 0
 60 83 63 104 69 135 c 2
 132 428 l 1
 49 428 l 1
 63 496 l 1
 146 496 l 1
 173 620 l 1
 259 620 l 1
 232 496 l 1
 327 496 l 1
 313 428 l 1
 218 428 l 1
 160 159 l 2
 153 128 151 114 151 104 c 0
 151 81 160 75 194 75 c 2
EndSplineSet
EndChar

StartChar: u
Encoding: 117 117 61
Width: 540
GlyphClass: 2
Flags: W
HStem: -11 73<142.465 271.419> 0 21G<341.286 412.234> 476 20G<106.768 197 423.692 513>
VStem: 40 86<78.4588 263.312> 111 86<410 496> 343 65<0 33.0667> 428 85<411 496>
AnchorPoint: "Anchor-2" 408 0 basechar 0
AnchorPoint: "Anchor-1" 308 496 basechar 0
AnchorPoint: "Anchor-0" 217 0 basechar 0
LayerCount: 2
Fore
SplineSet
337 70 m 1x76
 293 12 246 -11 173 -11 c 0
 87 -11 40 39 40 128 c 0xb6
 40 151 43 176 49 203 c 2
 111 496 l 1
 197 496 l 1xae
 135 205 l 2
 129 178 126 156 126 138 c 0
 126 86 150 62 203 62 c 0xb6
 289 62 347 121 372 236 c 2
 428 496 l 1
 513 496 l 1
 408 0 l 1
 343 0 l 1
 337 70 l 1x76
EndSplineSet
EndChar

StartChar: v
Encoding: 118 118 62
Width: 444
GlyphClass: 1
Flags: W
HStem: 0 21G<112.097 215.411> 476 20G<43 132.435 378.016 487>
VStem: 43 87<409 496>
LayerCount: 2
Fore
SplineSet
115 0 m 1
 43 496 l 1
 130 496 l 1
 177 110 l 1
 389 496 l 1
 487 496 l 1
 204 0 l 1
 115 0 l 1
EndSplineSet
EndChar

StartChar: w
Encoding: 119 119 63
Width: 658
GlyphClass: 1
Flags: W
HStem: 0 21G<78.5081 163.65 368.85 462.04> 476 20G<43 130.95 309.391 410.093 595.383 701>
VStem: 43 87<402.162 496>
AnchorPoint: "Anchor-1" 360 496 basechar 0
LayerCount: 2
Fore
SplineSet
80 0 m 1
 43 496 l 1
 130 496 l 1
 147 138 l 1
 319 496 l 1
 409 496 l 1
 429 130 l 1
 605 496 l 1
 701 496 l 1
 452 0 l 1
 370 0 l 1
 347 400 l 1
 154 0 l 1
 80 0 l 1
EndSplineSet
EndChar

StartChar: x
Encoding: 120 120 64
AltUni2: 0003c7.ffffffff.0
Width: 462
GlyphClass: 1
Flags: W
HStem: 0 21G<-63 64.4865 299.054 399> 476 20G<61 161.058 377.404 505>
AnchorPoint: "Anchor-1" 263 496 basechar 0
AnchorPoint: "Anchor-0" 182 0 basechar 0
LayerCount: 2
Fore
SplineSet
-63 0 m 1
 179 262 l 1
 61 496 l 1
 151 496 l 1
 237 325 l 1
 396 496 l 1
 505 496 l 1
 275 248 l 1
 399 0 l 1
 309 0 l 1
 217 185 l 1
 46 0 l 1
 -63 0 l 1
EndSplineSet
EndChar

StartChar: y
Encoding: 121 121 65
Width: 435
GlyphClass: 2
Flags: W
HStem: -161 75<-46 75.4148> 476 20G<43 134.073 367.326 478>
VStem: 43 89<407 496>
AnchorPoint: "Anchor-1" 266 496 basechar 0
AnchorPoint: "Anchor-0" 305 0 basechar 0
LayerCount: 2
Fore
SplineSet
-62 -161 m 1
 -46 -86 l 1
 -12 -86 l 2
 65 -86 78 -77 116 0 c 1
 43 496 l 1
 132 496 l 1
 172 110 l 1
 378 496 l 1
 478 496 l 1
 191 -21 l 2
 123 -146 100 -161 -19 -161 c 2
 -62 -161 l 1
EndSplineSet
EndChar

StartChar: z
Encoding: 122 122 66
Width: 467
GlyphClass: 2
Flags: W
HStem: 0 73<101 375> 424 73<99 355>
AnchorPoint: "Anchor-1" 289 496 basechar 0
AnchorPoint: "Anchor-0" 181 0 basechar 0
LayerCount: 2
Fore
SplineSet
-21 0 m 1
 -6 73 l 1
 355 424 l 1
 83 424 l 1
 99 497 l 1
 476 497 l 1
 460 424 l 1
 101 73 l 1
 390 73 l 1
 375 0 l 1
 -21 0 l 1
EndSplineSet
EndChar

StartChar: circumflex
Encoding: 258 710 67
Width: 429
GlyphClass: 1
Flags: W
HStem: 575 120<345 347.422>
VStem: 114 323
LayerCount: 2
Fore
SplineSet
114 575 m 1
 247 676 l 2
 263 689 281 695 301 695 c 0
 320 695 335 689 346 676 c 2
 437 575 l 1
 345 575 l 1
 290 636 l 1
 210 575 l 1
 114 575 l 1
EndSplineSet
EndChar

StartChar: caron
Encoding: 259 711 68
Width: 429
GlyphClass: 1
Flags: W
HStem: 562 120<225.578 227>
VStem: 136 323
LayerCount: 2
Fore
SplineSet
273 562 m 0
 253 562 238 568 227 581 c 2
 136 682 l 1
 227 682 l 1
 281 621 l 1
 362 682 l 1
 459 682 l 1
 326 581 l 2
 309 568 292 562 273 562 c 0
EndSplineSet
EndChar

StartChar: breve
Encoding: 260 728 69
Width: 400
GlyphClass: 1
Flags: W
HStem: 562 67<219.995 332.941>
VStem: 136 69<645.675 682>
LayerCount: 2
Fore
SplineSet
430 682 m 1
 399 607 337 562 265 562 c 0
 192 562 136 614 136 682 c 1
 205 682 l 1
 212 648 237 629 272 629 c 0
 308 629 339 647 361 682 c 1
 430 682 l 1
EndSplineSet
EndChar

StartChar: dotaccent
Encoding: 261 729 70
Width: 216
GlyphClass: 1
Flags: W
HStem: 583 108<138.676 224.846>
VStem: 128 108<593.676 679.846>
LayerCount: 2
Fore
SplineSet
236 637 m 0
 236 607 212 583 182 583 c 0
 152 583 128 607 128 637 c 0
 128 667 152 691 182 691 c 0
 213 691 236 668 236 637 c 0
EndSplineSet
EndChar

StartChar: ring
Encoding: 262 730 71
Width: 329
GlyphClass: 1
Flags: W
HStem: 552 58<201.219 285.046> 712 58<201.219 285.046>
VStem: 134 57<620.146 701.854> 295 57<619.94 702.06>
LayerCount: 2
Fore
SplineSet
352 661 m 0
 352 600 305 552 245 552 c 0
 184 552 134 601 134 661 c 0
 134 721 184 770 245 770 c 0
 305 770 352 722 352 661 c 0
191 661 m 0
 191 632 214 610 243 610 c 0
 272 610 295 632 295 661 c 0
 295 690 272 712 243 712 c 0
 214 712 191 690 191 661 c 0
EndSplineSet
EndChar

StartChar: ogonek
Encoding: 263 731 72
Width: 270
GlyphClass: 1
Flags: W
HStem: -173 57<48.4345 121.083> -20 20G<43.5 155>
VStem: -30 77<-112.457 -51.0983>
LayerCount: 2
Fore
SplineSet
47 -89 m 0
 47 -105 64 -116 88 -116 c 0
 101 -116 116 -113 132 -107 c 1
 121 -161 l 1
 95 -169 73 -173 54 -173 c 0
 3 -173 -30 -147 -30 -106 c 0
 -30 -60 11 -19 76 0 c 1
 155 0 l 1
 86 -25 47 -57 47 -89 c 0
EndSplineSet
EndChar

StartChar: quoteleft
Encoding: 161 8216 73
Width: 238
GlyphClass: 1
Flags: W
HStem: 418 250
VStem: 95 129<434.5 530.797>
LayerCount: 2
Fore
SplineSet
224 482 m 0
 224 445 197 418 161 418 c 0
 124 418 95 446 95 483 c 0
 95 495 98 506 105 517 c 2
 196 668 l 1
 257 668 l 1
 181 543 l 1
 210 532 224 512 224 482 c 0
EndSplineSet
EndChar

StartChar: quoteright
Encoding: 162 8217 74
Width: 238
GlyphClass: 1
Flags: W
HStem: 429 251
VStem: 123 130<567.531 662.928>
LayerCount: 2
Fore
SplineSet
188 680 m 0
 225 680 253 653 253 616 c 0
 253 604 248 589 237 572 c 2
 152 429 l 1
 91 429 l 1
 166 555 l 1
 139 565 123 588 123 617 c 0
 123 651 153 680 188 680 c 0
EndSplineSet
EndChar

StartChar: quotesinglbase
Encoding: 264 8218 75
Width: 239
GlyphClass: 1
Flags: W
HStem: -133 251
VStem: 4 130<7.10938 101.15>
LayerCount: 2
Fore
SplineSet
67 118 m 0
 105 118 134 90 134 53 c 0
 134 42 129 27 121 14 c 2
 33 -133 l 1
 -28 -133 l 1
 47 -8 l 1
 20 4 4 26 4 53 c 0
 4 89 32 118 67 118 c 0
EndSplineSet
EndChar

StartChar: quotedblright
Encoding: 266 8221 77
Width: 394
GlyphClass: 1
Flags: W
HStem: 429 250
VStem: 122 129<566.203 662.5> 279 129<566.203 662.5>
LayerCount: 2
Fore
SplineSet
342 679 m 0
 379 679 408 651 408 614 c 0
 408 602 405 591 398 580 c 2
 307 429 l 1
 246 429 l 1
 322 554 l 1
 293 565 279 585 279 615 c 0
 279 651 307 679 342 679 c 0
185 679 m 0
 222 679 251 651 251 614 c 0
 251 602 248 591 241 580 c 2
 150 429 l 1
 89 429 l 1
 165 554 l 1
 136 565 122 585 122 615 c 0
 122 651 150 679 185 679 c 0
EndSplineSet
EndChar

StartChar: dagger
Encoding: 268 8224 79
Width: 541
GlyphClass: 1
Flags: W
HStem: 0 21G<168 254.221> 417 79<84 257 355 527> 648 20G<306.698 391>
VStem: 168 82<0 82> 311 80<588 668>
LayerCount: 2
Fore
SplineSet
168 0 m 1
 257 417 l 1
 67 417 l 1
 84 496 l 1
 274 496 l 1
 311 668 l 1
 391 668 l 1
 355 496 l 1
 544 496 l 1
 527 417 l 1
 338 417 l 1
 250 0 l 1
 168 0 l 1
EndSplineSet
EndChar

StartChar: daggerdbl
Encoding: 269 8225 80
Width: 541
GlyphClass: 1
Flags: W
HStem: 0 21G<168 254.162> 173 79<32 205 303 475> 417 79<84 257 354 527> 648 20G<306.698 391>
VStem: 168 82<0 82> 311 80<588 668>
LayerCount: 2
Fore
SplineSet
168 0 m 1
 205 173 l 1
 15 173 l 1
 32 252 l 1
 222 252 l 1
 257 417 l 1
 67 417 l 1
 84 496 l 1
 274 496 l 1
 311 668 l 1
 391 668 l 1
 354 496 l 1
 544 496 l 1
 527 417 l 1
 337 417 l 1
 303 252 l 1
 492 252 l 1
 475 173 l 1
 286 173 l 1
 250 0 l 1
 168 0 l 1
EndSplineSet
EndChar

StartChar: bullet
Encoding: 270 8226 81
Width: 446
GlyphClass: 1
Flags: W
HStem: 88 332<132.23 297.77>
VStem: 49 332<171.23 336.77>
LayerCount: 2
Fore
SplineSet
381 254 m 0
 381 162 307 88 215 88 c 0
 123 88 49 162 49 254 c 0
 49 346 123 420 215 420 c 0
 307 420 381 346 381 254 c 0
EndSplineSet
EndChar

StartChar: ellipsis
Encoding: 271 8230 82
Width: 699
GlyphClass: 1
Flags: W
HStem: -12 129<20.7473 116.15 251.397 347.15 481.85 577.253>
VStem: 4 129<4.74728 100.15> 235 129<4.74728 100.15> 465 129<4.74728 100.15>
LayerCount: 2
Fore
SplineSet
594 52 m 0
 594 17 565 -12 530 -12 c 0
 494 -12 465 17 465 52 c 0
 465 88 494 117 530 117 c 0
 565 117 594 88 594 52 c 0
364 52 m 0
 364 17 335 -12 299 -12 c 0
 263 -12 235 16 235 52 c 0
 235 89 263 117 299 117 c 0
 335 117 364 88 364 52 c 0
EndSplineSet
Refer: 133 46 S 1 0 0 1 5 0 2
EndChar

StartChar: perthousand
Encoding: 272 8240 83
Width: 1406
GlyphClass: 1
Flags: W
HStem: -12 74<692.229 819.114 1093.23 1220.11> 0 21G<234 336.012> 277 74<692.014 819.529 1093.01 1220.53> 316 75<204.229 331.114> 605 75<204.229 331.114> 648 20G<687.988 790>
VStem: 86 74<434.625 561.375> 375 74<434.625 561.375> 574 74<105.671 232.986> 863 74<105.886 232.771> 975 74<105.671 232.986> 1264 74<105.886 232.771>
LayerCount: 2
Fore
SplineSet
449 498 m 0x1bf0
 449 397 368 316 268 316 c 0
 167 316 86 397 86 498 c 0
 86 599 167 680 268 680 c 0
 368 680 449 599 449 498 c 0x1bf0
160 498 m 0
 160 439 208 391 268 391 c 0
 327 391 375 439 375 498 c 0
 375 557 327 605 268 605 c 0
 208 605 160 557 160 498 c 0
937 169 m 0
 937 69 856 -12 756 -12 c 0
 655 -12 574 69 574 169 c 0
 574 270 655 351 756 351 c 0xa3f0
 857 351 937 270 937 169 c 0
1338 169 m 0
 1338 69 1257 -12 1157 -12 c 0
 1056 -12 975 69 975 169 c 0
 975 270 1056 351 1157 351 c 0
 1258 351 1338 270 1338 169 c 0
648 169 m 0
 648 109 696 62 756 62 c 0
 815 62 863 110 863 169 c 0
 863 229 816 277 756 277 c 0
 695 277 648 230 648 169 c 0
1049 169 m 0
 1049 109 1097 62 1157 62 c 0
 1216 62 1264 110 1264 169 c 0
 1264 229 1217 277 1157 277 c 0
 1096 277 1049 230 1049 169 c 0
EndSplineSet
Refer: 86 8260 N 1 0 0 1 281 0 2
EndChar

StartChar: guilsinglleft
Encoding: 273 8249 84
Width: 355
GlyphClass: 1
Flags: W
VStem: 45 276
LayerCount: 2
Fore
SplineSet
148 40 m 1
 45 250 l 1
 217 461 l 1
 321 461 l 1
 140 240 l 1
 237 40 l 1
 148 40 l 1
EndSplineSet
EndChar

StartChar: guilsinglright
Encoding: 274 8250 85
Width: 347
GlyphClass: 1
Flags: W
VStem: 9 276
LayerCount: 2
Fore
SplineSet
9 40 m 1
 190 261 l 1
 93 461 l 1
 182 461 l 1
 285 251 l 1
 113 40 l 1
 9 40 l 1
EndSplineSet
EndChar

StartChar: fraction
Encoding: 275 8260 86
Width: 444
GlyphClass: 1
Flags: W
HStem: 0 21G<-47 55.012> 648 20G<406.988 509>
LayerCount: 2
Fore
SplineSet
-47 0 m 1
 421 668 l 1
 509 668 l 1
 41 0 l 1
 -47 0 l 1
EndSplineSet
EndChar

StartChar: ordfeminine
Encoding: 276 170 87
Width: 363
GlyphClass: 1
Flags: W
HStem: 396 51<146.394 231.053> 643 48<175.013 270.734>
VStem: 72 73<448.578 508.132> 255 59<403 441> 275 67<539.141 636.483>
LayerCount: 2
Fore
SplineSet
252 441 m 1xf0
 233 411 202 396 159 396 c 0
 107 396 72 425 72 468 c 0
 72 532 124 560 272 577 c 1
 274 585 275 593 275 601 c 0
 275 629 257 643 221 643 c 0
 196 643 176 630 165 606 c 1
 108 624 l 1
 130 669 171 691 231 691 c 0
 303 691 342 661 342 605 c 0xe8
 342 535 314 473 314 403 c 1
 255 403 l 1
 252 441 l 1xf0
179 447 m 0
 223 447 245 466 259 518 c 2
 262 529 l 1
 239 526 l 2
 170 518 145 505 145 476 c 0
 145 457 156 447 179 447 c 0
EndSplineSet
EndChar

StartChar: logicalnot
Encoding: 172 172 89
Width: 667
GlyphClass: 1
Flags: W
HStem: 317 79<75 490>
VStem: 490 81<90 317>
LayerCount: 2
Fore
SplineSet
490 90 m 1
 490 317 l 1
 75 317 l 1
 75 396 l 1
 571 396 l 1
 571 90 l 1
 490 90 l 1
EndSplineSet
EndChar

StartChar: registered
Encoding: 277 174 90
Width: 814
GlyphClass: 1
Flags: W
HStem: -12 61<312.473 519.527> 301 58<357 399> 469 61<357 477.888> 619 61<312.473 519.527>
VStem: 70 62<229.705 437.104> 281 76<162 301 359 469> 491 76<372.045 456.368> 700 62<229.705 437.104>
LayerCount: 2
Fore
SplineSet
762 333 m 0
 762 143 607 -12 416 -12 c 0
 225 -12 70 143 70 333 c 0
 70 525 225 680 416 680 c 0
 607 680 762 525 762 333 c 0
132 333 m 0
 132 176 259 49 416 49 c 0
 573 49 700 176 700 333 c 0
 700 491 573 619 416 619 c 0
 259 619 132 491 132 333 c 0
567 414 m 0
 567 362 538 328 479 311 c 1
 587 162 l 1
 501 162 l 1
 399 301 l 1
 357 301 l 1
 357 162 l 1
 281 162 l 1
 281 530 l 1
 393 530 l 2
 520 530 567 499 567 414 c 0
491 413 m 0
 491 452 465 469 405 469 c 2
 357 469 l 1
 357 359 l 1
 410 359 l 2
 465 359 491 377 491 413 c 0
EndSplineSet
EndChar

StartChar: macron
Encoding: 278 175 91
Width: 382
GlyphClass: 1
Flags: W
HStem: 601 67<133 395>
VStem: 119 290
LayerCount: 2
Fore
SplineSet
119 601 m 1
 133 668 l 1
 409 668 l 1
 395 601 l 1
 119 601 l 1
EndSplineSet
EndChar

StartChar: degree
Encoding: 176 176 92
Width: 358
GlyphClass: 1
Flags: W
HStem: 408 63<172.339 273.849> 617 63<172.151 276.172>
VStem: 87 63<493.339 594.849> 296 63<493.151 597.172>
LayerCount: 2
Fore
SplineSet
359 544 m 0
 359 469 298 408 223 408 c 0
 148 408 87 469 87 544 c 0
 87 619 148 680 223 680 c 0
 298 680 359 619 359 544 c 0
150 544 m 0
 150 504 183 471 223 471 c 0
 264 471 296 503 296 544 c 0
 296 586 265 617 223 617 c 0
 182 617 150 585 150 544 c 0
EndSplineSet
EndChar

StartChar: plusminus
Encoding: 177 177 93
Width: 653
GlyphClass: 1
Flags: W
HStem: 0 79<65 538> 270 79<65 262 341 538> 476 20G<262 341>
VStem: 262 79<124 270 349 496>
LayerCount: 2
Fore
SplineSet
262 124 m 1
 262 270 l 1
 65 270 l 1
 65 349 l 1
 262 349 l 1
 262 496 l 1
 341 496 l 1
 341 349 l 1
 538 349 l 1
 538 270 l 1
 341 270 l 1
 341 124 l 1
 262 124 l 1
65 0 m 1
 65 79 l 1
 538 79 l 1
 538 0 l 1
 65 0 l 1
EndSplineSet
EndChar

StartChar: uni00B2
Encoding: 178 178 94
Width: 384
GlyphClass: 1
Flags: W
HStem: 403 58<168 335> 676 21G<119 185.5> 736 50<203.622 302.182>
VStem: 312 70<619.73 725.633>
LayerCount: 2
Fore
SplineSet
382 689 m 0
 382 611 305 529 168 461 c 1
 347 461 l 1
 335 403 l 1
 59 403 l 1
 71 457 l 1
 248 555 312 615 312 684 c 0
 312 715 290 736 257 736 c 0
 221 736 192 714 179 676 c 1
 119 695 l 1
 143 754 192 786 258 786 c 0
 335 786 382 749 382 689 c 0
EndSplineSet
EndChar

StartChar: uni00B3
Encoding: 179 179 95
Width: 394
GlyphClass: 1
Flags: W
HStem: 396 51<170.986 280.463> 483 20G<87 156.5> 572 54<205 285.734> 736 50<199.877 308.1>
VStem: 87 64<466.281 487.859> 298 69<465.07 558.203> 317 68<642.267 726.261>
LayerCount: 2
Fore
SplineSet
367 519 m 0xfc
 367 446 307 396 220 396 c 0
 155 396 106 429 87 486 c 1
 151 503 l 1
 162 467 187 447 223 447 c 0
 269 447 298 473 298 513 c 0xfc
 298 553 272 572 217 572 c 2
 194 572 l 1
 205 626 l 1
 221 626 l 1
 291 630 317 645 317 682 c 0
 317 717 296 736 258 736 c 0
 220 736 196 720 178 683 c 1
 120 701 l 1
 146 756 196 786 261 786 c 0
 340 786 385 751 385 689 c 0
 385 650 361 619 317 602 c 1xfa
 349 587 367 557 367 519 c 0xfc
EndSplineSet
EndChar

StartChar: acute
Encoding: 279 180 96
Width: 271
GlyphClass: 1
Flags: W
HStem: 572 135
VStem: 113 184
LayerCount: 2
Fore
SplineSet
259 707 m 0
 282 707 297 692 297 669 c 0
 297 647 288 639 199 580 c 2
 187 572 l 1
 113 572 l 1
 128 589 l 2
 148 612 215 681 234 698 c 0
 241 704 250 707 259 707 c 0
EndSplineSet
EndChar

StartChar: uni03BC
Encoding: 236 956 97
Width: 543
GlyphClass: 1
Flags: W
HStem: -162 21G<-26 66.1748> -12 69<152.891 281.374> 0 21G<344.529 415.283> 475 20G<109.738 202 426.769 517>
VStem: -26 88<-162 -74> 114 88<407 495> 346 65<0 32.6887> 431 86<409 495>
LayerCount: 2
Fore
SplineSet
195 -12 m 0xdf
 155 -12 121 9 105 44 c 1
 62 -162 l 1
 -26 -162 l 1
 114 495 l 1
 202 495 l 1
 138 196 l 2
 134 175 132 157 132 141 c 0
 132 83 160 57 224 57 c 0xdf
 300 57 351 117 376 235 c 2
 431 495 l 1
 517 495 l 1
 411 0 l 1
 346 0 l 1xbf
 341 68 l 1
 299 10 259 -12 195 -12 c 0xdf
EndSplineSet
EndChar

StartChar: paragraph
Encoding: 280 182 98
Width: 522
GlyphClass: 1
Flags: W
HStem: -162 21G<91 178.252 268 355.226> 600 68<336 429 512 553>
VStem: 91 83<-162 -79> 268 83<-162 -79>
LayerCount: 2
Fore
SplineSet
74 438 m 0
 74 557 187 668 308 668 c 2
 568 668 l 1
 553 600 l 1
 512 600 l 1
 351 -162 l 1
 268 -162 l 1
 429 600 l 1
 336 600 l 1
 174 -162 l 1
 91 -162 l 1
 188 294 l 1
 119 310 74 366 74 438 c 0
EndSplineSet
EndChar

StartChar: periodcentered
Encoding: 183 183 99
Width: 235
GlyphClass: 1
Flags: W
HStem: 183 129<69.7473 165.15>
VStem: 53 129<199.85 295.253>
LayerCount: 2
Fore
SplineSet
182 248 m 0
 182 212 153 183 117 183 c 0
 82 183 53 212 53 248 c 0
 53 283 82 312 117 312 c 0
 153 312 182 283 182 248 c 0
EndSplineSet
EndChar

StartChar: cedilla
Encoding: 281 184 100
Width: 294
GlyphClass: 1
Flags: W
HStem: -181 41<-10.4679 106.194> -82 39<60.915 112.402>
VStem: 113 63<-131.626 -83.6878>
LayerCount: 2
Fore
SplineSet
176 -96 m 0
 176 -144 127 -181 63 -181 c 0
 38 -181 9 -175 -24 -163 c 1
 -1 -126 l 1
 20 -136 38 -140 56 -140 c 0
 87 -140 113 -124 113 -104 c 0
 113 -90 100 -82 78 -82 c 0
 60 -82 61 -87 43 -87 c 0
 32 -87 25 -80 25 -71 c 0
 25 -66 26 -62 30 -57 c 2
 98 25 l 1
 128 4 l 1
 87 -45 l 1
 96 -43 102 -43 110 -43 c 0
 152 -43 176 -63 176 -96 c 0
EndSplineSet
EndChar

StartChar: uni00B9
Encoding: 282 185 101
Width: 257
GlyphClass: 1
Flags: W
HStem: 682 48<126 198.488>
VStem: 139 69<403 472>
LayerCount: 2
Fore
SplineSet
126 730 m 1
 184 730 214 744 231 779 c 1
 288 779 l 1
 208 403 l 1
 139 403 l 1
 199 682 l 1
 116 682 l 1
 126 730 l 1
EndSplineSet
EndChar

StartChar: ordmasculine
Encoding: 283 186 102
Width: 383
GlyphClass: 1
Flags: W
HStem: 399 53<172.32 265.224> 639 53<185.776 278.68>
VStem: 87 69<467.736 607.663> 295 69<483.237 624.503>
LayerCount: 2
Fore
SplineSet
364 567 m 0
 364 467 302 399 210 399 c 0
 134 399 87 447 87 523 c 0
 87 624 149 692 241 692 c 0
 317 692 364 644 364 567 c 0
156 529 m 0
 156 481 179 452 216 452 c 0
 263 452 295 497 295 563 c 0
 295 610 272 639 235 639 c 0
 188 639 156 594 156 529 c 0
EndSplineSet
EndChar

StartChar: onequarter
Encoding: 284 188 104
Width: 824
GlyphClass: 1
Flags: W
HStem: 0 21G<100 202.012> 86 57<492 592 674 727> 571 47<122 194.488> 647 20G<218.5 284> 648 20G<553.988 656>
VStem: 136 68<292 360> 574 70<0 70>
LayerCount: 2
Fore
SplineSet
122 618 m 1xf6
 180 618 210 632 227 667 c 1
 284 667 l 1
 204 292 l 1
 136 292 l 1
 195 571 l 1
 112 571 l 1
 122 618 l 1xf6
EndSplineSet
Refer: 345 8308 S 1 0 0 1 323 -403 2
Refer: 86 8260 S 1 0 0 1 147 0 2
LCarets2: 2 0 0
Ligature2: "'frac' Diagonal Fractions lookup 10 subtable" one slash four
EndChar

StartChar: onehalf
Encoding: 189 189 105
Width: 802
GlyphClass: 1
Flags: W
HStem: 0 21G<93 195.012> 0 58<520 687> 333 49<555.491 653.903> 571 47<122 192.979> 647 20G<218.5 284> 648 20G<546.988 649>
VStem: 135 69<292 361> 664 71<216.962 322.392>
LayerCount: 2
Fore
SplineSet
122 618 m 1x3b
 180 618 210 632 227 667 c 1
 284 667 l 1
 204 292 l 1
 135 292 l 1
 194 571 l 1
 112 571 l 1
 122 618 l 1x3b
735 286 m 0
 735 208 659 127 520 58 c 1
 699 58 l 1
 687 0 l 1
 411 0 l 1x73
 422 54 l 1
 602 155 664 212 664 280 c 0
 664 311 641 333 608 333 c 0
 573 333 544 310 531 273 c 1
 471 292 l 1
 494 350 544 382 610 382 c 0
 688 382 735 346 735 286 c 0
EndSplineSet
Refer: 86 8260 S 1 0 0 1 140 0 2
LCarets2: 2 0 0
Ligature2: "'frac' Diagonal Fractions lookup 10 subtable" one slash two
EndChar

StartChar: threequarters
Encoding: 285 190 106
Width: 906
GlyphClass: 1
Flags: W
HStem: 0 21G<193 295.012 656 730.419> 86 57<574 675 756 809> 291 51<165.986 275.463> 378 20G<82 151.5> 467 54<200 280.734> 631 50<194.877 303.1> 648 20G<646.988 749>
VStem: 82 64<361.281 382.859> 293 69<360.07 453.203> 312 68<537.267 621.261> 656 70<0 70>
LayerCount: 2
Fore
SplineSet
656 0 m 1xf920
 675 86 l 1
 482 86 l 1
 493 140 l 1
 730 375 l 1
 806 375 l 1
 756 143 l 1
 821 143 l 1
 809 86 l 1
 745 86 l 1
 726 0 l 1
 656 0 l 1xf920
574 143 m 1
 687 143 l 1
 718 289 l 1
 574 143 l 1
EndSplineSet
Refer: 86 8260 S 1 0 0 1 240 0 2
Refer: 95 179 S 1 0 0 1 -5 -105 2
LCarets2: 2 0 0
Ligature2: "'frac' Diagonal Fractions lookup 10 subtable" three slash four
EndChar

StartChar: less
Encoding: 60 60 107
Width: 613
GlyphClass: 1
Flags: W
HStem: 0 21G<466.587 511> 476 20G<466.587 511>
VStem: 38 105<160.5 335.5>
LayerCount: 2
Fore
SplineSet
511 0 m 1
 38 213 l 1
 38 283 l 1
 511 496 l 1
 511 406 l 1
 143 248 l 1
 511 90 l 1
 511 0 l 1
EndSplineSet
EndChar

StartChar: greater
Encoding: 62 62 109
Width: 613
GlyphClass: 1
Flags: W
HStem: 0 21G<83 127.413> 476 20G<83 127.413>
VStem: 451 105<160.5 335.5>
LayerCount: 2
Fore
SplineSet
83 0 m 1
 83 90 l 1
 451 248 l 1
 83 406 l 1
 83 496 l 1
 556 283 l 1
 556 213 l 1
 83 0 l 1
EndSplineSet
EndChar

StartChar: question
Encoding: 63 63 110
Width: 527
GlyphClass: 1
Flags: W
HStem: -12 129<139.85 235.8> 500 21G<101.833 178.5> 609 70<234.887 402.461>
VStem: 123 130<4.85028 100.15> 433 91<473.204 579.359>
LayerCount: 2
Fore
SplineSet
253 53 m 0
 253 17 224 -12 188 -12 c 0
 151 -12 123 16 123 52 c 0
 123 88 152 117 188 117 c 0
 223 117 253 88 253 53 c 0
332 679 m 0
 449 679 524 622 524 533 c 0
 524 379 344 365 292 292 c 0
 274 266 274 266 255 190 c 1
 170 190 l 1
 176 216 176 218 177 227 c 0
 198 321 238 368 342 421 c 0
 405 453 433 486 433 527 c 0
 433 576 391 609 329 609 c 0
 245 609 191 573 166 500 c 1
 89 524 l 1
 125 625 211 679 332 679 c 0
EndSplineSet
EndChar

StartChar: at
Encoding: 64 64 111
Width: 784
GlyphClass: 1
Flags: W
HStem: -12 60<295.992 517.858> 155 73<304.464 399.813> 155 64<526.008 633.071> 446 73<361.537 474.048> 619 61<307.473 517.214>
VStem: 65 62<217.461 437.803> 213 81<237.183 374.023> 682 62<273.919 462.514>
LayerCount: 2
Fore
SplineSet
127 334 m 0xbf
 127 166 244 48 412 48 c 0
 461 48 506 60 547 85 c 1
 547 16 l 1
 507 -3 463 -12 414 -12 c 0
 204 -12 65 126 65 334 c 0
 65 525 220 680 411 680 c 0
 596 680 744 540 744 366 c 0
 744 239 674 155 567 155 c 0xbf
 509 155 463 183 454 225 c 1
 421 181 374 155 326 155 c 0xdf
 258 155 213 203 213 275 c 0
 213 416 314 519 452 519 c 0
 491 519 531 512 569 499 c 1
 528 303 l 2
 521 276 520 268 520 258 c 0
 520 237 544 219 574 219 c 0
 639 219 682 279 682 368 c 0
 682 506 560 619 411 619 c 0
 254 619 127 492 127 334 c 0xbf
294 287 m 0
 294 251 315 228 346 228 c 0xdf
 395 228 440 275 453 339 c 0
 458 360 475 439 475 442 c 0
 455 445 448 446 439 446 c 0
 353 446 294 381 294 287 c 0
EndSplineSet
EndChar

StartChar: colon
Encoding: 58 58 112
Width: 208
GlyphClass: 1
Flags: W
HStem: -12 129<5.74728 101.15> 375 129<87.7473 183.15>
VStem: -11 129<4.74728 100.15> 71 129<391.85 487.253>
LayerCount: 2
Fore
SplineSet
200 440 m 0xd0
 200 404 171 375 135 375 c 0
 100 375 71 404 71 440 c 0
 71 475 100 504 135 504 c 0
 171 504 200 475 200 440 c 0xd0
EndSplineSet
Refer: 133 46 N 1 0 0 1 -10 0 2
EndChar

StartChar: semicolon
Encoding: 59 59 113
Width: 210
GlyphClass: 1
Flags: W
HStem: -134 250 375 129<89.7473 185.15>
VStem: -11 129<3.20268 99.4999> 73 129<391.747 487.15>
LayerCount: 2
Fore
SplineSet
202 439 m 0xd0
 202 404 173 375 137 375 c 0
 102 375 73 404 73 439 c 0
 73 475 102 504 137 504 c 0
 173 504 202 475 202 439 c 0xd0
EndSplineSet
Refer: 131 44 N 1 0 0 1 0 0 2
EndChar

StartChar: bracketleft
Encoding: 91 91 114
Width: 317
GlyphClass: 1
Flags: W
HStem: -161 74<79 188> 593 75<224 348>
LayerCount: 2
Fore
SplineSet
-20 -161 m 1
 156 668 l 1
 363 668 l 1
 348 593 l 1
 224 593 l 1
 79 -87 l 1
 204 -87 l 1
 188 -161 l 1
 -20 -161 l 1
EndSplineSet
EndChar

StartChar: backslash
Encoding: 92 92 115
Width: 519
GlyphClass: 1
Flags: W
HStem: 0 21G<347.216 442> 648 20G<95 189.784>
LayerCount: 2
Fore
SplineSet
355 0 m 1
 95 668 l 1
 182 668 l 1
 442 0 l 1
 355 0 l 1
EndSplineSet
EndChar

StartChar: bracketright
Encoding: 93 93 116
Width: 317
GlyphClass: 1
Flags: W
HStem: -161 74<-47 78> 593 75<113 223>
LayerCount: 2
Fore
SplineSet
-63 -161 m 1
 -47 -87 l 1
 78 -87 l 1
 223 593 l 1
 98 593 l 1
 113 668 l 1
 320 668 l 1
 145 -161 l 1
 -63 -161 l 1
EndSplineSet
EndChar

StartChar: asciicircum
Encoding: 94 94 117
Width: 552
GlyphClass: 1
Flags: W
HStem: 569 99<182.5 357.5>
LayerCount: 2
Fore
SplineSet
47 311 m 1
 232 668 l 1
 308 668 l 1
 493 311 l 1
 404 311 l 1
 270 569 l 1
 136 311 l 1
 47 311 l 1
EndSplineSet
EndChar

StartChar: underscore
Encoding: 95 95 118
Width: 413
GlyphClass: 1
Flags: W
HStem: -79 79<-32 344>
LayerCount: 2
Fore
SplineSet
-32 -79 m 1
 -32 0 l 1
 344 0 l 1
 344 -79 l 1
 -32 -79 l 1
EndSplineSet
EndChar

StartChar: grave
Encoding: 96 96 119
Width: 272
GlyphClass: 1
Flags: W
HStem: 571 136
VStem: 134 144
LayerCount: 2
Fore
SplineSet
134 669 m 0
 134 692 149 707 172 707 c 0
 173 707 174 707 176 707 c 0
 193 707 194 707 268 586 c 1
 278 571 l 1
 210 571 l 1
 196 586 l 2
 143 641 134 653 134 669 c 0
EndSplineSet
EndChar

StartChar: exclam
Encoding: 33 33 120
Width: 284
GlyphClass: 1
Flags: W
HStem: -12 129<43.7473 139.15> 648 20G<172.723 268>
VStem: 27 129<4.85028 100.15> 95 54<195 220.301> 177 91<577 668>
LayerCount: 2
Fore
SplineSet
95 195 m 1xd8
 140 495 l 1
 177 668 l 1
 268 668 l 1
 232 495 l 1
 149 195 l 1
 95 195 l 1xd8
156 52 m 0xe8
 156 17 127 -12 91 -12 c 0
 56 -12 27 17 27 53 c 0
 27 89 55 117 92 117 c 0
 127 117 156 88 156 52 c 0xe8
EndSplineSet
EndChar

StartChar: numbersign
Encoding: 35 35 122
Width: 634
GlyphClass: 1
Flags: W
HStem: 0 21G<136 220.791 341 425.791> 172 81<48 161 254 365 459 571> 415 81<82 195 288 399 493 605> 648 20G<227.209 312 432.209 517>
VStem: 136 82<0 82> 230 82<586 668> 341 82<0 82> 435 82<586 668>
LayerCount: 2
Fore
SplineSet
136 0 m 1
 161 172 l 1
 37 172 l 1
 48 253 l 1
 172 253 l 1
 195 415 l 1
 71 415 l 1
 82 496 l 1
 206 496 l 1
 230 668 l 1
 312 668 l 1
 288 496 l 1
 411 496 l 1
 435 668 l 1
 517 668 l 1
 493 496 l 1
 616 496 l 1
 605 415 l 1
 481 415 l 1
 459 253 l 1
 582 253 l 1
 571 172 l 1
 447 172 l 1
 423 0 l 1
 341 0 l 1
 365 172 l 1
 242 172 l 1
 218 0 l 1
 136 0 l 1
254 253 m 1
 377 253 l 1
 399 415 l 1
 276 415 l 1
 254 253 l 1
EndSplineSet
EndChar

StartChar: dollar
Encoding: 36 36 123
Width: 610
GlyphClass: 1
Flags: W
HStem: -6 78<275 381.568> 319 84<243.669 275> 599 80<403 434.267> 609 81<232.551 336>
VStem: 88 95<450.433 563.597> 190 52<-80 -28> 366 52<698 750> 448 98<131.345 248.438>
LayerCount: 2
Fore
SplineSet
546 204 m 0xef
 546 89 432 -6 294 -6 c 0
 271 -6 266 -6 258 -4 c 1
 242 -80 l 1
 190 -80 l 1
 208 4 l 1
 124 24 63 77 37 153 c 1
 128 179 l 1
 143 135 177 103 225 86 c 1
 275 319 l 1
 134 362 88 407 88 503 c 0
 88 605 191 690 315 690 c 0xdf
 328 690 340 689 353 687 c 1
 366 750 l 1
 418 750 l 1
 403 679 l 1
 480 662 537 620 563 563 c 1
 471 537 l 1
 456 567 426 588 386 599 c 1
 341 388 l 1
 495 342 546 296 546 204 c 0xef
336 608 m 1
 332 609 329 609 318 609 c 0
 239 609 183 566 183 505 c 0
 183 458 215 428 293 403 c 1
 336 608 l 1
448 191 m 0
 448 244 415 274 324 304 c 1
 275 75 l 1
 284 73 294 72 304 72 c 0
 380 72 448 128 448 191 c 0
EndSplineSet
EndChar

StartChar: percent
Encoding: 37 37 124
Width: 1000
GlyphClass: 1
Flags: W
HStem: -12 74<679.673 807.615> 0 21G<231 333.012> 277 74<698.447 826.124> 317 74<191.673 319.615> 606 74<210.447 338.124> 648 20G<684.988 787>
VStem: 82 74<425.677 552.448> 373 75<445.349 572.051> 570 74<96.6767 223.448> 861 75<116.349 243.051>
LayerCount: 2
Fore
SplineSet
448 519 m 0x1bc0
 448 410 355 317 246 317 c 0
 153 317 82 387 82 479 c 0
 82 588 175 680 284 680 c 0
 377 680 448 610 448 519 c 0x1bc0
156 488 m 0
 156 432 198 391 254 391 c 0
 319 391 373 446 373 512 c 0
 373 566 332 606 276 606 c 0
 212 606 156 551 156 488 c 0
936 190 m 0
 936 81 843 -12 734 -12 c 0
 641 -12 570 58 570 150 c 0
 570 259 663 351 772 351 c 0xa3c0
 865 351 936 281 936 190 c 0
644 159 m 0
 644 103 686 62 742 62 c 0
 807 62 861 117 861 183 c 0
 861 237 820 277 764 277 c 0
 700 277 644 222 644 159 c 0
EndSplineSet
Refer: 86 8260 S 1 0 0 1 278 0 2
EndChar

StartChar: ampersand
Encoding: 38 38 125
Width: 691
GlyphClass: 1
Flags: W
HStem: -12 78<137.355 308.961> 0 21G<492.116 619> 609 70<301.941 435.866>
VStem: 15 86<101.571 238.465> 182 88<448.631 578.169> 454 83<486.337 589.909>
LayerCount: 2
Fore
SplineSet
443 86 m 1x7c
 365 18 291 -12 204 -12 c 0xbc
 88 -12 15 56 15 162 c 0
 15 260 96 349 222 389 c 1
 196 434 182 476 182 513 c 0
 182 613 258 679 371 679 c 0
 472 679 537 629 537 552 c 0
 537 471 481 414 351 362 c 1
 456 222 l 1
 487 259 514 309 529 360 c 1
 616 360 l 1
 597 296 557 224 503 157 c 1
 619 0 l 1
 507 0 l 1
 443 86 l 1x7c
373 609 m 0
 310 609 270 575 270 520 c 0
 270 487 278 467 312 416 c 1
 405 447 454 490 454 540 c 0
 454 583 423 609 373 609 c 0
101 165 m 0
 101 103 142 66 212 66 c 0
 275 66 331 90 400 145 c 1
 263 333 l 1
 159 300 101 240 101 165 c 0
EndSplineSet
EndChar

StartChar: quotesingle
Encoding: 39 39 126
Width: 193
GlyphClass: 1
Flags: W
HStem: 447 221<109 161>
VStem: 109 52<447 557.5>
LayerCount: 2
Fore
SplineSet
109 447 m 1
 95 668 l 1
 175 668 l 1
 161 447 l 1
 109 447 l 1
EndSplineSet
EndChar

StartChar: parenleft
Encoding: 40 40 127
Width: 301
GlyphClass: 1
Flags: W
HStem: -162 21G<71.5 170> 648 20G<182 337>
VStem: 29 80<-38.2733 290.928>
LayerCount: 2
Fore
SplineSet
170 -162 m 1
 93 -162 l 1
 50 -64 29 35 29 133 c 0
 29 319 106 500 258 668 c 1
 337 668 l 1
 182 479 109 305 109 127 c 0
 109 32 129 -64 170 -162 c 1
EndSplineSet
EndChar

StartChar: parenright
Encoding: 41 41 128
Width: 302
GlyphClass: 1
Flags: W
HStem: -162 21G<-53 103> 648 20G<115 213.5>
VStem: 176 80<217.194 544.044>
LayerCount: 2
Fore
SplineSet
28 -162 m 1
 -53 -162 l 1
 102 27 176 204 176 383 c 0
 176 478 156 573 115 668 c 1
 192 668 l 1
 235 571 256 473 256 375 c 0
 256 189 178 6 28 -162 c 1
EndSplineSet
EndChar

StartChar: asterisk
Encoding: 42 42 129
Width: 439
GlyphClass: 1
Flags: W
HStem: 373 294
VStem: 106 289
LayerCount: 2
Fore
SplineSet
280 373 m 1
 236 470 l 1
 157 399 l 1
 119 442 l 1
 198 513 l 1
 106 566 l 1
 135 615 l 1
 227 562 l 1
 249 667 l 1
 305 655 l 1
 283 550 l 1
 388 561 l 1
 395 505 l 1
 289 493 l 1
 332 396 l 1
 280 373 l 1
EndSplineSet
EndChar

StartChar: plus
Encoding: 43 43 130
Width: 619
GlyphClass: 1
Flags: W
HStem: 0 21G<250 330> 208 80<42 250 330 538> 476 20G<250 330>
VStem: 250 80<0 208 288 496>
LayerCount: 2
Fore
SplineSet
250 0 m 1
 250 208 l 1
 42 208 l 1
 42 288 l 1
 250 288 l 1
 250 496 l 1
 330 496 l 1
 330 288 l 1
 538 288 l 1
 538 208 l 1
 330 208 l 1
 330 0 l 1
 250 0 l 1
EndSplineSet
EndChar

StartChar: comma
Encoding: 44 44 131
Width: 209
GlyphClass: 1
Flags: W
HStem: -134 250
VStem: -11 129<3.20268 99.4999>
LayerCount: 2
Fore
SplineSet
52 116 m 0
 89 116 118 88 118 51 c 0
 118 38 115 30 102 7 c 2
 17 -134 l 1
 -44 -134 l 1
 32 -9 l 1
 3 2 -11 22 -11 52 c 0
 -11 88 17 116 52 116 c 0
EndSplineSet
EndChar

StartChar: hyphen
Encoding: 45 45 132
Width: 372
GlyphClass: 1
Flags: W
HStem: 208 81<49 323>
VStem: 31 310
LayerCount: 2
Fore
SplineSet
31 208 m 1
 49 289 l 1
 341 289 l 1
 323 208 l 1
 31 208 l 1
EndSplineSet
EndChar

StartChar: period
Encoding: 46 46 133
Width: 208
GlyphClass: 1
Flags: W
HStem: -12 129<15.7473 111.15>
VStem: -1 129<4.74728 100.15>
LayerCount: 2
Fore
SplineSet
128 52 m 0
 128 17 99 -12 63 -12 c 0
 28 -12 -1 17 -1 52 c 0
 -1 88 28 117 63 117 c 0
 99 117 128 88 128 52 c 0
EndSplineSet
EndChar

StartChar: slash
Encoding: 47 47 134
Width: 371
GlyphClass: 1
Flags: W
HStem: 0 21G<-50 49.0359> 648 20G<339.964 439>
LayerCount: 2
Fore
SplineSet
-50 0 m 1
 352 668 l 1
 439 668 l 1
 37 0 l 1
 -50 0 l 1
EndSplineSet
EndChar

StartChar: braceleft
Encoding: 123 123 135
Width: 322
GlyphClass: 1
Flags: W
HStem: -162 71<123.627 192> 220 67<37 73.2966> 596 72<261.023 353>
VStem: 34 89<-89.2368 43.1484> 79 87<52.6172 214.27>
LayerCount: 2
Fore
SplineSet
149 -162 m 2xf0
 66 -162 34 -139 34 -81 c 0xf0
 34 -63 36 -45 41 -25 c 2
 73 125 l 2
 77 144 79 159 79 171 c 0
 79 206 63 220 23 220 c 1
 37 287 l 1
 90 287 113 311 128 382 c 2
 163 545 l 2
 184 642 218 668 325 668 c 2
 368 668 l 1
 353 596 l 1
 311 596 l 2
 269 596 258 585 247 533 c 2
 214 380 l 2
 199 307 167 270 106 254 c 1
 106 253 l 1
 147 241 166 216 166 174 c 0xe8
 166 160 164 145 160 127 c 2
 128 -26 l 2
 125 -41 123 -52 123 -61 c 0
 123 -84 133 -91 165 -91 c 2
 207 -91 l 1
 192 -162 l 1
 149 -162 l 2xf0
EndSplineSet
EndChar

StartChar: bar
Encoding: 124 124 136
Width: 289
GlyphClass: 1
Flags: W
HStem: -161 21G<96 177> 648 20G<96 177>
VStem: 96 81<-161 668>
LayerCount: 2
Fore
SplineSet
96 -161 m 1
 96 668 l 1
 177 668 l 1
 177 -161 l 1
 96 -161 l 1
EndSplineSet
EndChar

StartChar: braceright
Encoding: 125 125 137
Width: 322
GlyphClass: 1
Flags: W
HStem: -163 72<-47 44.9768> 218 67<233.133 269> 596 71<114 182.429>
VStem: 140 87<291.009 452.484> 184 88<461.016 593.263>
LayerCount: 2
Fore
SplineSet
-62 -163 m 1xf0
 -47 -91 l 1
 -5 -91 l 2
 37 -91 48 -80 59 -28 c 2
 92 125 l 2
 108 198 140 235 200 251 c 1
 200 252 l 1
 159 265 140 289 140 331 c 0xf0
 140 344 142 360 146 378 c 2
 181 542 l 2
 183 552 184 560 184 566 c 0
 184 588 173 596 141 596 c 2
 99 596 l 1
 114 667 l 1
 157 667 l 2
 240 667 272 645 272 587 c 0xe8
 272 569 270 551 265 530 c 2
 233 380 l 2
 229 362 227 347 227 335 c 0
 227 300 243 285 283 285 c 1
 269 218 l 1
 217 218 193 193 178 123 c 2
 143 -40 l 2
 122 -137 88 -163 -19 -163 c 2
 -62 -163 l 1xf0
EndSplineSet
EndChar

StartChar: asciitilde
Encoding: 126 126 138
Width: 539
GlyphClass: 1
Flags: W
HStem: 195 73<276.395 412.612> 249 74<112.998 248.634>
LayerCount: 2
Fore
SplineSet
500 297 m 1x80
 485 234 433 195 364 195 c 0x80
 289 195 239 249 164 249 c 0
 129 249 106 231 100 199 c 1
 25 221 l 1
 40 285 92 323 162 323 c 0x40
 239 323 286 268 363 268 c 0
 396 268 420 287 426 319 c 1
 500 297 l 1x80
EndSplineSet
EndChar

StartChar: exclamdown
Encoding: 286 161 139
Width: 283
GlyphClass: 1
Flags: W
HStem: -161 21G<0 95.2775> 390 129<128.85 224.253>
VStem: 0 91<-161 -70> 112 129<406.85 502.253> 119 55<285.476 311>
LayerCount: 2
Fore
SplineSet
241 455 m 0xf0
 241 419 212 390 177 390 c 0
 141 390 112 419 112 455 c 0
 112 490 141 519 177 519 c 0
 212 519 241 490 241 455 c 0xf0
0 -161 m 1
 37 12 l 1
 119 311 l 1
 174 311 l 1xe8
 128 12 l 1
 91 -161 l 1
 0 -161 l 1
EndSplineSet
EndChar

StartChar: cent
Encoding: 287 162 140
Width: 492
GlyphClass: 1
Flags: W
HStem: -12 73<240 315.654> 427 74<209.714 267 332 365.884>
VStem: 25 91<108.481 311.902> 157 51<-87 -36> 297 50<521 571>
LayerCount: 2
Fore
SplineSet
240 61 m 1
 290 62 331 84 362 127 c 1
 433 98 l 1
 391 28 316 -11 224 -12 c 1
 208 -87 l 1
 157 -87 l 1
 174 -8 l 1
 80 9 25 82 25 191 c 0
 25 366 133 496 283 503 c 1
 297 571 l 1
 347 571 l 1
 332 501 l 1
 401 491 451 455 480 392 c 1
 397 364 l 1
 386 397 357 420 318 427 c 1
 240 61 l 1
267 428 m 1
 177 414 116 320 116 196 c 0
 116 128 141 85 190 68 c 1
 267 428 l 1
EndSplineSet
EndChar

StartChar: sterling
Encoding: 163 163 141
Width: 585
GlyphClass: 1
Flags: W
HStem: -12 78<284.032 476.797> 25 77<114 281.765> 317 51<86 172 276 457> 608 71<298.199 467.43>
VStem: 153 90<370.671 555.797> 192 90<190.765 316.365>
LayerCount: 2
Fore
SplineSet
178 25 m 0x74
 136 25 90 13 35 -12 c 1
 22 55 l 1
 121 90 192 177 192 264 c 0xb4
 192 282 189 300 184 317 c 1
 75 317 l 1
 86 368 l 1
 172 368 l 1
 158 414 153 446 153 483 c 0
 153 604 242 679 386 679 c 0
 496 679 570 632 591 549 c 1
 508 526 l 1
 486 587 454 608 382 608 c 0
 294 608 243 561 243 480 c 0xb8
 243 452 246 437 265 368 c 1
 468 368 l 1
 457 317 l 1
 276 317 l 1
 280 307 282 292 282 273 c 0
 282 231 269 195 242 164 c 0
 216 134 185 109 150 90 c 1
 171 98 191 102 212 102 c 0x74
 285 102 299 66 372 66 c 0
 406 66 443 74 487 91 c 1
 497 18 l 1
 448 -3 407 -12 366 -12 c 0xb4
 282 -12 262 25 178 25 c 0x74
EndSplineSet
EndChar

StartChar: currency
Encoding: 288 164 142
Width: 666
GlyphClass: 1
Flags: W
HStem: 103 75<264.528 413.383> 463 76<265.407 413.564>
VStem: 121 76<245.809 394.605> 481 76<246.4 395.564>
LayerCount: 2
Fore
SplineSet
339 103 m 0
 290 103 243 119 204 149 c 1
 138 84 l 1
 102 119 l 1
 168 185 l 1
 137 228 121 273 121 321 c 0
 121 370 138 418 168 456 c 1
 102 522 l 1
 138 558 l 1
 204 492 l 1
 243 523 289 539 339 539 c 0
 391 539 437 523 474 492 c 1
 540 558 l 1
 576 522 l 1
 510 456 l 1
 541 419 557 373 557 321 c 0
 557 271 540 222 510 185 c 1
 576 119 l 1
 540 84 l 1
 474 149 l 1
 437 119 390 103 339 103 c 0
197 321 m 0
 197 242 261 178 339 178 c 0
 418 178 481 242 481 321 c 0
 481 400 418 463 339 463 c 0
 261 463 197 399 197 321 c 0
EndSplineSet
EndChar

StartChar: yen
Encoding: 289 165 143
Width: 598
GlyphClass: 1
Flags: W
HStem: 0 21G<178 279.186> 86 51<58 196 304 439> 223 51<87 218 352 468> 648 20G<90 192.195 538.484 668>
VStem: 90 96<572 668>
LayerCount: 2
Fore
SplineSet
178 0 m 1
 196 86 l 1
 47 86 l 1
 58 137 l 1
 207 137 l 1
 225 223 l 1
 76 223 l 1
 87 274 l 1
 218 274 l 1
 90 668 l 1
 186 668 l 1
 291 329 l 1
 554 668 l 1
 668 668 l 1
 352 274 l 1
 479 274 l 1
 468 223 l 1
 322 223 l 1
 304 137 l 1
 450 137 l 1
 439 86 l 1
 293 86 l 1
 275 0 l 1
 178 0 l 1
EndSplineSet
EndChar

StartChar: brokenbar
Encoding: 166 166 144
Width: 289
GlyphClass: 1
Flags: W
HStem: -161 21G<96 177> 648 20G<96 177>
VStem: 96 81<-161 149 358 668>
LayerCount: 2
Fore
SplineSet
96 358 m 1
 96 668 l 1
 177 668 l 1
 177 358 l 1
 96 358 l 1
96 -161 m 1
 96 149 l 1
 177 149 l 1
 177 -161 l 1
 96 -161 l 1
EndSplineSet
EndChar

StartChar: section
Encoding: 167 167 145
Width: 526
GlyphClass: 1
Flags: W
HStem: -174 72<70.2118 216.246> 612 68<291.267 437.171>
VStem: 39 86<225.91 328.709> 178 87<492.568 585.814> 251 89<-68.5333 35.3763> 397 90<189.529 293.003>
LayerCount: 2
Fore
SplineSet
340 2 m 0xec
 340 -98 252 -174 135 -174 c 0
 42 -174 -26 -129 -43 -55 c 1
 43 -32 l 1
 49 -76 85 -102 140 -102 c 0
 205 -102 251 -67 251 -18 c 0xec
 251 18 233 40 152 102 c 0
 60 173 39 202 39 256 c 0
 39 345 104 412 213 435 c 1
 190 458 178 488 178 522 c 0
 178 613 258 680 366 680 c 0
 453 680 520 642 537 584 c 1
 454 561 l 1
 449 592 415 612 367 612 c 0
 306 612 265 582 265 539 c 0xf4
 265 514 281 492 319 464 c 0
 325 460 426 379 428 377 c 0
 470 344 487 313 487 272 c 0
 487 183 430 121 313 82 c 1
 331 60 340 33 340 2 c 0xec
260 391 m 1
 184 376 125 326 125 277 c 0
 125 252 139 229 166 208 c 0
 170 205 245 145 254 138 c 2
 266 129 l 1
 351 155 397 194 397 239 c 0
 397 280 375 304 260 391 c 1
EndSplineSet
EndChar

StartChar: dieresis
Encoding: 168 168 146
Width: 427
GlyphClass: 1
Flags: W
HStem: 590 107<139.676 225.846 352.079 436.846>
VStem: 129 108<600.676 685.921> 341 107<600.676 686.685>
LayerCount: 2
Fore
SplineSet
237 644 m 0
 237 614 213 590 183 590 c 4
 153 590 129 614 129 644 c 0
 129 673 153 697 183 697 c 0
 214 697 237 674 237 644 c 0
448 644 m 0
 448 614 424 590 394 590 c 0
 365 590 341 614 341 644 c 0
 341 674 364 697 394 697 c 0
 425 697 448 674 448 644 c 0
EndSplineSet
EndChar

StartChar: copyright
Encoding: 169 169 147
Width: 814
GlyphClass: 1
Flags: W
HStem: -12 62<312.267 519.733> 150 59<359.468 482.341> 473 58<358.221 477.654> 618 62<312.267 519.733>
VStem: 70 62<230.267 437.733> 244 76<251.238 430.968> 700 62<230.267 437.733>
LayerCount: 2
Fore
SplineSet
762 334 m 0
 762 143 607 -12 416 -12 c 0
 225 -12 70 143 70 334 c 0
 70 525 225 680 416 680 c 0
 607 680 762 525 762 334 c 0
132 334 m 0
 132 176 258 50 416 50 c 0
 574 50 700 176 700 334 c 0
 700 492 574 618 416 618 c 0
 258 618 132 492 132 334 c 0
567 230 m 1
 538 178 485 150 418 150 c 0
 308 150 244 220 244 342 c 0
 244 460 310 531 420 531 c 0
 486 531 537 502 565 449 c 1
 498 424 l 1
 481 457 454 473 418 473 c 0
 356 473 320 425 320 342 c 0
 320 258 356 209 418 209 c 0
 457 209 486 225 501 254 c 1
 567 230 l 1
EndSplineSet
EndChar

StartChar: questiondown
Encoding: 290 191 148
Width: 527
GlyphClass: 1
Flags: W
HStem: -175 70<107.932 275.206> 388 129<274.944 370.15>
VStem: -14 91<-74.9623 33.7288> 255 85<240.742 316> 259 128<404.747 500.15>
LayerCount: 2
Fore
SplineSet
387 452 m 0xe8
 387 417 358 388 322 388 c 0
 287 388 259 416 259 452 c 0
 259 489 286 517 322 517 c 0
 358 517 387 488 387 452 c 0xe8
178 -175 m 0
 62 -175 -14 -117 -14 -29 c 0
 -14 48 32 102 138 153 c 0
 212 189 246 237 255 316 c 1
 340 316 l 1xf0
 331 235 295 166 240 126 c 0
 180 83 151 81 105 40 c 0
 86 23 77 2 77 -23 c 0
 77 -71 120 -105 181 -105 c 0
 265 -105 319 -69 344 4 c 1
 421 -20 l 1
 386 -120 299 -175 178 -175 c 0
EndSplineSet
EndChar

StartChar: germandbls
Encoding: 291 223 149
Width: 605
GlyphClass: 1
Flags: W
HStem: -13 77<239 379.953> 0 21G<14 104.248> 329 77<305 404.519> 610 70<277.947 450.906>
VStem: 14 86<0 86> 454 95<134.199 284.41> 483 87<461.038 580.177>
LayerCount: 2
Fore
SplineSet
570 534 m 0x7a
 570 453 518 388 439 372 c 1
 517 343 549 298 549 216 c 0
 549 210 548 203 548 197 c 0
 541 66 434 -13 266 -13 c 2
 252 -13 l 2
 244 -13 242 -13 239 -12 c 2
 233 67 l 1
 249 65 265 64 280 64 c 0
 391 64 454 120 454 218 c 0xbc
 454 291 406 326 303 329 c 2
 289 329 l 1
 305 406 l 1
 320 406 l 1
 420 410 483 455 483 522 c 0
 483 578 443 610 374 610 c 0
 271 610 220 565 196 452 c 2
 100 0 l 1
 14 0 l 1
 110 452 l 2
 147 617 220 680 378 680 c 0
 497 680 570 624 570 534 c 0x7a
EndSplineSet
EndChar

StartChar: AE
Encoding: 292 198 150
Width: 987
GlyphClass: 1
Flags: W
HStem: 0 81<549 891> 145 81<267 466> 303 80<613 862> 586 81<656 1015>
AnchorPoint: "Anchor-1" 738 667 basechar 0
LayerCount: 2
Fore
SplineSet
-52 0 m 1
 577 667 l 1
 1032 667 l 1
 1015 586 l 1
 656 586 l 1
 613 383 l 1
 879 383 l 1
 862 303 l 1
 596 303 l 1
 549 81 l 1
 908 81 l 1
 891 0 l 1
 435 0 l 1
 466 145 l 1
 194 145 l 1
 60 0 l 1
 -52 0 l 1
267 226 m 1
 483 226 l 1
 548 529 l 1
 267 226 l 1
EndSplineSet
EndChar

StartChar: florin
Encoding: 293 402 151
Width: 330
GlyphClass: 1
Flags: W
HStem: -173 78<-58.04 22.9179> 428 68<69 138 237 325> 635 71<275.357 368>
LayerCount: 2
Fore
SplineSet
-56 -90 m 1
 -36 -94 -29 -95 -22 -95 c 0
 13 -95 31 -75 42 -24 c 2
 138 428 l 1
 54 428 l 1
 69 496 l 1
 153 496 l 1
 165 555 l 2
 192 680 221 706 335 706 c 2
 384 706 l 1
 368 635 l 1
 328 635 l 2
 285 635 263 615 253 570 c 2
 237 496 l 1
 339 496 l 1
 325 428 l 1
 224 428 l 1
 125 -38 l 2
 106 -134 68 -173 -6 -173 c 0
 -25 -173 -45 -171 -72 -165 c 1
 -56 -90 l 1
EndSplineSet
EndChar

StartChar: integral
Encoding: 294 8747 152
Width: 306
GlyphClass: 1
Flags: W
HStem: -173 112<-14.3574 59.1843> 569 112<231.861 305.357>
VStem: -30 99<-126.451 -69.4902> 104 84<-97.0719 604.642> 221 100<577.438 634.766>
LayerCount: 2
Fore
SplineSet
188 44 m 0
 188 -102 145 -173 55 -173 c 0
 0 -173 -30 -151 -30 -111 c 0
 -30 -83 -8 -61 20 -61 c 0
 48 -61 69 -83 69 -112 c 2
 69 -120 l 2
 69 -122 71 -115 67 -127 c 1
 93 -122 104 -93 104 -31 c 0
 104 185 103 248 103 464 c 0
 103 609 147 681 236 681 c 0
 291 681 321 659 321 619 c 0
 321 591 299 569 271 569 c 0
 243 569 221 591 221 619 c 0
 221 625 222 630 224 635 c 1
 198 630 187 601 187 538 c 0
 187 322 188 260 188 44 c 0
EndSplineSet
EndChar

StartChar: approxequal
Encoding: 295 8776 153
Width: 605
GlyphClass: 1
Flags: W
HStem: 97 73<308.395 444.612> 151 74<144.998 280.634> 283 73<310.558 444.636> 337 74<145.771 281.442>
LayerCount: 2
Fore
SplineSet
532 385 m 1x20
 517 322 465 283 396 283 c 0x20
 321 283 271 337 196 337 c 0
 161 337 138 319 132 287 c 1
 57 309 l 1
 74 373 125 411 196 411 c 0x10
 273 411 319 356 396 356 c 0
 428 356 452 375 458 407 c 1
 532 385 l 1x20
EndSplineSet
Refer: 138 126 S 1 0 0 1 32 -98 2
EndChar

StartChar: notequal
Encoding: 296 8800 154
Width: 658
GlyphClass: 1
Flags: W
HStem: 0 21G<97 211.05> 121 79<73 182 337 569> 307 80<73 312 468 569> 476 20G<430.872 544>
LayerCount: 2
Fore
SplineSet
97 0 m 1
 182 121 l 1
 73 121 l 1
 73 200 l 1
 238 200 l 1
 312 307 l 1
 73 307 l 1
 73 387 l 1
 368 387 l 1
 445 496 l 1
 544 496 l 1
 468 387 l 1
 569 387 l 1
 569 307 l 1
 412 307 l 1
 337 200 l 1
 569 200 l 1
 569 121 l 1
 282 121 l 1
 197 0 l 1
 97 0 l 1
EndSplineSet
EndChar

StartChar: lessequal
Encoding: 297 8804 155
Width: 651
GlyphClass: 1
Flags: W
HStem: 0 80<63 536> 100 90<446 536> 414 91<445 536>
VStem: 63 105<214.5 389.5>
LayerCount: 2
Fore
SplineSet
536 100 m 1
 63 267 l 1
 63 337 l 1
 536 505 l 1
 536 414 l 1
 168 302 l 1
 536 190 l 1
 536 100 l 1
63 0 m 1
 63 80 l 1
 536 80 l 1
 536 0 l 1
 63 0 l 1
EndSplineSet
EndChar

StartChar: greaterequal
Encoding: 298 8805 156
Width: 686
GlyphClass: 1
Flags: W
HStem: 0 80<98 571> 100 90<98 188> 414 91<98 189>
VStem: 466 105<214.5 389.5>
LayerCount: 2
Fore
SplineSet
98 100 m 1
 98 190 l 1
 466 302 l 1
 98 414 l 1
 98 505 l 1
 571 337 l 1
 571 267 l 1
 98 100 l 1
98 0 m 1
 98 80 l 1
 571 80 l 1
 571 0 l 1
 98 0 l 1
EndSplineSet
EndChar

StartChar: lozenge
Encoding: 299 9674 157
Width: 561
GlyphClass: 1
Flags: W
VStem: 58 87<271.5 358.5> 426 87<271.5 358.5>
LayerCount: 2
Fore
SplineSet
286 -73 m 1
 58 315 l 1
 286 703 l 1
 513 315 l 1
 286 -73 l 1
286 76 m 1
 426 315 l 1
 286 554 l 1
 145 315 l 1
 286 76 l 1
EndSplineSet
EndChar

StartChar: summation
Encoding: 300 8721 158
Width: 763
GlyphClass: 1
Flags: W
HStem: -161 81<224 604> 587 81<224 604>
LayerCount: 2
Fore
SplineSet
123 -161 m 1
 123 -80 l 1
 369 254 l 1
 123 587 l 1
 123 668 l 1
 604 668 l 1
 604 587 l 1
 224 587 l 1
 469 254 l 1
 224 -80 l 1
 604 -80 l 1
 604 -161 l 1
 123 -161 l 1
EndSplineSet
EndChar

StartChar: minus
Encoding: 301 8722 159
Width: 619
GlyphClass: 1
Flags: W
HStem: 209 79<42 538>
LayerCount: 2
Fore
SplineSet
42 209 m 1
 42 288 l 1
 538 288 l 1
 538 209 l 1
 42 209 l 1
EndSplineSet
EndChar

StartChar: uni2219
Encoding: 303 8729 161
Width: 237
GlyphClass: 1
Flags: W
HStem: 191 129<62.8503 158.253>
VStem: 46 129<208.2 303.15>
LayerCount: 2
Fore
SplineSet
175 256 m 0
 175 221 146 191 111 191 c 0
 74 191 46 219 46 255 c 0
 46 291 75 320 111 320 c 0
 146 320 175 291 175 256 c 0
EndSplineSet
EndChar

StartChar: radical
Encoding: 304 8730 162
Width: 513
GlyphClass: 1
Flags: W
HStem: -161 21G<257.157 367.639> 145 80<39 145> 649 20G<423.516 515>
VStem: 427 88<581 669>
LayerCount: 2
Fore
SplineSet
265 -161 m 1
 145 145 l 1
 39 145 l 1
 39 225 l 1
 201 225 l 1
 304 -37 l 1
 427 669 l 1
 515 669 l 1
 364 -161 l 1
 265 -161 l 1
EndSplineSet
EndChar

StartChar: infinity
Encoding: 305 8734 163
Width: 780
GlyphClass: 1
Flags: W
HStem: 104 76<154.496 279.162 487.085 610.504> 330 76<153.934 280.248 484.66 611.066>
VStem: 49 81<204.699 306.745> 635 81<204.699 306.745>
LayerCount: 2
Fore
SplineSet
556 104 m 0
 495 104 442 133 383 198 c 1
 324 133 271 104 209 104 c 0
 114 104 49 166 49 256 c 0
 49 345 117 406 215 406 c 0
 275 406 327 378 383 317 c 1
 438 378 490 406 550 406 c 0
 648 406 716 345 716 256 c 0
 716 166 651 104 556 104 c 0
130 256 m 0
 130 213 166 180 213 180 c 0
 257 180 292 202 335 256 c 1
 289 310 257 330 216 330 c 0
 165 330 130 300 130 256 c 0
431 256 m 1
 476 201 509 180 552 180 c 0
 599 180 635 213 635 256 c 0
 635 300 600 330 549 330 c 0
 508 330 475 309 431 256 c 1
EndSplineSet
EndChar

StartChar: uni03A9
Encoding: 217 937 164
Width: 717
GlyphClass: 1
Flags: W
HStem: 0 173<201.794 241 393 447.431> 0 81<22 173 458 592> 606 74<325.279 509.61>
VStem: 80 75<253.076 437.303> 606 74<336.227 513.976>
LayerCount: 2
Fore
SplineSet
419 606 m 4xb8
 281.772460938 606 155 478.845703125 155 339 c 0
 155 259.21484375 201.793945312 196.0625 278 173 c 1
 241 0 l 1xb8
 5 0 l 1
 22 81 l 1
 173 81 l 1
 183 130 l 1
 117.377929688 171.759765625 80 242.5234375 80 325 c 0
 80 510.8046875 249.765625 680 434 680 c 4
 575.889648438 680 680 580.307617188 680 447 c 0
 680 319.645507812 596.573242188 194.899414062 468 130 c 1
 458 81 l 1
 609 81 l 1
 592 0 l 1
 356 0 l 1x78
 393 173 l 1
 514.23046875 205.060546875 606 316.217773438 606 431 c 0
 606 530.1640625 526.09765625 606 419 606 c 4xb8
EndSplineSet
EndChar

StartChar: estimated
Encoding: 306 8494 165
Width: 628
GlyphClass: 1
Flags: W
HStem: -12 32<223.742 390.485> 248 31<156 460> 472 32<226.301 390.473>
VStem: 50 106<149.578 248 279 351.281> 460 106<279 347.906>
LayerCount: 2
Fore
SplineSet
511 87 m 1
 462 24 388 -12 308 -12 c 0
 161 -12 50 103 50 256 c 0
 50 390 169 504 308 504 c 0
 451 504 566 390 566 248 c 1
 156 248 l 1
 156 78 l 1
 198 40 251 20 308 20 c 0
 373 20 434 48 478 97 c 1
 511 87 l 1
308 472 m 0
 251 472 197 451 156 413 c 1
 156 279 l 1
 460 279 l 1
 460 413 l 1
 419 451 365 472 308 472 c 0
EndSplineSet
EndChar

StartChar: partialdiff
Encoding: 307 8706 166
Width: 595
GlyphClass: 1
Flags: W
HStem: -12 73<214.877 361.912> 430 74<214.877 362.645> 598 82<140 306.207>
VStem: 51 89<146.846 345.017> 437 91<145.204 344.822>
LayerCount: 2
Fore
SplineSet
528 277 m 0
 528 93 441 -12 289 -12 c 0
 147 -12 51 92 51 246 c 0
 51 400 147 504 289 504 c 0
 343 504 394 483 421 450 c 1
 388 554 312 598 164 598 c 2
 140 598 l 1
 140 680 l 1
 414 680 528 562 528 277 c 0
140 246 m 0
 140 137 201 61 289 61 c 0
 377 61 437 136 437 246 c 0
 437 356 377 430 289 430 c 0
 201 430 140 355 140 246 c 0
EndSplineSet
EndChar

StartChar: uni0394
Encoding: 196 916 167
Width: 663
GlyphClass: 1
Flags: W
HStem: 0 78<89 491> 660 20G<404.176 423.382>
LayerCount: 2
Fore
SplineSet
-52 0 m 1
 418 680 l 1
 601 0 l 1
 -52 0 l 1
89 78 m 1
 491 78 l 1
 380 498 l 1
 89 78 l 1
EndSplineSet
EndChar

StartChar: product
Encoding: 308 8719 168
Width: 761
GlyphClass: 1
Flags: W
HStem: -161 21G<133 214 530 612> 587 81<214 530>
VStem: 133 81<-161 587> 530 82<-161 587>
LayerCount: 2
Fore
SplineSet
133 -161 m 1
 133 668 l 1
 612 668 l 1
 612 -161 l 1
 530 -161 l 1
 530 587 l 1
 214 587 l 1
 214 -161 l 1
 133 -161 l 1
EndSplineSet
EndChar

StartChar: pi
Encoding: 240 960 169
Width: 590
GlyphClass: 1
Flags: W
HStem: 0 75<430.469 488> 416 80<63 129 212 406 492 576>
VStem: 41 83<0 83> 338 90<44.5 194.633>
LayerCount: 2
Fore
SplineSet
437 0 m 2
 366 0 338 20 338 69 c 0
 338 82 340 98 345 125 c 2
 406 416 l 1
 212 416 l 1
 124 0 l 1
 41 0 l 1
 129 416 l 1
 46 416 l 1
 63 496 l 1
 594 496 l 1
 576 416 l 1
 492 416 l 1
 434 140 l 2
 428 104 428 104 428 101 c 0
 428 82 440 75 472 75 c 2
 504 75 l 1
 488 0 l 1
 437 0 l 2
EndSplineSet
EndChar

StartChar: hungarumlaut
Encoding: 309 733 170
Width: 394
GlyphClass: 1
Flags: W
HStem: 572 136<249 272>
VStem: 103 329
LayerCount: 2
Fore
SplineSet
250 708 m 0
 272 708 287 693 287 671 c 0
 287 648 277 638 189 580 c 2
 177 572 l 1
 103 572 l 1
 114 583 l 2
 115 584 212 689 224 699 c 0
 232 705 241 708 250 708 c 0
396 708 m 0
 417 708 432 692 432 670 c 0
 432 648 422 639 334 580 c 2
 322 572 l 1
 249 572 l 1
 264 589 l 2
 323 654 361 692 370 699 c 0
 378 705 387 708 396 708 c 0
EndSplineSet
EndChar

StartChar: tilde
Encoding: 310 732 171
Width: 420
GlyphClass: 1
Flags: W
HStem: 575 63<280.953 385.921> 617 63<167.27 282.535>
LayerCount: 2
Fore
SplineSet
424 680 m 0x40
 441 680 454 667 454 649 c 0
 454 634 439 615 412 594 c 0
 396 582 372 575 346 575 c 0x80
 284 575 279 617 217 617 c 0
 188 617 167 604 155 577 c 1
 90 577 l 1
 115 643 161 680 218 680 c 0x40
 278 680 286 638 346 638 c 0x80
 383 638 387 680 424 680 c 0x40
EndSplineSet
EndChar

StartChar: endash
Encoding: 311 8211 172
Width: 497
GlyphClass: 1
Flags: W
HStem: 208 79<40 438>
LayerCount: 2
Fore
SplineSet
40 208 m 1
 40 287 l 1
 438 287 l 1
 438 208 l 1
 40 208 l 1
EndSplineSet
EndChar

StartChar: emdash
Encoding: 312 8212 173
Width: 817
GlyphClass: 1
Flags: W
HStem: 208 79<40 758>
LayerCount: 2
Fore
SplineSet
40 208 m 1
 40 287 l 1
 758 287 l 1
 758 208 l 1
 40 208 l 1
EndSplineSet
EndChar

StartChar: trademark
Encoding: 313 8482 174
Width: 928
GlyphClass: 1
Flags: W
HStem: 292 92<592 756> 608 60<133 251 318 436>
VStem: 251 67<292 608> 473 67<292 571> 808 67<292 571>
LayerCount: 2
Fore
SplineSet
473 292 m 1
 473 668 l 1
 581 668 l 1
 674 384 l 1
 767 668 l 1
 875 668 l 1
 875 292 l 1
 808 292 l 1
 808 571 l 1
 710 292 l 1
 638 292 l 1
 540 571 l 1
 540 292 l 1
 473 292 l 1
251 292 m 1
 251 608 l 1
 133 608 l 1
 133 668 l 1
 436 668 l 1
 436 608 l 1
 318 608 l 1
 318 292 l 1
 251 292 l 1
EndSplineSet
EndChar

StartChar: Euro
Encoding: 164 8364 175
Width: 697
GlyphClass: 1
Flags: W
HStem: -12 79<294.785 473.908> 240 51<43 117.681 208 332> 376 51<72 129 238 435> 499 21G<592.5 661.621> 600 79<365.705 541.675>
VStem: 116 92<160.004 240 291 374.599>
LayerCount: 2
Fore
SplineSet
631 139 m 1
 572 40 480 -12 364 -12 c 0
 259 -12 184 32 146 117 c 0
 129 156 119 197 116 240 c 1
 4 240 l 1
 43 291 l 1
 116 291 l 1
 118 323 122 350 129 376 c 1
 33 376 l 1
 72 427 l 1
 144 427 l 1
 199 586 318 679 466 679 c 0
 582 679 660 626 688 528 c 1
 603 499 l 1
 582 564 530 600 456 600 c 0
 361 600 281 537 238 427 c 1
 474 427 l 1
 435 376 l 1
 221 376 l 1
 214 346 210 323 207 291 c 1
 370 291 l 1
 332 240 l 1
 208 240 l 1
 219 133 283 67 375 67 c 0
 456 67 510 97 556 169 c 1
 631 139 l 1
EndSplineSet
EndChar

StartChar: uni2113
Encoding: 314 8467 176
Width: 451
GlyphClass: 1
Flags: W
HStem: -12 73<179.965 292.856> 609 70<280.8 363.421>
VStem: 83 89<69.8209 185.039> 367 80<485.398 604.869>
LayerCount: 2
Fore
SplineSet
345 42 m 1
 306 9 250 -12 199 -12 c 0
 120 -12 83 20 83 88 c 2
 83 98 l 2
 83 113 85 124 98 188 c 1
 20 138 l 1
 39 227 l 1
 117 278 l 1
 166 506 l 2
 178 561 196 604 219 634 c 0
 242 664 280 679 331 679 c 0
 404 679 447 638 447 567 c 0
 447 454 375 362 198 251 c 1
 177 151 l 2
 173 131 172 121 172 113 c 0
 172 78 189 61 225 61 c 0
 254 61 284 73 321 100 c 1
 345 42 l 1
367 567 m 0
 367 595 354 609 326 609 c 0
 288 609 269 585 255 517 c 2
 218 343 l 1
 301 394 367 494 367 567 c 0
EndSplineSet
EndChar

StartChar: Lslash
Encoding: 315 321 177
Width: 572
GlyphClass: 1
Flags: W
HStem: 0 82<158 500> 484 20G<389.778 422.89> 648 20G<182.745 283>
VStem: 187 96<572 668>
LayerCount: 2
Fore
SplineSet
45 0 m 1
 102 266 l 1
 3 214 l 1
 18 287 l 1
 117 339 l 1
 187 668 l 1
 283 668 l 1
 226 396 l 1
 427 504 l 1
 412 431 l 1
 210 324 l 1
 158 82 l 1
 517 82 l 1
 500 0 l 1
 45 0 l 1
EndSplineSet
EndChar

StartChar: lslash
Encoding: 316 322 178
Width: 273
GlyphClass: 1
Flags: W
HStem: 0 75<133.378 196> 648 20G<158.767 249>
VStem: 40 92<77.0097 191.469> 163 86<582 668>
AnchorPoint: "Anchor-1" 205 668 basechar 0
AnchorPoint: "Anchor-0" 97 0 basechar 0
LayerCount: 2
Fore
SplineSet
140 0 m 2
 68 0 40 19 40 68 c 0
 40 83 42 101 47 125 c 2
 79 272 l 1
 3 232 l 1
 18 303 l 1
 94 342 l 1
 163 668 l 1
 249 668 l 1
 191 393 l 1
 291 447 l 1
 276 376 l 1
 176 323 l 1
 137 140 l 2
 132 110 132 109 132 105 c 2
 132 105 132 105 132 104 c 0
 132 83 144 75 175 75 c 2
 212 75 l 1
 196 0 l 1
 140 0 l 2
EndSplineSet
EndChar

StartChar: oslash
Encoding: 317 248 179
Width: 548
GlyphClass: 1
Flags: W
HStem: -12 74<163.734 312.217> 430 74<211.528 369.256>
VStem: 27 89<149.351 314.951> 413 90<183.618 346.797>
AnchorPoint: "Anchor-1" 321 496 basechar 0
LayerCount: 2
Fore
SplineSet
503 297 m 0
 503 125 383 -12 231 -12 c 0
 169 -12 118 7 82 43 c 1
 25 -11 l 1
 -10 26 l 1
 52 84 l 1
 35 114 27 151 27 198 c 0
 27 374 144 504 303 504 c 0
 357 504 407 485 443 451 c 1
 504 509 l 1
 539 472 l 1
 475 411 l 1
 494 379 503 342 503 297 c 0
290 430 m 0
 186 430 116 335 116 196 c 0
 116 172 117 160 121 149 c 1
 384 395 l 1
 363 419 333 430 290 430 c 0
238 62 m 0
 339 62 413 163 413 300 c 0
 413 318 411 334 407 348 c 1
 145 102 l 1
 166 75 197 62 238 62 c 0
EndSplineSet
EndChar

StartChar: Oslash
Encoding: 318 216 180
Width: 725
GlyphClass: 1
Flags: W
HStem: -12 79<238.445 421.588> 600 79<323.73 503.819>
VStem: 53 95<182.021 402.52> 594 95<264.825 496.106>
AnchorPoint: "Anchor-1" 438 668 basechar 0
LayerCount: 2
Fore
SplineSet
689 402 m 0
 689 163 529 -12 311 -12 c 0
 229 -12 163 16 118 70 c 1
 39 -4 l 1
 4 32 l 1
 89 112 l 1
 65 156 53 208 53 269 c 0
 53 506 213 679 431 679 c 0
 506 679 569 654 615 606 c 1
 693 679 l 1
 728 642 l 1
 647 566 l 1
 675 520 689 465 689 402 c 0
418 600 m 0
 264 600 148 458 148 269 c 0
 148 239 153 210 162 181 c 1
 547 542 l 1
 514 581 471 600 418 600 c 0
187 134 m 1
 219 91 268 67 324 67 c 0
 479 67 594 207 594 395 c 0
 594 436 588 471 575 498 c 1
 187 134 l 1
EndSplineSet
EndChar

StartChar: Thorn
Encoding: 319 222 181
Width: 583
GlyphClass: 1
Flags: W
HStem: 155 81<151 400.586> 438 81<211 436.703>
VStem: 13 86<-8 78> 155 86<573 659> 460 102<288.694 415.404>
LayerCount: 2
Fore
SplineSet
338 519 m 2
 489 519 562 473 562 378 c 0
 562 294 522 220 460 190 c 0
 410 167 344 155 261 155 c 2
 134 155 l 1
 99 -8 l 1
 13 -8 l 1
 155 659 l 1
 241 659 l 1
 211 519 l 1
 338 519 l 2
460 366 m 0
 460 418 423 438 329 438 c 2
 194 438 l 1
 151 236 l 1
 287 236 l 2
 406 236 460 276 460 366 c 0
EndSplineSet
EndChar

StartChar: ae
Encoding: 320 230 182
Width: 870
GlyphClass: 1
Flags: W
HStem: -12 68<116.243 258.102 504.731 651.536> 225 67<167.619 359 456 748.965> 435 69<208.26 357.383 548.241 695.497>
VStem: 6 94<72.1703 175.864> 749 88<292.224 383.506>
AnchorPoint: "Anchor-1" 458 496 basechar 0
LayerCount: 2
Fore
SplineSet
382 100 m 1
 336 29 257 -12 165 -12 c 0
 65 -12 6 36 6 118 c 0
 6 244 106 292 367 292 c 1
 373 313 377 336 377 357 c 0
 377 410 348 435 286 435 c 0
 227 435 182 407 160 358 c 1
 84 382 l 1
 119 459 191 504 280 504 c 0
 365 504 421 480 446 432 c 1
 496 480 560 504 637 504 c 0
 759 504 837 424 837 299 c 0
 837 275 834 250 828 225 c 1
 443 225 l 2
 442 222 442 220 442 211 c 2
 442 198 l 2
 442 112 491 62 576 62 c 0
 626 62 668 79 699 111 c 1
 777 87 l 1
 727 22 654 -12 565 -12 c 0
 480 -12 414 28 382 100 c 1
749 310 m 2
 749 384 701 432 625 432 c 0
 543 432 475 375 456 292 c 1
 748 292 l 2
 749 294 749 295 749 302 c 2
 749 310 l 2
100 120 m 0
 100 80 128 56 175 56 c 0
 268 57 337 121 359 224 c 1
 170 224 100 196 100 120 c 0
EndSplineSet
EndChar

StartChar: eth
Encoding: 321 240 183
Width: 569
GlyphClass: 1
Flags: W
HStem: -12 71<168.907 320.866> 370 75<188.49 347.537> 604 75<237 348.888>
VStem: 24 83<120.63 285.421> 441 86<339.571 510.169>
LayerCount: 2
Fore
SplineSet
527 383 m 0
 527 145 410 -12 232 -12 c 0
 117 -12 24 81 24 198 c 0
 24 340 129 445 270 445 c 0
 346 445 415 401 437 339 c 1
 440 356 441 376 441 400 c 0
 441 465 425 516 394 550 c 1
 301 473 l 1
 273 509 l 1
 357 579 l 1
 326 596 289 604 243 604 c 0
 236 604 228 603 221 603 c 1
 237 679 l 1
 257 679 l 2
 328 679 382 665 425 635 c 1
 478 679 l 1
 507 643 l 1
 460 605 l 1
 503 559 527 479 527 383 c 0
107 196 m 0
 107 117 164 59 242 59 c 0
 336 59 400 131 400 238 c 0
 400 318 351 370 274 370 c 0
 175 370 107 299 107 196 c 0
EndSplineSet
EndChar

StartChar: thorn
Encoding: 322 254 184
Width: 557
GlyphClass: 1
Flags: W
HStem: -161 21G<-26 64.3137> -12 72<193.318 327.599> 432 72<240.056 373.779> 648 20G<145.754 236>
VStem: -26 86<-161 -75> 150 86<582 668> 419 91<176.231 384.103>
LayerCount: 2
Fore
SplineSet
510 291 m 0
 510 115 407 -12 265 -12 c 0
 193 -12 135 29 115 94 c 1
 60 -161 l 1
 -26 -161 l 1
 150 668 l 1
 236 668 l 1
 188 438 l 1
 221 481 270 504 328 504 c 0
 441 504 510 423 510 291 c 0
141 218 m 0
 141 118 186 60 262 60 c 0
 349 60 419 163 419 292 c 0
 419 381 379 432 309 432 c 0
 217 432 141 335 141 218 c 0
EndSplineSet
EndChar

StartChar: multiply
Encoding: 323 215 185
Width: 593
GlyphClass: 1
Flags: W
HStem: 193 115<230.5 345.5>
LayerCount: 2
Fore
SplineSet
134 39 m 1
 77 97 l 1
 231 250 l 1
 77 404 l 1
 134 462 l 1
 288 308 l 1
 442 462 l 1
 499 404 l 1
 346 250 l 1
 499 97 l 1
 442 39 l 1
 288 193 l 1
 134 39 l 1
EndSplineSet
EndChar

StartChar: divide
Encoding: 324 247 186
Width: 619
GlyphClass: 1
Flags: W
HStem: 14 129<251.85 347.603> 208 81<52 548> 354 129<251.85 347.603>
VStem: 235 129<30.8503 126.253 370.397 466.15>
CounterMasks: 1 e0
LayerCount: 2
Fore
SplineSet
364 418 m 0
 364 382 336 354 300 354 c 0
 263 354 235 382 235 418 c 0
 235 454 264 483 300 483 c 0
 336 483 364 455 364 418 c 0
52 208 m 1
 52 289 l 1
 548 289 l 1
 548 208 l 1
 52 208 l 1
364 79 m 0
 364 42 336 14 300 14 c 0
 264 14 235 43 235 79 c 0
 235 114 264 143 300 143 c 0
 336 143 364 115 364 79 c 0
EndSplineSet
EndChar

StartChar: OE
Encoding: 325 338 187
Width: 1070
GlyphClass: 1
Flags: W
HStem: -12 80<240.621 421.431> 0 82<631 974> 304 80<696 944> 587 81<739 1098> 601 79<323.554 503.385>
VStem: 53 95<165.059 403.056>
LayerCount: 2
Fore
SplineSet
551 80 m 1x74
 486 18 408 -12 311 -12 c 0
 154 -12 53 98 53 269 c 0
 53 507 212 680 431 680 c 0xac
 529 680 608 636 652 557 c 1
 676 668 l 1
 1115 668 l 1
 1098 587 l 1
 739 587 l 1
 696 384 l 1
 961 384 l 1
 944 304 l 1
 678 304 l 1
 631 82 l 1
 991 82 l 1
 974 0 l 1
 534 0 l 1
 551 80 l 1x74
148 269 m 0
 148 147 217 68 324 68 c 0
 478 68 594 210 594 398 c 0
 594 521 524 601 418 601 c 0
 264 601 148 459 148 269 c 0
EndSplineSet
EndChar

StartChar: oe
Encoding: 326 339 188
Width: 910
GlyphClass: 1
Flags: W
HStem: -12 70<159.553 298.733 542.122 696.582> 226 67<497 790> 430 74<214.567 369.673 579.685 744.722>
VStem: 26 88<108.372 311.676> 412 71<191.862 225.86> 790 87<293.796 385.264>
LayerCount: 2
Fore
SplineSet
424 86 m 1
 376 22 310 -12 232 -12 c 0
 103 -12 26 66 26 196 c 0
 26 371 144 504 300 504 c 0
 379 504 432 473 467 406 c 1
 513 468 589 504 674 504 c 0
 799 504 877 426 877 302 c 0
 877 277 874 252 868 226 c 1
 484 226 l 2
 483 223 483 221 483 212 c 2
 483 200 l 2
 483 112 531 62 616 62 c 0
 668 62 710 79 739 111 c 1
 817 87 l 1
 767 23 694 -12 610 -12 c 0
 521 -12 465 18 424 86 c 1
790 312 m 2
 790 387 742 432 664 432 c 0
 582 432 514 375 497 293 c 1
 789 293 l 2
 790 295 790 296 790 303 c 2
 790 312 l 2
223 58 m 0
 324 58 412 169 412 298 c 0
 412 386 372 430 292 430 c 0
 188 430 114 334 114 199 c 0
 114 112 156 58 223 58 c 0
EndSplineSet
EndChar

StartChar: Aring
Encoding: 330 197 192
Width: 627
GlyphClass: 2
Flags: W
HStem: 0 21G<-52 67.3699 459.123 565> 146 80<184 430> 779 58<362.219 446.046>
VStem: 295 57<686.711 768.854> 456 57<686.504 769.06> 462 103<0 103>
AnchorPoint: "Anchor-2" 513 10 basechar 0
AnchorPoint: "Anchor-1" 427 837 basechar 0
AnchorPoint: "Anchor-0" 261 0 basechar 0
LayerCount: 2
Fore
SplineSet
352 728 m 0xf8
 352 699 375 677 404 677 c 0
 433 677 456 699 456 728 c 0
 456 757 433 779 404 779 c 0
 375 779 352 757 352 728 c 0xf8
184 226 m 1
 430 226 l 1
 381 573 l 1
 184 226 l 1
513 728 m 0
 513 690 494 654 462 634 c 1
 565 0 l 1
 462 0 l 1xf4
 441 146 l 1
 139 146 l 1
 56 0 l 1
 -52 0 l 1
 329 650 l 1
 307 671 295 699 295 728 c 0
 295 788 345 837 406 837 c 0
 466 837 513 789 513 728 c 0
EndSplineSet
EndChar

StartChar: Ccedilla
Encoding: 341 199 203
Width: 661
GlyphClass: 2
Flags: W
HStem: -181 41<180.532 297.194> -82 39<251.915 303.402> -12 79<306 426.63> 498 21G<555.5 625.333> 600 80<319.861 500.884>
VStem: 53 96<165.404 399.103> 304 63<-131.626 -83.6878>
AnchorPoint: "Anchor-1" 420 668 basechar 0
AnchorPoint: "Anchor-0" 257 -181 basechar 0
LayerCount: 2
Fore
SplineSet
367 -96 m 0
 367 -144 318 -181 254 -181 c 0
 229 -181 200 -175 167 -163 c 1
 190 -126 l 1
 211 -136 229 -140 247 -140 c 0
 278 -140 304 -124 304 -104 c 0
 304 -90 291 -82 269 -82 c 0
 251 -82 252 -87 234 -87 c 0
 223 -87 216 -80 216 -71 c 0
 216 -66 217 -62 221 -57 c 2
 262 -8 l 1
 130 12 53 111 53 263 c 0
 53 497 214 680 421 680 c 0
 542 680 624 627 655 528 c 1
 566 498 l 1
 545 563 489 600 411 600 c 0
 266 600 149 454 149 272 c 0
 149 149 219 67 325 67 c 0
 410 67 467 98 516 171 c 1
 595 140 l 1
 534 41 437 -12 315 -12 c 2
 306 -12 l 1
 278 -45 l 1
 287 -43 293 -43 301 -43 c 0
 343 -43 367 -63 367 -96 c 0
EndSplineSet
EndChar

StartChar: ccedilla
Encoding: 342 231 204
Width: 495
GlyphClass: 2
Flags: W
HStem: -181 41<80.5321 197.194> -82 39<151.915 203.402> -12 74<206 318.979> 430 74<218.155 366.495>
VStem: 26 92<111.141 310.438> 204 63<-131.626 -83.6878>
AnchorPoint: "Anchor-1" 301 496 basechar 0
AnchorPoint: "Anchor-0" 195 0 basechar 0
LayerCount: 2
Fore
SplineSet
267 -96 m 0
 267 -144 218 -181 154 -181 c 0
 129 -181 100 -175 67 -163 c 1
 90 -126 l 1
 111 -136 129 -140 147 -140 c 0
 178 -140 204 -124 204 -104 c 0
 204 -90 191 -82 169 -82 c 0
 151 -82 152 -87 134 -87 c 0
 123 -87 116 -80 116 -71 c 0
 116 -66 117 -62 121 -57 c 2
 164 -5 l 1
 76 16 26 87 26 192 c 0
 26 372 141 504 298 504 c 0
 387 504 449 467 483 393 c 1
 400 364 l 1
 387 404 345 430 294 430 c 0
 191 430 118 333 118 197 c 0
 118 109 160 62 241 62 c 0
 292 62 333 84 365 127 c 1
 436 99 l 1
 392 28 315 -12 222 -12 c 2
 206 -12 l 1
 178 -45 l 1
 187 -43 193 -43 201 -43 c 0
 243 -43 267 -63 267 -96 c 0
EndSplineSet
EndChar

StartChar: Eth
Encoding: 387 208 249
AltUni2: 000189.ffffffff.0 000110.ffffffff.0
Width: 710
GlyphClass: 1
Flags: W
HStem: 0 79<163 387.747> 303 80<39 114 228 351> 588 80<271 485.777>
VStem: 580 95<273.74 502.876>
LayerCount: 2
Fore
SplineSet
50 0 m 1
 114 303 l 1
 22 303 l 1
 39 383 l 1
 131 383 l 1
 192 668 l 1
 376 668 l 2
 577 668 675 585 675 414 c 0
 675 383 672 351 667 319 c 0
 633 115 477 0 235 0 c 2
 50 0 l 1
163 79 m 1
 249 79 l 2
 435 79 545 163 572 325 c 0
 577 360 580 386 580 407 c 0
 580 533 511 588 356 588 c 2
 271 588 l 1
 228 383 l 1
 368 383 l 1
 351 303 l 1
 211 303 l 1
 163 79 l 1
EndSplineSet
EndChar

StartChar: one.tf
Encoding: 389 -1 251
Width: 639
GlyphClass: 1
Flags: W
HStem: 8 77<53 232 317 459> 513 67<159 302.544> 657 20G<367.5 442>
VStem: 384 58<645.343 677>
LayerCount: 2
Fore
SplineSet
159 580 m 1
 284 580 351 609 384 677 c 1
 442 677 l 1
 317 85 l 1
 475 85 l 1
 459 8 l 1
 37 8 l 1
 53 85 l 1
 232 85 l 1
 322 513 l 1
 144 513 l 1
 159 580 l 1
EndSplineSet
Substitution2: "'pnum' Proportional Numbers lookup 13 subtable" one
Substitution2: "'aalt' Access All Alternates lookup 0 subtable" one
EndChar

StartChar: Aogonek
Encoding: 400 260 262
Width: 627
GlyphClass: 2
Flags: W
HStem: -173 57<458.434 531.083> 0 21G<-52 67.3699> 146 80<184 430> 648 20G<328.263 459.263>
VStem: 380 77<-112.457 -51.0983>
AnchorPoint: "Anchor-2" 513 10 basechar 0
AnchorPoint: "Anchor-1" 387 668 basechar 0
AnchorPoint: "Anchor-0" 261 0 basechar 0
LayerCount: 2
Fore
SplineSet
457 -89 m 0
 457 -105 474 -116 498 -116 c 0
 511 -116 526 -113 542 -107 c 1
 531 -161 l 1
 505 -169 483 -173 464 -173 c 0
 413 -173 380 -147 380 -106 c 0
 380 -60 421 -19 486 0 c 1
 462 0 l 1
 441 146 l 1
 139 146 l 1
 56 0 l 1
 -52 0 l 1
 340 668 l 1
 456 668 l 1
 565 0 l 1
 496 -25 457 -57 457 -89 c 0
184 226 m 1
 430 226 l 1
 381 573 l 1
 184 226 l 1
EndSplineSet
EndChar

StartChar: aogonek
Encoding: 401 261 263
Width: 521
GlyphClass: 2
Flags: W
HStem: -173 57<301.434 374.083> -12 69<117.834 256.314> 436 68<205.882 355.46>
VStem: 5 94<76.4346 182.08> 223 77<-112.457 -51.0983> 377 85<309.467 414.095>
AnchorPoint: "Anchor-2" 408 0 basechar 0
AnchorPoint: "Anchor-1" 311 496 basechar 0
AnchorPoint: "Anchor-0" 208 0 basechar 0
LayerCount: 2
Fore
SplineSet
300 -89 m 0
 300 -105 317 -116 341 -116 c 0
 354 -116 369 -113 385 -107 c 1
 374 -161 l 1
 348 -169 326 -173 307 -173 c 0
 256 -173 223 -147 223 -106 c 0
 223 -60 264 -19 329 0 c 1
 325 63 l 1
 278 10 227 -12 154 -12 c 0
 65 -12 5 40 5 117 c 0
 5 220 97 279 289 299 c 0
 320 302 347 305 370 308 c 1
 376 336 377 346 377 357 c 0
 377 410 346 436 285 436 c 0
 226 436 182 409 158 359 c 1
 83 382 l 1
 120 461 189 504 281 504 c 0
 401 504 462 456 462 361 c 0
 462 284 413 173 408 0 c 1
 339 -25 300 -57 300 -89 c 0
99 125 m 0
 99 83 131 57 181 57 c 0
 272 57 342 122 359 224 c 2
 362 241 l 1
 153 221 99 197 99 125 c 0
EndSplineSet
EndChar

StartChar: Eogonek
Encoding: 406 280 268
Width: 565
GlyphClass: 2
Flags: W
HStem: -173 57<331.434 404.083> 0 81<127 359 389.534 469> 304 80<192 439> 587 81<235 594>
VStem: 253 77<-112.457 -51.0983>
AnchorPoint: "Anchor-2" 438 0 basechar 0
AnchorPoint: "Anchor-1" 381 668 basechar 0
AnchorPoint: "Anchor-0" 230 0 basechar 0
LayerCount: 2
Fore
SplineSet
330 -89 m 0
 330 -105 347 -116 371 -116 c 0
 384 -116 399 -113 415 -107 c 1
 404 -161 l 1
 378 -169 356 -173 337 -173 c 0
 286 -173 253 -147 253 -106 c 0
 253 -60 294 -19 359 0 c 1
 14 0 l 1
 156 668 l 1
 611 668 l 1
 594 587 l 1
 235 587 l 1
 192 384 l 1
 457 384 l 1
 439 304 l 1
 175 304 l 1
 127 81 l 1
 486 81 l 1
 469 0 l 1
 438 0 l 1
 369 -25 330 -57 330 -89 c 0
EndSplineSet
EndChar

StartChar: eogonek
Encoding: 407 281 269
Width: 542
GlyphClass: 2
Flags: W
HStem: -163 57<230.434 303.083> 225 68<128 421.965> 432 72<214.797 374.172>
VStem: 27 88<117.109 224.07> 152 77<-102.457 -41.2475> 422 87<293.224 383.941>
AnchorPoint: "Anchor-2" 337 10 basechar 0
AnchorPoint: "Anchor-1" 321 496 basechar 0
AnchorPoint: "Anchor-0" 218 0 basechar 0
LayerCount: 2
Fore
SplineSet
115 197 m 2
 115 111 164 62 248 62 c 0
 299 62 340 78 371 111 c 1
 449 87 l 1
 411 38 357 4 298 -7 c 1
 251 -30 229 -53 229 -79 c 0
 229 -95 246 -106 270 -106 c 0
 283 -106 298 -103 314 -97 c 1
 303 -151 l 1
 277 -159 255 -163 236 -163 c 0
 185 -163 152 -137 152 -96 c 0
 152 -64 173 -33 210 -11 c 1
 96 0 27 79 27 199 c 0
 27 380 142 504 309 504 c 0
 432 504 509 426 509 300 c 0
 509 276 506 251 500 225 c 1
 116 225 l 2
 115 222 115 220 115 211 c 2
 115 197 l 2
422 310 m 2
 422 385 374 432 297 432 c 0
 215 432 146 376 128 293 c 1
 421 293 l 2
 422 295 422 296 422 302 c 2
 422 310 l 2
EndSplineSet
EndChar

StartChar: Iogonek
Encoding: 414 302 276
Width: 414
GlyphClass: 2
Flags: W
HStem: -173 57<89.4345 162.083> 0 75<20 113 209 285> 593 75<146 223 318 412>
VStem: 11 77<-112.457 -51.0983>
AnchorPoint: "Anchor-2" 196 0 basechar 0
AnchorPoint: "Anchor-1" 287 668 basechar 0
AnchorPoint: "Anchor-0" 150 0 basechar 0
LayerCount: 2
Fore
SplineSet
88 -89 m 0
 88 -105 105 -116 129 -116 c 0
 142 -116 157 -113 173 -107 c 1
 162 -161 l 1
 136 -169 114 -173 95 -173 c 0
 44 -173 11 -147 11 -106 c 0
 11 -60 52 -19 117 0 c 1
 4 0 l 1
 20 75 l 1
 113 75 l 1
 223 593 l 1
 130 593 l 1
 146 668 l 1
 427 668 l 1
 412 593 l 1
 318 593 l 1
 209 75 l 1
 301 75 l 1
 285 0 l 1
 196 0 l 1
 127 -25 88 -57 88 -89 c 0
EndSplineSet
EndChar

StartChar: iogonek
Encoding: 415 303 277
Width: 270
GlyphClass: 2
Flags: W
HStem: -173 57<25.4345 98.0832> 428 68<71 137> 591 125<182.2 276.707>
VStem: -53 77<-112.457 -51.0983> 167 125<606.2 700.707>
AnchorPoint: "Anchor-2" 132 0 basechar 0
AnchorPoint: "Anchor-1" 203 691 basechar 0
AnchorPoint: "Anchor-0" 71 0 basechar 0
LayerCount: 2
Fore
SplineSet
24 -89 m 0
 24 -105 41 -116 65 -116 c 0
 78 -116 93 -113 109 -107 c 1
 98 -161 l 1
 72 -169 50 -173 31 -173 c 0
 -20 -173 -53 -147 -53 -106 c 0
 -53 -60 -12 -19 53 0 c 1
 46 0 l 1
 137 428 l 1
 57 428 l 1
 71 496 l 1
 237 496 l 1
 132 0 l 1
 63 -25 24 -57 24 -89 c 0
292 653 m 0
 292 619 264 591 229 591 c 0
 195 591 167 619 167 653 c 0
 167 688 195 716 229 716 c 0
 264 716 292 688 292 653 c 0
EndSplineSet
EndChar

StartChar: uni0326
Encoding: 420 806 282
Width: 0
GlyphClass: 4
Flags: W
HStem: -241 36<-41 -0.979603>
VStem: 37 67<-175.822 -80.7731>
AnchorPoint: "Anchor-3" 1 -251 basemark 0
AnchorPoint: "Anchor-3" 73 0 mark 0
AnchorPoint: "Anchor-0" 73 0 mark 0
LayerCount: 2
Fore
SplineSet
65 -46 m 1
 90 -62 104 -87 104 -116 c 0
 104 -186 40 -241 -41 -241 c 1
 -66 -205 l 1
 -57 -205 l 2
 -5 -205 37 -169 37 -124 c 0
 37 -101 26 -84 5 -75 c 1
 65 -46 l 1
EndSplineSet
EndChar

StartChar: Uogonek
Encoding: 429 370 291
Width: 693
GlyphClass: 2
Flags: W
HStem: -173 57<245.434 318.083> 648 20G<152.722 253 596.707 697>
VStem: 61 98<108.208 318.938> 157 96<572 668> 167 77<-112.457 -51.2842> 601 96<572 668>
AnchorPoint: "Anchor-2" 352 0 basechar 0
AnchorPoint: "Anchor-1" 415 668 basechar 0
AnchorPoint: "Anchor-0" 294 0 basechar 0
LayerCount: 2
Fore
SplineSet
244 -89 m 0xec
 244 -105 261 -116 285 -116 c 0
 298 -116 313 -113 329 -107 c 1
 318 -161 l 1
 292 -169 270 -173 251 -173 c 0
 200 -173 167 -147 167 -106 c 0
 167 -68 197 -31 245 -10 c 1
 120 1 61 61 61 175 c 0xec
 61 206 66 242 74 280 c 2
 157 668 l 1
 253 668 l 1xd4
 169 272 l 2
 162 243 159 214 159 186 c 0
 159 104 199 69 291 69 c 0
 422 69 484 125 516 272 c 2
 601 668 l 1
 697 668 l 1
 614 280 l 2
 573 85 490 1 326 -11 c 1
 271 -35 244 -61 244 -89 c 0xec
EndSplineSet
EndChar

StartChar: uogonek
Encoding: 430 371 292
Width: 540
GlyphClass: 2
Flags: W
HStem: -173 57<301.434 374.083> -11 73<142.836 271.419> 476 20G<106.768 197 423.692 513>
VStem: 40 86<78.4047 263.312> 111 86<410 496> 223 77<-112.457 -50.5431> 428 85<411 496>
AnchorPoint: "Anchor-2" 408 0 basechar 0
AnchorPoint: "Anchor-1" 308 496 basechar 0
AnchorPoint: "Anchor-0" 217 0 basechar 0
LayerCount: 2
Fore
SplineSet
300 -89 m 0xf6
 300 -105 317 -116 341 -116 c 0
 354 -116 369 -113 385 -107 c 1
 374 -161 l 1
 348 -169 326 -173 307 -173 c 0
 256 -173 223 -147 223 -106 c 0
 223 -57 264 -20 343 2 c 1
 337 70 l 1
 293 12 246 -11 173 -11 c 0
 124 -11 90 2 70 29 c 0
 50 56 40 89 40 128 c 0xf6
 40 152 43 177 49 203 c 2
 111 496 l 1
 197 496 l 1xee
 135 205 l 2
 129 178 126 155 126 137 c 0
 126 86 151 62 203 62 c 0
 289 62 347 121 372 236 c 2
 428 496 l 1
 513 496 l 1
 408 0 l 1
 339 -25 300 -57 300 -89 c 0xf6
EndSplineSet
EndChar

StartChar: Hbar
Encoding: 439 294 301
Width: 710
GlyphClass: 1
Flags: W
HStem: 0 21G<23 123.276 469 569.246> 304 80<201 533> 504 79<72 130 243 576 689 745> 648 20G<160.765 261 606.765 707>
VStem: 23 96<0 96> 469 96<0 96>
LayerCount: 2
Fore
SplineSet
23 0 m 1
 130 504 l 1
 55 504 l 1
 72 583 l 1
 147 583 l 1
 165 668 l 1
 261 668 l 1
 243 583 l 1
 593 583 l 1
 611 668 l 1
 707 668 l 1
 689 583 l 1
 762 583 l 1
 745 504 l 1
 672 504 l 1
 565 0 l 1
 469 0 l 1
 533 304 l 1
 184 304 l 1
 119 0 l 1
 23 0 l 1
201 384 m 1
 551 384 l 1
 576 504 l 1
 226 504 l 1
 201 384 l 1
EndSplineSet
EndChar

StartChar: hbar
Encoding: 440 295 302
Width: 580
GlyphClass: 1
Flags: W
HStem: 0 21G<39 129.202 365 454.306> 430 74<282.366 415.205> 548 67<88 155 256 403> 648 20G<176.849 267>
VStem: 39 86<0 86> 365 85<0 85> 433 88<230.688 413.219>
LayerCount: 2
Fore
SplineSet
216 427 m 1xfa
 261 482 309 504 387 504 c 0
 475 504 521 457 521 366 c 0xfa
 521 343 518 317 512 288 c 2
 450 0 l 1
 365 0 l 1xfc
 424 280 l 2
 430 309 433 333 433 352 c 0
 433 407 409 430 350 430 c 0
 263 430 203 370 179 257 c 2
 125 0 l 1
 39 0 l 1
 155 548 l 1
 74 548 l 1
 88 615 l 1
 170 615 l 1
 181 668 l 1
 267 668 l 1
 256 615 l 1
 417 615 l 1
 403 548 l 1
 242 548 l 1
 216 427 l 1xfa
EndSplineSet
EndChar

StartChar: dcroat
Encoding: 456 273 318
Width: 602
GlyphClass: 1
Flags: W
HStem: -12 72<161.925 297.433> 0 21G<359.361 442.5> 432 72<210.122 348.686> 548 67<308 456 556 623> 648 20G<476.849 567>
VStem: 27 90<110.444 314.786> 398 44<0 281>
LayerCount: 2
Fore
SplineSet
356 61 m 1x7e
 317 11 269 -12 205 -12 c 0xbe
 97 -12 27 70 27 198 c 0
 27 373 132 504 271 504 c 0
 345 504 404 463 424 398 c 1
 456 548 l 1
 294 548 l 1
 308 615 l 1
 470 615 l 1
 481 668 l 1
 567 668 l 1
 564 654 l 2
 562 644 559 631 556 615 c 1
 637 615 l 1
 623 548 l 1
 541 548 l 1
 535 523 458 148 452 114 c 0
 446 84 443 48 442 0 c 1
 361 0 l 1
 356 61 l 1x7e
280 432 m 0
 187 432 117 332 117 199 c 0
 117 114 159 60 226 60 c 0
 324 60 398 155 398 281 c 0
 398 377 355 432 280 432 c 0
EndSplineSet
EndChar

StartChar: Scedilla
Encoding: 461 350 323
Width: 609
GlyphClass: 2
Flags: W
HStem: -181 41<162.532 279.194> -82 39<233.915 285.402> -12 79<288 383.528> 601 79<231.165 412.826>
VStem: 87 95<441.147 557.626> 286 63<-131.626 -83.6878> 446 98<122.824 243.872>
AnchorPoint: "Anchor-1" 359 668 basechar 0
AnchorPoint: "Anchor-0" 239 -181 basechar 0
LayerCount: 2
Fore
SplineSet
349 -96 m 0
 349 -144 300 -181 236 -181 c 0
 211 -181 182 -175 149 -163 c 1
 172 -126 l 1
 193 -136 211 -140 229 -140 c 0
 260 -140 286 -124 286 -104 c 0
 286 -90 273 -82 251 -82 c 0
 233 -82 234 -87 216 -87 c 0
 205 -87 198 -80 198 -71 c 0
 198 -66 199 -62 203 -57 c 2
 242 -9 l 1
 142 4 66 61 36 147 c 1
 127 172 l 1
 150 107 213 67 293 67 c 0
 382 67 446 116 446 184 c 0
 446 245 413 271 287 307 c 0
 135 351 87 396 87 495 c 0
 87 604 184 680 324 680 c 0
 434 680 527 631 561 555 c 1
 469 529 l 1
 447 572 387 601 320 601 c 0
 236 601 182 561 182 498 c 0
 182 440 213 418 353 376 c 0
 495 334 544 288 544 197 c 0
 544 78 435 -11 288 -12 c 1
 260 -45 l 1
 269 -43 275 -43 283 -43 c 0
 325 -43 349 -63 349 -96 c 0
EndSplineSet
Substitution2: "'locl' Localized Forms in Latin lookup 8 subtable" uni0218
Substitution2: "'aalt' Access All Alternates lookup 0 subtable" uni0218
EndChar

StartChar: scedilla
Encoding: 462 351 324
Width: 479
GlyphClass: 2
Flags: W
HStem: -181 41<92.5321 209.194> -82 39<163.915 215.402> -12 68<218 289.575> 435 69<157.473 317.153>
VStem: 49 85<325.435 412.12> 216 63<-131.626 -83.6878> 325 88<87.2655 181.202>
AnchorPoint: "Anchor-1" 260 496 basechar 0
AnchorPoint: "Anchor-0" 169 -181 basechar 0
LayerCount: 2
Fore
SplineSet
279 -96 m 0
 279 -144 230 -181 166 -181 c 0
 141 -181 112 -175 79 -163 c 1
 102 -126 l 1
 123 -136 141 -140 159 -140 c 0
 190 -140 216 -124 216 -104 c 0
 216 -90 203 -82 181 -82 c 0
 163 -82 164 -87 146 -87 c 0
 135 -87 128 -80 128 -71 c 0
 128 -66 129 -62 133 -57 c 2
 172 -10 l 1
 91 -1 39 39 10 113 c 1
 96 142 l 1
 105 90 153 56 216 56 c 0
 279 56 325 90 325 137 c 0
 325 177 301 194 207 220 c 0
 87 253 49 288 49 365 c 0
 49 447 128 504 240 504 c 0
 333 504 410 463 431 402 c 1
 351 374 l 1
 339 410 291 435 233 435 c 0
 173 435 134 409 134 370 c 0
 134 329 154 316 263 286 c 0
 373 255 413 217 413 143 c 0
 413 50 337 -10 218 -12 c 1
 190 -45 l 1
 199 -43 205 -43 213 -43 c 0
 255 -43 279 -63 279 -96 c 0
EndSplineSet
Substitution2: "'locl' Localized Forms in Latin lookup 8 subtable" uni0219
Substitution2: "'aalt' Access All Alternates lookup 0 subtable" uni0219
EndChar

StartChar: uni0162
Encoding: 467 354 329
Width: 558
GlyphClass: 2
Flags: W
HStem: -181 41<103.532 220.194> -82 39<174.915 226.402> 587 81<90 293 389 611>
VStem: 227 63<-131.626 -83.6878>
AnchorPoint: "Anchor-1" 356 668 basechar 0
AnchorPoint: "Anchor-0" 146 -251 basechar 0
LayerCount: 2
Fore
SplineSet
290 -96 m 0
 290 -144 241 -181 177 -181 c 0
 152 -181 123 -175 90 -163 c 1
 113 -126 l 1
 134 -136 152 -140 170 -140 c 0
 201 -140 227 -124 227 -104 c 0
 227 -90 214 -82 192 -82 c 0
 174 -82 175 -87 157 -87 c 0
 146 -87 139 -80 139 -71 c 0
 139 -66 140 -62 144 -57 c 2
 191 -0 l 1
 169 0 l 1
 293 587 l 1
 73 587 l 1
 90 668 l 1
 628 668 l 1
 611 587 l 1
 389 587 l 1
 266 0 l 1
 239 0 l 1
 201 -45 l 1
 210 -43 216 -43 224 -43 c 0
 266 -43 290 -63 290 -96 c 0
EndSplineSet
Substitution2: "'locl' Localized Forms in Latin lookup 8 subtable" uni021A
Substitution2: "'aalt' Access All Alternates lookup 0 subtable" uni021A
EndChar

StartChar: acutecomb.case
Encoding: 470 -1 332
Width: 0
GlyphClass: 4
Flags: W
HStem: 744 120
VStem: 135 198
AnchorPoint: "Anchor-4" 251 864 basemark 0
AnchorPoint: "Anchor-4" 185 668 mark 0
AnchorPoint: "Anchor-1" 185 668 mark 0
LayerCount: 2
Fore
SplineSet
297 864 m 0
 317 864 333 848 333 828 c 0
 333 805 320 794 263 767 c 0
 252 762 242 756 233 752 c 2
 216 744 l 1
 135 744 l 1
 140 749 257 844 271 855 c 0
 280 861 289 864 297 864 c 0
EndSplineSet
EndChar

StartChar: caron.alt
Encoding: 473 -1 335
Width: 206
GlyphClass: 1
Flags: W
HStem: 495 183
VStem: 155 74<603.5 672.461>
LayerCount: 2
Fore
SplineSet
197 678 m 0
 216 678 229 666 229 648 c 0
 229 643 225 633 217 619 c 2
 145 495 l 1
 96 495 l 1
 97 497 149 638 155 649 c 0
 161 665 179 678 197 678 c 0
EndSplineSet
EndChar

StartChar: uni2074
Encoding: 483 8308 345
Width: 397
GlyphClass: 1
Flags: W
HStem: 489 57<169 269 351 404>
VStem: 251 70<403 473>
LayerCount: 2
Fore
SplineSet
251 403 m 1
 269 489 l 1
 76 489 l 1
 88 543 l 1
 324 778 l 1
 401 778 l 1
 351 546 l 1
 416 546 l 1
 404 489 l 1
 339 489 l 1
 321 403 l 1
 251 403 l 1
169 546 m 1
 281 546 l 1
 313 692 l 1
 169 546 l 1
EndSplineSet
EndChar

StartChar: gravecomb.case
Encoding: 486 -1 348
Width: 0
GlyphClass: 4
Flags: W
HStem: 744 120<219.058 239.599>
VStem: 168 153
AnchorPoint: "Anchor-4" 261 864 basemark 0
AnchorPoint: "Anchor-4" 239 668 mark 0
AnchorPoint: "Anchor-1" 239 668 mark 0
LayerCount: 2
Fore
SplineSet
168 828 m 0
 168 848 184 864 204 864 c 0
 217 864 227 859 236 848 c 0
 314 753 314 753 321 744 c 1
 248 744 l 1
 177 797 168 806 168 828 c 0
EndSplineSet
EndChar

StartChar: dotlessi
Encoding: 489 305 351
Width: 248
GlyphClass: 2
Flags: W
HStem: 0 21G<46 136.234> 428 68<71 137>
VStem: 46 86<0 86>
AnchorPoint: "Anchor-2" 132 0 basechar 0
AnchorPoint: "Anchor-1" 167 496 basechar 0
AnchorPoint: "Anchor-0" 71 0 basechar 0
LayerCount: 2
Fore
SplineSet
46 0 m 1
 137 428 l 1
 57 428 l 1
 71 496 l 1
 237 496 l 1
 132 0 l 1
 46 0 l 1
EndSplineSet
EndChar

StartChar: uni00B5
Encoding: 494 181 356
Width: 554
GlyphClass: 2
Flags: W
HStem: -162 21G<-28 62.0404> -11 73<142.535 268.216> 476 20G<106.775 197 423.692 513>
VStem: -28 86<-162 -76> 111 86<410 496> 428 85<411 496>
AnchorPoint: "Anchor-2" 435 10 basechar 0
LayerCount: 2
Fore
SplineSet
173 -11 m 0
 129 -11 100 0 81 24 c 1
 82 14 82 7 82 -22 c 0
 82 -39 81 -52 78 -63 c 2
 58 -162 l 1
 -28 -162 l 1
 111 496 l 1
 197 496 l 1
 135 205 l 2
 129 178 126 156 126 138 c 0
 126 86 150 62 203 62 c 0
 289 62 347 121 372 236 c 2
 428 496 l 1
 513 496 l 1
 433 122 l 2
 431 113 430 106 430 100 c 0
 430 82 439 75 462 75 c 0
 479 75 480 78 494 80 c 1
 478 7 l 1
 448 1 439 0 417 0 c 0
 372 0 345 27 342 73 c 1
 300 18 242 -11 173 -11 c 0
EndSplineSet
EndChar

StartChar: uni0163
Encoding: 500 355 363
Width: 324
GlyphClass: 2
Flags: W
HStem: -181 41<-5.46789 111.194> -82 39<65.915 117.402> 0 75<151.453 222> 428 68<63 132 232 313>
VStem: 60 91<53 193.57> 118 63<-131.626 -83.6878> 173 86<534 620>
AnchorPoint: "Anchor-1" 215 496 basechar 0
AnchorPoint: "Anchor-0" 37 -251 basechar 0
LayerCount: 2
Fore
SplineSet
181 -96 m 0xf4
 181 -144 132 -181 68 -181 c 0
 43 -181 14 -175 -19 -163 c 1
 4 -126 l 1
 25 -136 43 -140 61 -140 c 0
 92 -140 118 -124 118 -104 c 0xf4
 118 -90 105 -82 83 -82 c 0
 65 -82 66 -87 48 -87 c 0
 37 -87 30 -80 30 -71 c 0
 30 -66 31 -62 35 -57 c 2
 91 10 l 1
 70 20 60 38 60 68 c 0
 60 83 63 104 69 135 c 2
 132 428 l 1
 49 428 l 1
 63 496 l 1
 146 496 l 1
 173 620 l 1
 259 620 l 1
 232 496 l 1
 327 496 l 1
 313 428 l 1
 218 428 l 1
 160 159 l 2
 153 128 151 114 151 104 c 0xfa
 151 81 160 75 194 75 c 2
 238 75 l 1
 222 0 l 1
 160 0 l 2
 141 0 137 0 131 1 c 1
 92 -45 l 1
 101 -43 107 -43 115 -43 c 0
 157 -43 181 -63 181 -96 c 0xf4
EndSplineSet
Substitution2: "'locl' Localized Forms in Latin lookup 8 subtable" uni021B
Substitution2: "'aalt' Access All Alternates lookup 0 subtable" uni021B
EndChar

StartChar: zero.alt1
Encoding: 504 -1 367
Width: 654
Flags: W
HStem: -12 75<222.614 380.588> 605 75<291.169 449.641>
VStem: 66 92<174.904 420.934> 514 92<247.634 500.141>
LayerCount: 2
Fore
SplineSet
66 251 m 0
 66 511 188 680 378 680 c 0
 527 680 606 589 606 417 c 0
 606 157 483 -12 293 -12 c 0
 146 -12 66 80 66 251 c 0
371 605 m 0
 242 605 158 468 158 258 c 0
 158 225 161 196 167 172 c 1
 462 574 l 1
 439 595 409 605 371 605 c 0
302 63 m 0
 430 63 514 201 514 412 c 0
 514 447 510 478 503 503 c 1
 205 98 l 1
 229 75 262 63 302 63 c 0
EndSplineSet
Substitution2: "'zero' Slashed Zero lookup 0-1" zero
Substitution2: "'aalt' Access All Alternates lookup 0 subtable" zero
Substitution2: "'tnum' Tabular Numbers lookup 14 subtable" zero
EndChar

StartChar: copyleft
Encoding: 505 127279 368
Width: 814
Flags: W
HStem: -12 62<312.267 519.733> 150 59<349.659 472.532> 473 58<354.346 473.779> 618 62<312.267 519.733>
VStem: 70 62<230.267 437.733> 512 76<251.238 430.968> 700 62<230.267 437.733>
LayerCount: 2
Fore
SplineSet
762 334 m 0
 762 143 607 -12 416 -12 c 0
 225 -12 70 143 70 334 c 0
 70 525 225 680 416 680 c 0
 607 680 762 525 762 334 c 0
132 334 m 0
 132 176 258 50 416 50 c 0
 574 50 700 176 700 334 c 0
 700 492 574 618 416 618 c 0
 258 618 132 492 132 334 c 0
588 342 m 0
 588 220 524 150 414 150 c 0
 347 150 294 178 265 230 c 1
 331 254 l 1
 346 225 375 209 414 209 c 0
 476 209 512 258 512 342 c 0
 512 425 476 473 414 473 c 0
 378 473 351 457 334 424 c 1
 267 449 l 1
 295 502 346 531 412 531 c 0
 522 531 588 460 588 342 c 0
EndSplineSet
EndChar

StartChar: f_i
Encoding: 506 64257 369
Width: 527
Flags: W
HStem: 0 21G<37 127.252 303 393.234> 428 68<59 128 228 394> 591 125<439.2 533.707> 635 71<265.596 359>
VStem: 37 86<0 86> 303 86<0 86> 424 125<606.2 700.707>
LayerCount: 2
Fore
SplineSet
303 0 m 1xde
 394 428 l 1
 214 428 l 1
 123 0 l 1
 37 0 l 1
 128 428 l 1
 44 428 l 1
 59 496 l 1
 142 496 l 1
 154 549 l 2
 183 677 214 706 323 706 c 2
 374 706 l 1
 359 635 l 1
 335 635 l 2
 275 635 256 620 243 563 c 2
 228 496 l 1
 494 496 l 1
 389 0 l 1
 303 0 l 1xde
549 653 m 0
 549 619 521 591 486 591 c 0
 452 591 424 619 424 653 c 0
 424 688 452 716 486 716 c 0xee
 521 716 549 688 549 653 c 0
EndSplineSet
LCarets2: 1 302
Ligature2: "'liga' Standard Ligatures lookup 0-1" f i
EndChar

StartChar: f_f
Encoding: 507 64256 370
Width: 586
Flags: W
HStem: 0 21G<37 127.252 303 393.252> 428 68<59 128 228 394 494 581> 635 71<265.596 359 531.596 625>
VStem: 37 86<0 86> 303 86<0 86>
LayerCount: 2
Fore
SplineSet
303 0 m 1
 394 428 l 1
 214 428 l 1
 123 0 l 1
 37 0 l 1
 128 428 l 1
 44 428 l 1
 59 496 l 1
 142 496 l 1
 154 549 l 2
 183 677 214 706 323 706 c 2
 374 706 l 1
 359 635 l 1
 335 635 l 2
 275 635 256 620 243 563 c 2
 228 496 l 1
 408 496 l 1
 420 549 l 2
 449 677 480 706 589 706 c 2
 640 706 l 1
 625 635 l 1
 601 635 l 2
 541 635 522 620 509 563 c 2
 494 496 l 1
 596 496 l 1
 581 428 l 1
 480 428 l 1
 389 0 l 1
 303 0 l 1
EndSplineSet
LCarets2: 1 302
Ligature2: "'liga' Standard Ligatures lookup 0-1" f f
EndChar

StartChar: f_f_i
Encoding: 508 64259 371
Width: 793
Flags: W
HStem: 0 21G<37 127.252 303 393.252 569 659.234> 428 68<59 128 228 394 494 660> 591 125<705.2 799.707> 635 71<265.596 359 531.596 625>
VStem: 37 86<0 86> 303 86<0 86> 569 86<0 86> 690 125<606.2 700.707>
LayerCount: 2
Fore
SplineSet
569 0 m 1xdf
 660 428 l 1
 480 428 l 1
 389 0 l 1
 303 0 l 1
 394 428 l 1
 214 428 l 1
 123 0 l 1
 37 0 l 1
 128 428 l 1
 44 428 l 1
 59 496 l 1
 142 496 l 1
 154 549 l 2
 183 677 214 706 323 706 c 2
 374 706 l 1
 359 635 l 1
 335 635 l 2
 275 635 256 620 243 563 c 2
 228 496 l 1
 408 496 l 1
 420 549 l 2
 449 677 480 706 589 706 c 2
 640 706 l 1
 625 635 l 1
 601 635 l 2
 541 635 522 620 509 563 c 2
 494 496 l 1
 760 496 l 1
 655 0 l 1
 569 0 l 1xdf
815 653 m 0
 815 619 787 591 752 591 c 0
 718 591 690 619 690 653 c 0
 690 688 718 716 752 716 c 0xef
 787 716 815 688 815 653 c 0
EndSplineSet
LCarets2: 2 304 568
Ligature2: "'liga' Standard Ligatures lookup 0-1" f f i
EndChar

StartChar: f_f_l
Encoding: 510 64260 373
Width: 845
Flags: W
HStem: 0 21G<37 127.252 303 393.252> 0 75<705.381 768> 428 68<59 128 228 394 494 581> 635 71<265.596 359 531.596 625> 648 20G<730.764 821>
VStem: 37 86<0 86> 303 86<0 86> 613 91<42.5 191.188> 735 86<582 668>
LayerCount: 2
Fore
SplineSet
704 104 m 0x6f80
 704 83 716 75 747 75 c 2
 784 75 l 1
 768 0 l 1
 712 0 l 2
 640 0 613 18 613 67 c 0
 613 86 615 105 620 125 c 2
 735 668 l 1
 821 668 l 1
 709 140 l 2
 704 105 704 105 704 104 c 0x6f80
EndSplineSet
Refer: 370 64256 S 1 0 0 1 0 0 2
LCarets2: 2 302 592
Ligature2: "'liga' Standard Ligatures lookup 0-1" f f l
EndChar

StartChar: dong
Encoding: 511 8363 374
Width: 602
Flags: W
HStem: -129 67<-13 476> -12 72<161.925 297.433> 0 21G<359.361 442.5> 432 72<210.122 348.686> 548 67<308 456 556 623> 648 20G<476.849 567>
VStem: 27 90<110.444 314.786> 398 44<0 281>
LayerCount: 2
Fore
SplineSet
-27 -129 m 1x9f
 -13 -62 l 1
 490 -62 l 1
 476 -129 l 1
 -27 -129 l 1x9f
EndSplineSet
Refer: 318 273 N 1 0 0 1 0 0 2
EndChar

StartChar: uni0237
Encoding: 547 567 410
Width: 258
Flags: W
HStem: -161 75<-138 -3.55972> 476 20G<128.735 219>
VStem: 133 86<410 496>
AnchorPoint: "Anchor-1" 176 496 basechar 0
LayerCount: 2
Fore
SplineSet
-85 -161 m 0
 -104 -161 -111 -161 -154 -159 c 1
 -138 -86 l 1
 -106 -86 l 2
 -6 -86 13 -72 30 13 c 2
 133 496 l 1
 219 496 l 1
 115 8 l 2
 86 -134 54 -161 -85 -161 c 0
EndSplineSet
EndChar

StartChar: uni2010
Encoding: 562 8208 425
Width: 332
Flags: W
HStem: 208 81<49 283>
VStem: 31 270
LayerCount: 2
Fore
SplineSet
31 208 m 1
 49 289 l 1
 301 289 l 1
 283 208 l 1
 31 208 l 1
EndSplineSet
EndChar

StartChar: Ldot
Encoding: 569 319 432
Width: 541
HStem: 0 81<127 469> 250 128<315.386 413.521> 648 20G<151.749 252>
VStem: 156 96<572 668> 300 129<266.047 361.603>
LayerCount: 2
Fore
SplineSet
429 314 m 0
 429 277 401 250 364 250 c 0
 328 250 300 278 300 314 c 0
 300 350 328 378 364 378 c 0
 401 378 429 350 429 314 c 0
EndSplineSet
Refer: 26 76 N 1 0 0 1 0 0 3
EndChar

StartChar: ldot
Encoding: 570 320 433
Width: 370
Flags: W
HStem: 0 75<119.364 182> 250 129<247.747 343.15> 648 20G<144.764 235>
VStem: 27 91<42.5681 191.188> 149 86<582 668> 231 129<266.85 362.253>
LayerCount: 2
Fore
SplineSet
360 315 m 0xf4
 360 279 331 250 295 250 c 0
 260 250 231 279 231 315 c 0
 231 350 260 379 295 379 c 0
 331 379 360 350 360 315 c 0xf4
EndSplineSet
Refer: 52 108 N 1 0 0 1 0 0 2
EndChar

StartChar: uni030C.alt
Encoding: 592 -1 455
Width: 0
GlyphClass: 1
Flags: W
HStem: 495 183<48.6463 69>
VStem: 46 74<575.156 674.698>
LayerCount: 2
Fore
SplineSet
82 678 m 0
 104 678 120 662 120 640 c 0
 120 631 115 623 111 609 c 2
 69 495 l 1
 20 495 l 1
 22 506 38 626 46 649 c 0
 50 666 65 678 82 678 c 0
EndSplineSet
EndChar

StartChar: uni031B
Encoding: 593 795 456
Width: 324
Flags: W
HStem: 427 74<0 187.871>
VStem: 205 79<517.199 616>
LayerCount: 2
Fore
SplineSet
134 501 m 2
 181 501 205 527 205 578 c 2
 205 616 l 1
 284 616 l 1
 284 575 l 2
 284 476 237 427 144 427 c 2
 0 427 l 1
 0 501 l 1
 134 501 l 2
EndSplineSet
EndChar

StartChar: Ohorn
Encoding: 594 416 457
Width: 727
Flags: W
HStem: -12 79<219.149 400.609> 591 79<311.06 491.352 608 686.345>
VStem: 34 98<161.177 389.191> 579 96<268.977 497.872> 713 79<695.877 765>
AnchorPoint: "Anchor-0" 311 0 basechar 0
AnchorPoint: "Anchor-1" 438 658 basechar 0
AnchorPoint: "Anchor-2" 589 10 basechar 0
LayerCount: 2
Fore
SplineSet
402 591 m 0
 252 591 132 446 132 264 c 0
 132 143 200 67 309 67 c 0
 458 67 579 213 579 395 c 0
 579 516 511 591 402 591 c 0
675 405 m 0
 675 174 506 -12 295 -12 c 0
 137 -12 34 92 34 252 c 0
 34 484 204 670 416 670 c 2
 629 670 l 2
 676 670 704 696 713 747 c 2
 717 765 l 1
 796 765 l 1
 792 744 l 2
 775 649 713 600 608 596 c 1
 652 550 675 484 675 405 c 0
EndSplineSet
EndChar

StartChar: ohorn
Encoding: 595 417 458
Width: 570
Flags: W
HStem: -12 74<168.299 309.905> 420 74<226.843 369.293 463 533.972>
VStem: 25 91<114.986 298.63> 419 92<184.749 367.234> 560 78<520.328 589>
AnchorPoint: "Anchor-0" 221 0 basechar 0
AnchorPoint: "Anchor-1" 321 486 basechar 0
AnchorPoint: "Anchor-2" 448 10 basechar 0
LayerCount: 2
Fore
SplineSet
25 187 m 0
 25 356 154 494 312 494 c 2
 475 494 l 2
 522 494 551 520 560 571 c 2
 563 589 l 1
 642 589 l 1
 638 568 l 2
 622 475 563 426 463 421 c 1
 492 398 511 350 511 301 c 0
 511 127 383 -12 223 -12 c 0
 103 -12 25 66 25 187 c 0
300 420 m 0
 200 420 116 318 116 198 c 0
 116 115 164 62 237 62 c 0
 335 62 419 164 419 283 c 0
 419 365 372 420 300 420 c 0
EndSplineSet
EndChar

StartChar: Uhorn
Encoding: 596 431 459
Width: 710
Flags: W
HStem: -12 81<195.724 392.1> 648 20G<123.452 221>
VStem: 49 95<120.032 349.094> 127 94<574 668> 728 79<702.958 775>
AnchorPoint: "Anchor-0" 294 0 basechar 0
AnchorPoint: "Anchor-1" 415 668 basechar 0
AnchorPoint: "Anchor-2" 360 0 basechar 0
LayerCount: 2
Fore
SplineSet
596 279 m 2xe8
 560 77 462 -12 276 -12 c 0
 120 -12 49 50 49 185 c 0xe8
 49 213 52 244 58 279 c 2
 127 668 l 1
 221 668 l 1xd8
 151 272 l 2
 146 243 144 222 144 204 c 0
 144 112 190 69 290 69 c 0
 411 69 476 132 501 272 c 2
 571 668 l 1
 634 668 l 2
 687 668 718 698 728 757 c 2
 731 775 l 1
 810 775 l 1
 807 754 l 2
 789 654 740 604 651 594 c 1
 596 279 l 2xe8
EndSplineSet
EndChar

StartChar: uhorn
Encoding: 597 432 460
Width: 564
Flags: W
HStem: -12 74<150.89 269.594> 0 21G<348.778 417.551> 477 20G<100.467 188>
VStem: 42 88<84.8507 215.79> 104 84<413 497> 351 63<0 39.4211> 571 74<527.166 599>
AnchorPoint: "Anchor-0" 217 0 basechar 0
AnchorPoint: "Anchor-1" 308 496 basechar 0
AnchorPoint: "Anchor-2" 414 0 basechar 0
LayerCount: 2
Fore
SplineSet
214 62 m 0xb6
 296 62 352 120 370 224 c 2
 418 497 l 1
 485 497 l 2
 532 497 561 525 571 581 c 2
 574 599 l 1
 649 599 l 1
 645 578 l 2
 627 477 582 434 490 428 c 1
 414 0 l 1
 351 0 l 1x76
 343 72 l 1
 300 16 244 -12 175 -12 c 0
 86 -12 42 32 42 119 c 0xb6
 42 137 44 158 48 180 c 2
 104 497 l 1
 188 497 l 1xae
 136 200 l 2
 130 160 130 159 130 149 c 0
 130 148 130 148 130 148 c 2
 130 89 157 62 214 62 c 0xb6
EndSplineSet
EndChar

StartChar: dotbelowcomb
Encoding: 682 803 545
Width: 205
Flags: W
HStem: -207 129<2.74728 97.2527>
VStem: -14 128<-190.15 -93.3863>
AnchorPoint: "Anchor-3" 50 -207 basemark 0
AnchorPoint: "Anchor-3" 90 0 mark 0
AnchorPoint: "Anchor-0" 90 0 mark 0
LayerCount: 2
Fore
SplineSet
114 -142 m 0
 114 -178 85 -207 50 -207 c 0
 15 -207 -14 -178 -14 -142 c 0
 -14 -106 14 -78 50 -78 c 0
 86 -78 114 -106 114 -142 c 0
EndSplineSet
EndChar

StartChar: hookabovecomb
Encoding: 683 777 546
Width: 157
Flags: W
HStem: 678 21G<67.3333 72> 686 58<73.0542 144.311>
VStem: 146 73<612.547 682.075>
AnchorPoint: "Anchor-4" 156 744 basemark 0
AnchorPoint: "Anchor-4" 67 496 mark 0
AnchorPoint: "Anchor-1" 67 496 mark 0
LayerCount: 2
Fore
SplineSet
75 571 m 1x60
 131 612 146 629 146 654 c 0
 146 674 129 686 103 686 c 0x60
 93 686 80 683 64 678 c 1xa0
 73 732 l 1
 97 740 120 744 140 744 c 0
 187 744 219 716 219 676 c 0
 219 636 201 607 152 571 c 1
 75 571 l 1x60
EndSplineSet
EndChar

StartChar: longs
Encoding: 684 383 547
Width: 320
Flags: W
HStem: 0 21G<37 127.263> 428 68<59 128> 635 71<264.591 359>
VStem: 37 86<0 86>
AnchorPoint: "Anchor-1" 170 668 basechar 0
LayerCount: 2
Fore
SplineSet
37 0 m 1
 128 428 l 1
 44 428 l 1
 59 496 l 1
 142 496 l 1
 154 549 l 2
 185 680 210 703 323 706 c 2
 374 706 l 1
 359 635 l 1
 335 635 l 2
 275 635 257 621 243 563 c 2
 123 0 l 1
 37 0 l 1
EndSplineSet
EndChar

StartChar: uniFFFD
Encoding: 685 65533 548
Width: 523
Flags: W
HStem: 0 21<77 447> 680 20<76 447>
VStem: 48 21<49 650> 455 20<47 652>
LayerCount: 2
Fore
SplineSet
48 0 m 1
 48 700 l 1
 475 700 l 1
 475 0 l 1
 48 0 l 1
261 371 m 1
 447 680 l 1
 76 680 l 1
 261 371 l 1
455 47 m 1
 455 652 l 1
 274 350 l 1
 455 47 l 1
69 49 m 1
 249 350 l 1
 69 650 l 1
 69 49 l 1
77 21 m 1
 447 21 l 1
 262 329 l 1
 77 21 l 1
EndSplineSet
EndChar

StartChar: uni0256
Encoding: 714 598 577
Width: 574
Flags: W
HStem: -161 75<424.381 507> -12 72<161.925 297.433> 432 72<210.122 348.686> 648 20G<476.778 567>
VStem: 27 90<110.444 314.786> 332 91<-83.9903 43.5938> 481 86<582 668>
AnchorPoint: "Anchor-1" 271 496 basechar 0
AnchorPoint: "Anchor-0" 225 0 basechar 0
LayerCount: 2
Fore
SplineSet
280 432 m 0
 187 432 117 332 117 199 c 0
 117 114 159 60 226 60 c 0
 324 60 398 155 398 281 c 0
 398 377 355 432 280 432 c 0
428 -21 m 2
 425 -35 423 -52 423 -57 c 0
 423 -78 435 -86 466 -86 c 2
 523 -86 l 1
 507 -161 l 1
 431 -161 l 2
 359 -161 332 -143 332 -94 c 0
 332 -93 332 -92 332 -91 c 0
 332 -77 333 -73 356 61 c 1
 317 11 269 -12 205 -12 c 0
 97 -12 27 70 27 198 c 0
 27 373 132 504 271 504 c 0
 345 504 404 463 424 398 c 1
 481 668 l 1
 567 668 l 1
 428 -21 l 2
EndSplineSet
EndChar

StartChar: Eng
Encoding: 716 330 579
Width: 693
Flags: W
HStem: -161 74<352 442.655> 0 21G<14 114.271> 648 20G<151.749 299.481 596.749 697>
VStem: 14 96<0 96> 601 96<572 668>
AnchorPoint: "Anchor-1" 436 668 basechar 0
AnchorPoint: "Anchor-0" 264 0 basechar 0
LayerCount: 2
Fore
SplineSet
456 -24 m 2
 461 0 l 1
 418 0 l 1
 233 576 l 1
 110 0 l 1
 14 0 l 1
 156 668 l 1
 293 668 l 1
 479 94 l 1
 601 668 l 1
 697 668 l 1
 547 -37 l 2
 526 -137 499 -161 403 -161 c 2
 336 -161 l 1
 352 -87 l 1
 391 -87 l 2
 434 -87 445 -77 456 -24 c 2
EndSplineSet
EndChar

StartChar: eng
Encoding: 717 331 580
Width: 550
Flags: W
HStem: -161 74<225 313.138> 0 21G<8 98.2023> 430 74<251.63 384.205> 476 20G<108.766 178.739>
VStem: 8 86<0 86> 113 64<462.933 496> 402 88<231.227 412.951>
AnchorPoint: "Anchor-1" 328 496 basechar 0
AnchorPoint: "Anchor-0" 212 0 basechar 0
LayerCount: 2
Fore
SplineSet
481 287 m 0xee
 465 213 435 79 410 -37 c 0
 389 -137 362 -161 266 -161 c 2
 209 -161 l 1
 225 -87 l 1
 264 -87 l 2
 307 -87 318 -76 329 -23 c 2
 393 279 l 2
 399 309 402 333 402 352 c 0
 402 407 378 430 319 430 c 0xee
 232 430 172 370 148 257 c 2
 94 0 l 1
 8 0 l 1
 113 496 l 1
 177 496 l 1xde
 183 427 l 1
 224 479 280 504 356 504 c 0
 444 504 490 457 490 365 c 0
 490 342 487 316 481 287 c 0xee
EndSplineSet
EndChar

StartChar: uni019D
Encoding: 718 413 581
Width: 693
Flags: W
HStem: -161 74<-95 -4.3446> 0 21G<411.576 559.251> 648 20G<151.751 299.481 596.749 697>
VStem: 601 96<572 668>
AnchorPoint: "Anchor-1" 436 668 basechar 0
AnchorPoint: "Anchor-0" 264 0 basechar 0
LayerCount: 2
Fore
SplineSet
233 576 m 1
 100 -37 l 2
 78 -138 51 -161 -44 -161 c 2
 -111 -161 l 1
 -95 -87 l 1
 -56 -87 l 2
 -13 -87 -2 -77 9 -24 c 2
 156 668 l 1
 293 668 l 1
 479 94 l 1
 601 668 l 1
 697 668 l 1
 555 0 l 1
 418 0 l 1
 233 576 l 1
EndSplineSet
EndChar

StartChar: uni019E
Encoding: 719 414 582
Width: 550
Flags: W
HStem: -161 21G<298 387.375> 0 21G<8 98.2023> 430 74<251.63 384.205> 476 20G<108.766 178.739>
VStem: 8 86<0 86> 113 64<462.933 496> 298 85<-161 -76> 402 88<230.938 412.951>
AnchorPoint: "Anchor-1" 328 496 basechar 0
AnchorPoint: "Anchor-0" 212 0 basechar 0
LayerCount: 2
Fore
SplineSet
319 430 m 0xef
 232 430 172 370 148 257 c 2
 94 0 l 1
 8 0 l 1
 113 496 l 1
 177 496 l 1xdf
 183 427 l 1
 224 479 280 504 356 504 c 0
 444 504 490 457 490 365 c 0
 490 342 487 316 481 287 c 2
 383 -161 l 1
 298 -161 l 1
 393 279 l 2
 399 309 402 333 402 352 c 0
 402 407 378 430 319 430 c 0xef
EndSplineSet
EndChar

StartChar: uni0272
Encoding: 720 626 583
Width: 550
Flags: W
HStem: -161 74<-104 -15.8621> 0 21G<334 423.321> 430 74<251.63 384.205> 476 20G<108.645 178.739>
VStem: 113 64<463.85 496> 334 85<0 85> 402 88<229.875 412.951>
AnchorPoint: "Anchor-1" 328 496 basechar 0
LayerCount: 2
Fore
SplineSet
148 257 m 2xea
 81 -37 l 2
 60 -137 33 -161 -63 -161 c 2
 -120 -161 l 1
 -104 -87 l 1
 -65 -87 l 2
 -22 -87 -11 -76 0 -23 c 2
 113 496 l 1
 177 496 l 1xda
 183 427 l 1
 224 479 280 504 356 504 c 0
 444 504 490 457 490 365 c 0xea
 490 342 487 316 481 287 c 2
 419 0 l 1
 334 0 l 1xec
 393 279 l 2
 399 309 402 333 402 352 c 0
 402 407 378 430 319 430 c 0
 232 430 172 370 148 257 c 2xea
EndSplineSet
EndChar

StartChar: uni01EA
Encoding: 721 490 584
Width: 728
HStem: -173 57<300.434 373.083> -12 79<241.214 297> 600 80<321.853 506.246>
VStem: 55 95<163.292 403.129> 222 77<-112.457 -51.3496> 596 95<267.945 503.218>
LayerCount: 2
Fore
SplineSet
150 269 m 0
 150 147 219 67 325 67 c 0
 480 67 596 209 596 399 c 0
 596 521 527 600 420 600 c 0
 264 600 150 460 150 269 c 0
299 -89 m 0
 299 -105 316 -116 340 -116 c 0
 353 -116 368 -113 384 -107 c 1
 373 -161 l 1
 347 -169 325 -173 306 -173 c 0
 255 -173 222 -147 222 -106 c 0
 222 -69 250 -34 297 -12 c 1
 150 -5 55 105 55 268 c 0
 55 508 213 680 433 680 c 0
 588 680 691 569 691 401 c 0
 691 203 577 42 405 -1 c 1
 336 -26 299 -57 299 -89 c 0
EndSplineSet
EndChar

StartChar: uni01EB
Encoding: 722 491 585
Width: 547
HStem: -173 57<200.434 273.083> 430 74<211.045 367.781>
VStem: 27 88<112.42 316.097> 122 77<-112.457 -50.8595> 413 89<184.067 384.903>
LayerCount: 2
Fore
SplineSet
115 198 m 0
 115 112 160 62 237 62 c 0
 339 62 413 162 413 301 c 0
 413 387 372 430 290 430 c 0
 186 430 115 335 115 198 c 0
199 -89 m 0
 199 -105 216 -116 240 -116 c 0
 253 -116 268 -113 284 -107 c 1
 273 -161 l 1
 247 -169 225 -173 206 -173 c 0
 155 -173 122 -147 122 -106 c 0
 122 -68 151 -32 200 -10 c 1
 91 2 27 79 27 199 c 0
 27 377 142 504 303 504 c 0
 423 504 502 423 502 298 c 0
 502 155 423 35 304 -1 c 1
 237 -26 199 -58 199 -89 c 0
EndSplineSet
EndChar

StartChar: uni0197
Encoding: 723 407 586
Width: 414
Flags: W
HStem: 0 75<20 113 209 285> 297 68<81 160 270 348> 593 75<146 223 318 412>
AnchorPoint: "Anchor-2" 196 0 basechar 0
AnchorPoint: "Anchor-1" 287 668 basechar 0
AnchorPoint: "Anchor-0" 150 0 basechar 0
LayerCount: 2
Fore
SplineSet
67 297 m 1
 81 365 l 1
 175 365 l 1
 223 593 l 1
 130 593 l 1
 146 668 l 1
 427 668 l 1
 412 593 l 1
 318 593 l 1
 270 365 l 1
 363 365 l 1
 348 297 l 1
 256 297 l 1
 209 75 l 1
 301 75 l 1
 285 0 l 1
 4 0 l 1
 20 75 l 1
 113 75 l 1
 160 297 l 1
 67 297 l 1
EndSplineSet
EndChar

StartChar: uni0268
Encoding: 724 616 587
Width: 270
Flags: W
HStem: 0 21G<46 136.206> 252 68<34 100 200 267> 428 68<71 137> 591 125<182.2 276.707>
VStem: 46 86<0 86> 167 125<606.2 700.707>
AnchorPoint: "Anchor-2" 132 0 basechar 0
LayerCount: 2
Fore
SplineSet
20 252 m 1
 34 320 l 1
 114 320 l 1
 137 428 l 1
 57 428 l 1
 71 496 l 1
 237 496 l 1
 200 320 l 1
 282 320 l 1
 267 252 l 1
 185 252 l 1
 132 0 l 1
 46 0 l 1
 100 252 l 1
 20 252 l 1
292 653 m 0
 292 619 264 591 229 591 c 0
 195 591 167 619 167 653 c 0
 167 688 195 716 229 716 c 0
 264 716 292 688 292 653 c 0
EndSplineSet
EndChar

StartChar: Tbar
Encoding: 725 358 588
Width: 558
Flags: W
HStem: 0 21G<169 270.175> 297 68<153 232 342 423> 587 81<90 293 389 611>
VStem: 169 97<0 97>
AnchorPoint: "Anchor-1" 356 668 basechar 0
AnchorPoint: "Anchor-0" 218 0 basechar 0
LayerCount: 2
Fore
SplineSet
139 297 m 1
 153 365 l 1
 246 365 l 1
 293 587 l 1
 73 587 l 1
 90 668 l 1
 628 668 l 1
 611 587 l 1
 389 587 l 1
 342 365 l 1
 438 365 l 1
 423 297 l 1
 328 297 l 1
 266 0 l 1
 169 0 l 1
 232 297 l 1
 139 297 l 1
EndSplineSet
EndChar

StartChar: tbar
Encoding: 726 359 589
Width: 324
Flags: W
HStem: 0 75<153.114 222> 252 68<26 94 195 275> 428 68<63 132 232 313>
VStem: 60 91<42.5 195.328> 173 86<534 620>
AnchorPoint: "Anchor-1" 213 620 basechar 0
AnchorPoint: "Anchor-0" 109 0 basechar 0
LayerCount: 2
Fore
SplineSet
12 252 m 1
 26 320 l 1
 109 320 l 1
 132 428 l 1
 49 428 l 1
 63 496 l 1
 146 496 l 1
 173 620 l 1
 259 620 l 1
 232 496 l 1
 327 496 l 1
 313 428 l 1
 218 428 l 1
 195 320 l 1
 290 320 l 1
 275 252 l 1
 180 252 l 1
 160 159 l 2
 153 128 151 114 151 104 c 0
 151 81 160 75 194 75 c 2
 238 75 l 1
 222 0 l 1
 160 0 l 2
 85 0 60 17 60 68 c 0
 60 83 63 104 69 135 c 2
 94 252 l 1
 12 252 l 1
EndSplineSet
EndChar

StartChar: kgreenlandic
Encoding: 234 312 590
AltUni2: 0003ba.ffffffff.0
Width: 487
Flags: W
VStem: 7 86<0 86> 112.438 85.7373<410.263 496>
AnchorPoint: "Anchor-1" 279 496 basechar 0
AnchorPoint: "Anchor-0" 221 0 basechar 0
LayerCount: 2
Fore
SplineSet
112.4375 496 m 1
 7 0 l 1
 93 0 l 1
 128 166 l 1
 202 232 l 1
 321 0 l 1
 415 0 l 1
 266 289 l 1
 500 496 l 1
 388 496 l 1
 153 285 l 1
 198.174804688 496 l 1
 112.4375 496 l 1
EndSplineSet
EndChar

StartChar: eta
Encoding: 231 951 591
Width: 550
Flags: W
HStem: -161 21G<298 387.375> 0 21G<8 98.2023> 430 74<251.63 384.205> 476 20G<108.766 178.739>
VStem: 8 86<0 86> 113 64<462.933 496> 298 85<-161 -76> 402 88<230.938 412.951>
AnchorPoint: "Anchor-1" 328 496 basechar 0
AnchorPoint: "Anchor-0" 212 0 basechar 0
LayerCount: 2
Fore
SplineSet
319 430 m 0xef
 232 430 172 370 148 257 c 2
 94 0 l 1
 8 0 l 1
 113 496 l 1
 177 496 l 1xdf
 183 427 l 1
 224 479 280 504 356 504 c 0
 444 504 490 457 490 365 c 0
 490 342 487 316 481 287 c 2
 383 -161 l 1
 298 -161 l 1
 393 279 l 2
 399 309 402 333 402 352 c 0
 402 407 378 430 319 430 c 0xef
EndSplineSet
EndChar

StartChar: lambda
Encoding: 235 955 592
Width: 497
Flags: HW
HStem: 0 74<418.194 461> 582 74<86 163.767>
AnchorPoint: "Anchor-1" 160 0 basechar 0
AnchorPoint: "Anchor-0" 271 496 basechar 0
LayerCount: 2
Fore
SplineSet
272 98 m 2
 279 31 311 0 373 0 c 2
 412 0 l 1
 428 74 l 1
 407 74 l 2
 375 74 363 89 356 141 c 2
 308 517 l 2
 293 632 269 656 165 656 c 2
 122 656 l 1
 106 582 l 1
 140 582 l 2
 212 582 225 570 230 496 c 1
 -55 0 l 1
 38 0 l 1
 238 420 l 1
 272 98 l 2
EndSplineSet
EndChar

StartChar: Lambda
Encoding: 203 923 593
Width: 627
Flags: W
HStem: 0 21G<-52 67.3438 459.173 565> 648 20G<328.263 459.263>
VStem: 462 103<0 103>
AnchorPoint: "Anchor-2" 565 0 basechar 0
AnchorPoint: "Anchor-1" 387 668 basechar 0
AnchorPoint: "Anchor-0" 261 0 basechar 0
LayerCount: 2
Fore
SplineSet
381 573 m 1
 56 0 l 1
 -52 0 l 1
 340 668 l 1
 456 668 l 1
 565 0 l 1
 462 0 l 1
 381 573 l 1
EndSplineSet
EndChar

StartChar: Sigma
Encoding: 211 931 594
Width: 543
Flags: W
HStem: 0 81<86 449> 587 81<194 574>
LayerCount: 2
Fore
SplineSet
-32 0 m 1
 -15 81 l 1
 275 334 l 1
 93 587 l 1
 110 668 l 1
 591 668 l 1
 574 587 l 1
 194 587 l 1
 375 334 l 1
 86 81 l 1
 466 81 l 1
 449 0 l 1
 -32 0 l 1
EndSplineSet
EndChar

StartChar: Pi
Encoding: 208 928 595
Width: 631
Flags: W
HStem: 0 21G<14 99.2589 411 497.251> 587 81<220 536>
VStem: 14 81<0 81> 156 479<189 668> 411 82<0 82>
LayerCount: 2
Fore
SplineSet
14 0 m 1xe8
 156 668 l 1
 635 668 l 1xf0
 493 0 l 1
 411 0 l 1
 536 587 l 1
 220 587 l 1
 95 0 l 1
 14 0 l 1xe8
EndSplineSet
EndChar

StartChar: Xi
Encoding: 206 926 596
Width: 563
Flags: W
HStem: 0 81<31 467> 303 81<152 475>
AnchorPoint: "Anchor-2" 301 0 basechar 0
AnchorPoint: "Anchor-1" 215 0 basechar 0
AnchorPoint: "Anchor-0" 357 668 basechar 0
LayerCount: 2
Fore
SplineSet
592 587 m 1
 609 668 l 1
 156 668 l 1
 139 587 l 1
 592 587 l 1
484 81 m 1
 467 0 l 1
 14 0 l 1
 31 81 l 1
 484 81 l 1
134 303 m 1
 152 384 l 1
 493 384 l 1
 475 303 l 1
 134 303 l 1
EndSplineSet
EndChar

StartChar: Gamma
Encoding: 195 915 599
Width: 483
Flags: W
VStem: 5 81<0 81>
LayerCount: 2
Fore
SplineSet
544 668 m 17
 147 668 l 1
 5 0 l 1
 86 0 l 1
 211 587 l 1
 527 587 l 1
 544 668 l 17
EndSplineSet
EndChar

StartChar: iota
Encoding: 233 953 600
Width: 223
Flags: W
HStem: 0 74<119.117 163> 476 20G<110.753 199>
VStem: 27 90<39.5 182.438> 115 84<412 496>
AnchorPoint: "Anchor-0" 84 0 basechar 0
AnchorPoint: "Anchor-1" 162 496 basechar 0
LayerCount: 2
Fore
SplineSet
123 138 m 2xd0
 119 121 117 110 117 102 c 0
 117 81 127 74 160 74 c 2
 179 74 l 1
 163 0 l 1
 126 0 l 2
 51 0 27 16 27 63 c 0xe0
 27 78 30 98 36 124 c 2
 115 496 l 1
 199 496 l 1
 123 138 l 2xd0
EndSplineSet
EndChar

StartChar: alpha
Encoding: 225 945 601
Width: 547
Flags: W
HStem: -12 72<163.591 302.786> 0 74<464.949 518> 433 72<209.05 345.172> 476 20G<468.923 543>
VStem: 28 90<109.37 318.714> 396 66<101 281>
LayerCount: 2
Fore
SplineSet
207 -12 m 0x8c
 97.5209677846 -12 28 69.560911926 28 198 c 0
 28 374.936218646 130.949507716 505 271 505 c 0xac
 345.168696115 505 408.645494664 470.484490789 431 418 c 1
 482 496 l 1
 543 496 l 1
 467 139 l 2
 463.00245048 117.679735893 462 110.061112245 462 101 c 0
 462 79.8926826426 471.166395222 74 504 74 c 2
 533 74 l 1
 518 0 l 1
 471 0 l 2x5c
 404.993333115 0 385.999596054 16.0059581972 382 75 c 1
 343.168691905 18.2465497079 282.327930999 -12 207 -12 c 0x8c
118 198 m 0
 118 109.815699136 159.152099287 60 232 60 c 256
 322.267118225 60 396 159.359554099 396 281 c 0
 396 377.133376096 351.894770602 433 276 433 c 256
 185.953186641 433 118 331.930386958 118 198 c 0
EndSplineSet
EndChar

StartChar: beta
Encoding: 226 946 603
Width: 597
Flags: HW
HStem: -161 21G<76 160> -12 74<198.677 405.316> 330 76<279 384.572> 611 69<225.824 392.098>
VStem: 76 84<-161 32 90.4496 539.938> 435 85<451.743 570.958> 469 90<123.062 271.966>
LayerCount: 2
Fore
SplineSet
579 552 m 0xfa
 579 475 528 408 445 376 c 1
 516 357 551 314 551 247 c 0xfc
 551 96 427 -12 253 -12 c 0
 192 -12 148 2 112 32 c 1
 71 -161 l 1
 -13 -161 l 1
 113 433 l 2
 147 595 246 680 401 680 c 4
 510 680 579 630 579 552 c 0xfa
316 406 m 2
 419 406 491 458 491 532 c 0xfa
 491 581 451 611 386 611 c 0
 285 611 222 552 197 433 c 2
 127 104 l 1
 162 75 206 62 269 62 c 0
 381 62 459 131 459 229 c 0
 459 296 407 330 306 330 c 2
 294 330 l 1
 310 406 l 1
 316 406 l 2
EndSplineSet
EndChar

StartChar: gamma
Encoding: 227 947 604
Width: 473
Flags: HW
HStem: -161 274<86 438> 428 67<0 68>
VStem: 223 78<-161 0> 381 92<403 495>
AnchorPoint: "Anchor-1" 224 0 basechar 0
AnchorPoint: "Anchor-0" 334 496 basechar 0
LayerCount: 2
Fore
SplineSet
55 428 m 1
 70 495 l 1
 207 495 l 1
 248 113 l 1
 451 495 l 1
 543 495 l 1
 266 0 l 1
 231 -161 l 1
 153 -161 l 1
 188 0 l 1
 123 428 l 1
 55 428 l 1
EndSplineSet
EndChar

StartChar: delta
Encoding: 228 948 605
Width: 552
Flags: HW
HStem: -12 74<202.179 350.007> 582 74<237 424>
VStem: 38 90<145.313 348.511> 424 90<144.886 347.741>
AnchorPoint: "Anchor-2" 287 0 basechar 0
AnchorPoint: "Anchor-1" 218 0 basechar 0
LayerCount: 2
Back
SplineSet
502 298 m 4
 502 123 384 -12 230 -12 c 4
 103 -12 27 67 27 199 c 4
 27 377 142 504 303 504 c 4
 423 504 502 423 502 298 c 4
115 198 m 4
 115 112 160 62 237 62 c 4
 339 62 413 162 413 301 c 4
 413 387 372 430 290 430 c 4
 186 430 115 335 115 198 c 4
EndSplineSet
Fore
SplineSet
299 430 m 0
 195 430 116 319 116 197 c 0
 116 111 160 62 231 62 c 0
 335 62 414 172 414 301 c 0
 414 381 370 430 299 430 c 0
502 298 m 0
 502 134 380 -12 215 -12 c 0
 98 -12 26 61 26 202 c 0
 26 342 132 487 282 503 c 1
 183 582 l 1
 199 656 l 1
 495 656 l 1
 479 582 l 1
 292 582 l 1
 425.818359375 466.775390625 l 5
 475 432 502 369 502 298 c 0
EndSplineSet
EndChar

StartChar: epsilon
Encoding: 229 949 606
Width: 419
Flags: HW
HStem: -12 69<147.161 301.618> 227 60<151.81 275> 436 68<150.305 295.705>
VStem: 30 84<88.6541 199.125> 39 84<314.615 410.023>
AnchorPoint: "Anchor-0" 262 516 basechar 0
LayerCount: 2
Fore
SplineSet
5 112 m 0xf0
 5 177 46 234 109 257 c 5
 79 271 62 303 62 340 c 0
 62 428 154 504 260 504 c 4
 346 504 403 474 421 419 c 5
 355 381 l 5
 353 410 308 436 260 436 c 4
 196 436 146 397 146 347 c 0xe8
 146 310 183 287 245 287 c 6
 284 287 l 5
 271 227 l 5
 228 227 l 6
 150 227 104 199 92 144 c 4
 91 138 90 132 90 126 c 0
 90 84 125 57 176 57 c 4
 237 57 274 74 302 115 c 5
 353 77 l 5
 312 19 240 -12 150 -12 c 4
 64 -12 5 39 5 112 c 0xf0
EndSplineSet
EndChar

StartChar: zeta
Encoding: 230 950 607
Width: 449
Flags: HW
HStem: 582 74<50 326>
VStem: 34 84<155.447 325.806> 342 75<-129 -39.4235>
AnchorPoint: "Anchor-1" 215 0 basechar 0
AnchorPoint: "Anchor-0" 326 496 basechar 0
LayerCount: 2
Fore
SplineSet
241 62 m 4
 320 34 350 5 350 -44 c 0
 350 -55 348 -67 345 -80 c 2
 332 -142 l 1
 260 -129 l 1
 264 -110 l 2
 268 -91 270 -80 270 -70 c 0
 270 -40 254 -29 185 -9 c 0
 82 20 20 89 20 173 c 0
 20 185 21 198 24 210 c 0
 58 371 141 454 395 582 c 1
 119 582 l 1
 135 656 l 1
 506 656 l 1
 490 582 l 1
 242 447 137 350 112 231 c 0
 109 219 109 208 109 197 c 0
 109 136 151 94 241 62 c 4
EndSplineSet
EndChar

StartChar: theta
Encoding: 232 952 608
Width: 552
Flags: HW
HStem: -12 74<204.814 347.186> 305 73<129 423> 626 74<208.214 343.786>
VStem: 38 91<177.415 305 378 507.792> 423 91<176.979 305 378 508.228>
AnchorPoint: "Anchor-2" 282 0 basechar 0
AnchorPoint: "Anchor-1" 203 0 basechar 0
LayerCount: 2
Fore
SplineSet
529 478 m 0
 529 211 379 -12 200 -12 c 0
 85 -12 22 67 22 208 c 0
 22 473 174 700 352 700 c 0
 466 700 529 620 529 478 c 0
121 305 m 1
 114 266 110 231 110 202 c 0
 110 108 145 62 216 62 c 0
 309 62 374 141 415 305 c 1
 121 305 l 1
430 378 m 1
 437 418 441 453 441 483 c 0
 441 578 406 626 336 626 c 0
 244 626 177 543 136 378 c 1
 430 378 l 1
EndSplineSet
EndChar

StartChar: nu
Encoding: 237 957 609
Width: 444
Flags: HW
HStem: 0 21G<112.097 215.411> 476 20G<43 132.435 378.016 487>
VStem: 43 87<409 496>
LayerCount: 2
Fore
SplineSet
115 0 m 1
 43 496 l 1
 130 496 l 1
 177 110 l 1
 389 496 l 1
 487 496 l 1
 204 0 l 1
 115 0 l 1
EndSplineSet
EndChar

StartChar: xi
Encoding: 238 958 610
Width: 483
Flags: HW
HStem: 330 76<252.998 356> 592 69<375 444> 611 69<242.49 442.72>
VStem: 76 90<121.217 273.298> 115 85<451.301 571.143> 393 75<-129 -39.188>
AnchorPoint: "Anchor-1" 213 0 basechar 0
AnchorPoint: "Anchor-0" 323 496 basechar 0
LayerCount: 2
Fore
SplineSet
146 160 m 0
 146 19 398 97 398 -44 c 0
 398 -57 397 -68 394 -80 c 2
 381 -142 l 1
 308 -129 l 1
 312 -110 l 2
 316 -92 318 -81 318 -71 c 0
 318 -36 299 -23 233 -12 c 0
 112 7 55 57 55 144 c 0
 55 261 125 349 238 376 c 1
 188 399 164 435 164 483 c 0
 164 598 267 680 410 680 c 0xac
 459 680 503 673 527 661 c 1
 513 592 l 1xcc
 487 603 440 611 397 611 c 0
 313 611 249 558 249 489 c 0
 249 435 297 406 385 406 c 1
 369 330 l 1
 235 330 170 290 150 195 c 0
 147 182 146 171 146 160 c 0
527 661 m 1025xc4
513 592 m 1025
EndSplineSet
EndChar

StartChar: sigma1
Encoding: 242 962 611
Width: 497
Flags: HW
HStem: 430 74<200.04 346.018>
VStem: 38 91<146.53 350.472> 354 75<-110 -38.9595>
AnchorPoint: "Anchor-1" 215 0 basechar 0
AnchorPoint: "Anchor-0" 315 496 basechar 0
LayerCount: 2
Back
SplineSet
436 99 m 1
 392 28 315 -12 222 -12 c 0
 99 -12 26 64 26 192 c 0
 26 372 141 504 298 504 c 0
 387 504 449 467 483 393 c 1
 400 364 l 1
 387 404 345 430 294 430 c 0
 191 430 118 333 118 197 c 0
 118 109 160 62 241 62 c 0
 292 62 333 84 365 127 c 1
 436 99 l 1
EndSplineSet
Fore
SplineSet
304 504 m 0
 138 504 26 354 26 200 c 0
 26 76 75.8565186458 23.4858871443 204 -12 c 0
 269 -30 280 -39 280 -71 c 0
 280 -81 278 -94 275 -110 c 2
 271 -129 l 1
 343 -142 l 1
 357 -80 l 2
 360 -68 360 -57 360 -47 c 0
 360 2 336.748608171 21.3338635537 230 62 c 0
 146 94 118 125 118 201 c 0
 118 320 195 430 298 430 c 0
 348 430 387 405 400 364 c 1
 483 393 l 5
 461 463 384 504 304 504 c 0
EndSplineSet
EndChar

StartChar: sigma
Encoding: 243 963 612
Width: 552
Flags: HW
HStem: -12 74<202.993 349.193> 414 82<407 566> 422 74<203.123 348.877>
VStem: 38 90<143.835 336.383> 424 90<143.629 333.746>
AnchorPoint: "Anchor-2" 304 0 basechar 0
AnchorPoint: "Anchor-1" 225 0 basechar 0
AnchorPoint: "Anchor-0" 328 488 basechar 0
LayerCount: 2
Fore
SplineSet
603 414 m 1029xd8
519 290 m 0
 519 130 380 -12 222 -12 c 0
 105 -12 30 62 30 176 c 0
 30 348 169 496 330 496 c 2
 620 496 l 5xb8
 603 414 l 5
 444 414 l 1
 496 383 519 343 519 290 c 0
314 422 m 0
 213 422 122 312 122 190 c 0
 122 112 168 62 238 62 c 0
 341 62 429 168 429 292 c 0
 429 372 385 422 314 422 c 0
EndSplineSet
EndChar

StartChar: tau
Encoding: 244 964 613
Width: 332
Flags: HW
HStem: 0 74<212.381 259>
VStem: 124 84<78.5552 139>
LayerCount: 2
Fore
SplineSet
55 414 m 17
 159 414 l 1
 98 124 l 2
 92 98 89 78 89 63 c 0
 89 16 113 0 188 0 c 2
 239 0 l 1
 255 74 l 1
 222 74 l 2
 189 74 179 80 179 101 c 0
 179 110 181 121 185 139 c 2
 243 414 l 1
 347 414 l 1
 365 496 l 1
 73 496 l 1
 55 414 l 17
EndSplineSet
EndChar

StartChar: upsilon
Encoding: 245 965 614
Width: 534
Flags: HW
HStem: -12 71<196.176 337.824> 476 20G<68 152 382 466>
VStem: 68 84<107.991 496> 382 84<105.188 496>
AnchorPoint: "Anchor-2" 298 0 basechar 0
AnchorPoint: "Anchor-1" 216 0 basechar 0
AnchorPoint: "Anchor-0" 321 496 basechar 0
LayerCount: 2
Fore
SplineSet
453 180 m 2xe8
 429 65 332 -12 213 -12 c 0
 115 -12 50 48 50 136 c 0xe8
 50 150 52 165 55 180 c 2
 122 496 l 1
 206 496 l 1xd8
 143 200 l 2
 139 181 137 163 137 148 c 0
 137 89 168 59 228 59 c 0
 304 59 353 107 373 200 c 2
 436 496 l 1
 520 496 l 1
 453 180 l 2xe8
EndSplineSet
EndChar

StartChar: phi
Encoding: 246 966 615
Width: 592
Flags: HW
HStem: -161 21G<258 334> -10 75<203.176 258 334 389.136> 427 75<203.176 258 334 389.136> 647 20G<258 334>
VStem: 38 90<145.735 346.265> 258 76<-161 -7.5003 65 427 499.5 667> 464 90<145.454 346.546>
LayerCount: 2
Fore
SplineSet
346 667 m 1
 422 667 l 1
 387 502 l 1
 498 491 561 424 561 317 c 0
 561 295 558 271 553 246 c 0
 522 99 420 4 278 -10 c 1
 246 -161 l 1
 170 -161 l 1
 202 -10 l 1
 91 2 29 69 29 176 c 0
 29 348 147 485 311 502 c 1
 346 667 l 1
295 427 m 1
 193 409 120 310 120 190 c 0
 120 121 154 77 218 65 c 1
 295 427 l 1
294 65 m 1
 396 83 469 182 469 302 c 0
 469 371 435 415 371 427 c 1
 294 65 l 1
EndSplineSet
EndChar

StartChar: psi
Encoding: 248 968 616
Width: 690
Flags: HW
HStem: -161 21G<303 387> -11 72<224.013 303 387 466.341> 476 20G<76 160 530 614> 647 20G<303 387>
VStem: 76 84<127.192 496> 303 84<-161 -11 61 667> 530 84<126.728 496>
AnchorPoint: "Anchor-2" 339 -161 basechar 0
AnchorPoint: "Anchor-1" 257 -161 basechar 0
AnchorPoint: "Anchor-0" 433 667 basechar 0
LayerCount: 2
Fore
SplineSet
391 667 m 1xfb80
 475 667 l 1
 346 61 l 1
 456 70 502 119 532 262 c 2
 582 496 l 1
 666 496 l 1
 617 269 l 2
 573 63 506 -3 331 -11 c 5
 299 -161 l 1
 215 -161 l 1
 247 -11 l 1
 114 -4 63 39 63 143 c 0xfb80
 63 177 68 217 79 269 c 2
 128 496 l 1
 212 496 l 1xf780
 162 262 l 2
 154 223 150 193 150 168 c 0
 150 98 181 68 262 61 c 1
 391 667 l 1xfb80
EndSplineSet
EndChar

StartChar: omega
Encoding: 249 969 617
Width: 733
Flags: HW
HStem: -12 78<162.324 274.402 455.943 570.676>
VStem: 38 84<110.726 399.588> 328 70<141.3 280> 611 84<110.726 399.588>
AnchorPoint: "Anchor-1" 369 0 basechar 0
AnchorPoint: "Anchor-0" 416 496 basechar 0
LayerCount: 2
Fore
SplineSet
109 154 m 0
 109 248 162 394 231 491 c 1
 149 501 l 1
 89 405 55 326 33 221 c 0
 27 194 24 168 24 144 c 0
 24 47 71 -12 148 -12 c 0
 226 -12 284 22 332 97 c 1
 348 24 395 -12 475 -12 c 0
 573 -12 661 82 690 221 c 0
 702 277 708 325 708 371 c 0
 708 413 703 455 694 501 c 1
 606 491 l 1
 618 451 624 411 624 368 c 0
 624 192 564 66 480 66 c 0
 423 66 394 106 394 182 c 0
 394 210 398 243 406 280 c 1
 336 280 l 1
 306 137 253 66 177 66 c 0
 132 66 109 96 109 154 c 0
332 97 m 1025
EndSplineSet
EndChar

StartChar: Phi
Encoding: 214 934 618
Width: 656
Flags: HW
HStem: 0 74<187 281 375 469> 108 45<214.486 281 375 441.514> 515 45<214.486 281 375 441.514> 594 74<187 281 375 469>
VStem: 40 96<234.776 433.224> 281 94<74 109.508 153 515 558.492 594> 520 96<234.473 433.527>
AnchorPoint: "Anchor-2" 323 0 basechar 0
AnchorPoint: "Anchor-1" 257 0 basechar 0
AnchorPoint: "Anchor-0" 399 668 basechar 0
LayerCount: 2
Fore
SplineSet
116 0 m 1
 132 74 l 1
 226 74 l 1
 233 108 l 1
 104 120 34 180 34 280 c 0
 34 433 151 544 329 560 c 1
 336 594 l 1
 242 594 l 1
 258 668 l 1
 540 668 l 1
 524 594 l 1
 430 594 l 1
 423 560 l 1
 552 549 622 489 622 389 c 0
 622 234 505 123 327 108 c 1
 320 74 l 1
 414 74 l 1
 398 0 l 1
 116 0 l 1
319 515 m 1
 204 499 129 405 129 278 c 0
 129 206 168 164 243 153 c 1
 319 515 l 1
337 153 m 1
 452 169 527 263 527 390 c 0
 527 462 488 504 413 515 c 1
 337 153 l 1
EndSplineSet
EndChar

StartChar: Psi
Encoding: 216 936 619
Width: 720
Flags: HW
HStem: 0 21G<313 407> 181 82<239.384 313 407 480.616> 648 20G<76 170 313 407 550 644>
VStem: 76 94<335.814 668> 313 94<0 182.226 263 668> 550 94<335.384 668>
AnchorPoint: "Anchor-2" 371 0 basechar 0
AnchorPoint: "Anchor-1" 289 0 basechar 0
AnchorPoint: "Anchor-0" 431 668 basechar 0
LayerCount: 2
Fore
SplineSet
384 668 m 1xf7
 478 668 l 1
 392 263 l 1
 501 273 548 324 578 464 c 2
 621 668 l 1
 715 668 l 1
 673 471 l 2
 630 269 550 192 374 181 c 1
 336 0 l 1
 242 0 l 1
 280 181 l 1
 145 190 90 240 90 352 c 0xf7
 90 385 95 424 105 471 c 2
 147 668 l 1
 241 668 l 1xef
 198 464 l 2
 190 427 186 397 186 373 c 0
 186 302 218 271 298 263 c 1
 384 668 l 1xf7
EndSplineSet
EndChar

StartChar: Theta
Encoding: 200 920 620
Width: 727
Flags: HW
HStem: -12 79<270.609 455.909> 293 79<216 511> 601 79<270.609 455.909>
VStem: 50 96<207.986 461.059> 581 96<207.986 461.259>
AnchorPoint: "Anchor-0" 435 668 basechar 0
LayerCount: 2
Back
SplineSet
691 401 m 0
 691 164 530 -12 312 -12 c 0
 157 -12 55 99 55 268 c 0
 55 508 213 680 433 680 c 0
 588 680 691 569 691 401 c 0
150 269 m 0
 150 147 219 67 325 67 c 0
 480 67 596 209 596 399 c 0
 596 521 527 600 420 600 c 0
 264 600 150 460 150 269 c 0
EndSplineSet
Fore
SplineSet
207 293 m 1
 224 372 l 1
 519 372 l 1
 502 293 l 1
 207 293 l 1
420 600 m 0
 265 600 150 466 150 276 c 0
 150 160 219 67 325 67 c 0
 480 67 596 206 596 396 c 0
 596 512 527 600 420 600 c 0
691 409 m 0
 691 167 530 -12 312 -12 c 0
 157 -12 55 111 55 267 c 0
 55 509 215 680 433 680 c 0
 589 680 691 565 691 409 c 0
EndSplineSet
EndChar
